<?xml version="1.0" standalone="no"?>
<!DOCTYPE svg PUBLIC "-//W3C//DTD SVG 20010904//EN"
 "http://www.w3.org/TR/2001/REC-SVG-20010904/DTD/svg10.dtd">
<svg version="1.0" xmlns="http://www.w3.org/2000/svg"
 width="900.000000pt" height="789.000000pt" viewBox="0 0 900.000000 789.000000"
 preserveAspectRatio="xMidYMid meet">
<metadata>
Created by potrace 1.10, written by Peter Selinger 2001-2011
</metadata>
<g transform="translate(0.000000,789.000000) scale(0.100000,-0.100000)"
fill="#ffffff" stroke="none">
<path d="M2088 7593 c-13 -12 -47 -15 -194 -15 -133 -1 -186 -5 -207 -15 -15
-8 -37 -11 -47 -8 -11 3 -40 -3 -66 -14 -26 -12 -60 -21 -76 -21 -17 0 -41 -9
-55 -20 -14 -11 -38 -20 -53 -20 -72 0 -140 -93 -140 -192 0 -69 -12 -85 -85
-112 -74 -27 -106 -74 -125 -181 -6 -33 -13 -72 -16 -86 -4 -16 0 -37 9 -50
11 -17 16 -55 17 -129 3 -139 5 -132 -34 -158 -19 -13 -37 -34 -40 -47 -3 -13
-23 -37 -45 -54 -27 -22 -43 -44 -52 -77 -9 -29 -24 -54 -42 -66 -16 -11 -32
-31 -37 -44 -6 -16 -25 -28 -65 -40 -30 -10 -61 -25 -69 -33 -15 -18 -46 -142
-46 -183 0 -37 -35 -94 -74 -118 -23 -14 -39 -35 -50 -67 -31 -85 -35 -93 -55
-93 -17 0 -70 -50 -72 -68 0 -4 -2 -16 -3 -27 -1 -11 -18 -42 -37 -70 -46 -66
-69 -116 -69 -152 0 -17 -12 -41 -30 -62 -17 -18 -30 -38 -30 -43 0 -6 -13
-27 -30 -48 -23 -29 -30 -48 -30 -81 0 -24 -7 -53 -15 -63 -8 -11 -15 -30 -15
-42 0 -12 -7 -38 -15 -57 -9 -22 -15 -68 -15 -119 0 -81 0 -82 40 -129 34 -40
40 -55 40 -92 0 -34 -6 -50 -26 -70 -24 -24 -25 -31 -23 -106 3 -72 1 -83 -19
-101 -52 -49 -50 -139 6 -199 44 -47 113 -91 142 -91 54 0 55 -6 55 -341 l0
-309 4184 0 c2302 0 4187 3 4190 7 3 5 4 478 1 1053 -5 1132 -1 1040 -57 1250
-26 102 -86 280 -94 286 -5 3 -9 13 -9 22 0 29 -152 322 -218 420 -198 294
-461 545 -747 711 -49 29 -97 57 -105 62 -8 5 -24 13 -35 18 -107 48 -136 60
-175 75 -25 10 -53 22 -62 27 -10 5 -34 13 -55 18 -21 5 -51 14 -68 20 -31 10
-97 27 -220 55 -63 15 -183 16 -1175 13 l-1105 -3 -75 -23 c-41 -12 -88 -26
-105 -31 -36 -10 -113 -37 -140 -49 -11 -5 -60 -26 -109 -46 -143 -59 -278
-137 -326 -188 -14 -15 -30 -27 -37 -27 -15 0 -53 48 -53 67 0 19 -155 209
-225 275 -24 23 -38 28 -80 28 -30 0 -59 6 -71 15 -10 8 -35 15 -54 15 -19 0
-46 7 -60 15 -14 8 -39 14 -55 15 -17 0 -36 5 -42 11 -14 14 -259 15 -276 1
-7 -5 -73 -10 -147 -11 -98 -2 -141 -6 -157 -17 -27 -17 -50 -18 -55 -3 -9 26
-85 41 -229 44 -121 3 -148 1 -161 -12z m242 -119 c0 -2 -12 -4 -27 -4 -21 0
-24 3 -14 9 13 8 41 5 41 -5z m-164 -14 c26 -10 26 -11 9 -30 -15 -16 -31 -20
-87 -20 -66 0 -69 1 -66 23 2 17 10 22 35 22 18 1 35 4 39 8 10 10 38 9 70 -3z
m1013 -22 c77 -28 91 -45 72 -90 -8 -18 -16 -55 -19 -83 -5 -55 -16 -75 -41
-75 -9 0 -29 6 -44 13 -21 9 -27 19 -27 45 0 20 -6 35 -15 38 -8 4 -15 12 -15
19 0 7 -9 15 -20 18 -13 3 -18 11 -14 20 8 23 -15 31 -35 13 -17 -15 -20 -15
-34 -1 -17 16 -53 20 -61 6 -3 -5 3 -11 14 -14 33 -9 23 -27 -15 -27 -19 0
-35 -5 -35 -10 0 -6 -11 -15 -25 -20 -24 -9 -35 -30 -15 -30 6 0 10 -16 10
-35 0 -21 5 -35 13 -35 11 0 57 -42 57 -53 0 -2 -9 -7 -20 -10 -12 -3 -20 -14
-20 -27 0 -19 -4 -20 -37 -14 -44 7 -103 45 -140 88 -21 26 -24 37 -19 74 6
48 -4 74 -58 145 -40 53 -28 61 102 68 194 12 369 3 441 -23z m-1259 12 c12
-8 9 -10 -13 -10 -16 0 -26 4 -22 10 8 12 16 12 35 0z m340 0 c0 -5 15 -10 34
-10 41 0 49 -9 40 -45 -5 -19 -13 -25 -34 -25 -28 0 -40 15 -40 51 0 10 -4 19
-10 19 -5 0 -10 5 -10 10 0 6 5 10 10 10 6 0 10 -4 10 -10z m-464 -37 c10 -16
18 -44 18 -64 1 -49 29 -79 73 -79 36 0 43 -13 16 -28 -16 -9 -16 -12 1 -37
13 -20 16 -37 11 -68 -13 -73 -47 -76 -129 -12 -32 25 -64 45 -71 45 -15 0
-11 27 11 77 16 35 10 55 -31 112 -31 42 -31 55 -2 69 42 20 83 14 103 -15z
m434 2 c0 -8 -4 -15 -10 -15 -5 0 -10 7 -10 15 0 8 5 15 10 15 6 0 10 -7 10
-15z m-282 -42 c3 -27 -2 -34 -27 -48 -25 -12 -34 -13 -51 -3 -31 19 -32 37
-5 64 17 17 34 24 53 22 22 -2 28 -9 30 -35z m3687 13 c18 -13 18 -14 -2 -47
-24 -39 -21 -102 6 -133 27 -31 112 -66 162 -66 59 0 228 -69 287 -118 87 -72
276 -331 356 -489 44 -89 114 -257 126 -303 4 -19 17 -60 28 -90 11 -30 26
-83 32 -118 17 -86 7 -96 -59 -59 -62 34 -83 34 -138 -3 -124 -84 -166 -86
-233 -14 -35 38 -40 50 -40 90 0 30 6 54 17 66 23 26 90 23 145 -6 42 -22 47
-23 62 -8 10 11 16 12 16 4 0 -7 14 -12 35 -12 42 0 45 11 7 27 -15 7 -32 23
-37 35 -27 61 -164 110 -246 88 -59 -16 -84 -35 -114 -85 -33 -58 -32 -104 5
-179 36 -73 62 -103 115 -136 22 -13 42 -28 46 -32 9 -14 113 -29 157 -22 45
7 88 34 96 62 3 9 10 36 16 58 11 43 37 64 52 42 4 -7 5 -38 2 -69 l-6 -56
126 -63 c105 -52 126 -67 126 -85 0 -13 -7 -28 -16 -36 -18 -15 -35 -11 -189
46 -55 21 -113 38 -130 39 l-30 1 -3 -112 -3 -111 37 -66 36 -66 177 2 176 3
5 145 c4 117 2 161 -13 225 -10 44 -22 104 -28 134 -5 30 -13 59 -16 65 -4 6
-10 28 -14 51 -10 58 -60 257 -69 276 -4 8 -33 75 -64 147 -71 166 -116 252
-197 372 -87 131 -151 213 -228 293 -75 78 -85 84 -196 122 -44 15 -84 31 -89
36 -6 5 -68 9 -138 9 l-128 0 0 29 c0 17 6 33 12 37 17 10 246 5 267 -6 17 -9
172 -54 251 -73 25 -6 72 -27 105 -47 33 -20 92 -54 130 -75 39 -21 86 -51
106 -66 20 -16 40 -29 43 -29 9 0 84 -55 141 -103 100 -84 289 -284 336 -355
27 -41 49 -75 49 -77 0 -2 13 -23 29 -47 28 -41 79 -139 106 -203 7 -16 26
-59 42 -95 27 -57 53 -134 109 -311 8 -26 14 -55 14 -65 1 -11 8 -37 16 -59
12 -30 17 -88 19 -237 l3 -198 -642 -2 -641 -3 -22 25 c-13 14 -23 30 -23 36
0 6 -9 33 -21 60 -22 54 -28 68 -55 134 -23 58 -39 77 -72 83 -34 6 -104 31
-164 59 -65 29 -78 21 -78 -47 0 -31 5 -66 12 -78 7 -12 13 -56 15 -97 2 -41
4 -97 6 -123 l2 -49 -148 -1 c-81 0 -150 3 -155 7 -4 4 -10 49 -14 99 -11 154
-13 159 -82 224 -33 33 -79 70 -101 82 -22 13 -88 73 -147 134 -84 87 -108
117 -108 139 0 15 -12 42 -28 60 -15 18 -39 51 -54 74 -28 44 -96 127 -129
159 -11 11 -33 33 -47 49 -107 116 -179 185 -210 201 -21 11 -44 24 -52 31 -8
6 -44 27 -80 45 -36 18 -83 46 -104 61 -21 15 -43 28 -49 28 -33 0 -307 274
-307 308 0 21 101 114 180 167 64 42 82 53 110 65 14 6 36 15 50 21 14 6 39
17 55 24 17 6 47 20 68 29 21 9 44 16 53 16 8 0 29 7 47 17 46 23 395 23 429
-1 12 -9 29 -16 36 -16 43 0 278 -233 347 -345 11 -16 31 -46 47 -66 37 -49
178 -333 178 -360 0 -6 6 -25 14 -42 7 -18 21 -52 31 -77 9 -25 23 -60 31 -78
8 -18 14 -41 14 -51 0 -9 6 -37 14 -62 8 -24 20 -79 27 -123 17 -103 26 -115
61 -83 15 14 110 88 212 166 l186 141 75 0 c55 0 88 -6 120 -20 60 -27 155
-118 155 -147 0 -13 5 -23 10 -23 6 0 10 11 10 24 0 14 7 32 16 40 9 10 13 24
9 36 -9 28 -92 113 -136 139 -41 24 -144 60 -172 61 -38 0 -157 -42 -209 -75
-228 -142 -220 -141 -259 -40 -14 39 -39 102 -54 140 -15 39 -37 97 -50 131
-62 166 -153 337 -239 449 -55 72 -196 226 -249 272 -83 73 -96 98 -54 106 12
2 133 5 268 6 193 1 249 -2 264 -13z m789 8 c27 -4 46 -12 46 -20 0 -18 -80
-84 -102 -84 -10 0 -41 11 -68 25 -27 14 -58 25 -68 25 -24 0 -49 27 -36 40
15 15 156 23 228 14z m-4002 -84 c7 0 40 9 72 20 71 24 61 23 80 4 27 -27 19
-61 -26 -110 l-42 -45 -67 3 c-37 1 -73 -3 -80 -8 -8 -6 -39 -19 -69 -29 -30
-9 -62 -21 -70 -26 -8 -4 -39 -22 -67 -39 -58 -33 -74 -36 -122 -19 -50 18
-39 48 32 83 45 23 57 33 57 52 0 30 -35 40 -91 26 -69 -18 -87 1 -44 43 32
33 110 35 145 5 29 -25 38 -25 66 1 20 19 26 20 58 9 35 -11 76 -1 76 18 0 5
10 19 22 32 l21 23 18 -22 c9 -11 23 -21 31 -21z m981 18 c33 -21 57 -55 57
-79 0 -6 -24 -9 -57 -7 -56 3 -59 5 -76 39 -32 67 8 91 76 47z m-1791 -5 c28
-34 29 -52 0 -79 -35 -33 -76 -50 -141 -59 -63 -9 -81 3 -81 55 0 47 30 70
110 86 79 17 95 16 112 -3z m1048 -25 c0 -16 -3 -19 -11 -11 -6 6 -8 16 -5 22
11 17 16 13 16 -11z m-956 -39 c-3 -5 -9 -9 -15 -9 -11 0 -12 43 -2 54 9 9 25
-33 17 -45z m1361 1 c14 -27 14 -30 -4 -40 -11 -5 -40 -10 -65 -10 -26 0 -55
-6 -66 -12 -17 -11 -22 -10 -30 2 -28 42 29 90 107 90 37 0 44 -4 58 -30z
m3840 10 c11 -4 56 -20 100 -34 126 -39 146 -48 217 -93 37 -24 71 -43 77 -43
5 0 11 -4 13 -8 2 -4 21 -19 43 -32 99 -59 286 -211 380 -309 103 -106 256
-297 289 -362 9 -19 28 -54 42 -79 59 -104 88 -164 129 -270 9 -25 23 -60 31
-78 8 -18 14 -37 14 -43 0 -6 7 -27 16 -47 9 -21 22 -52 30 -70 8 -18 14 -40
14 -50 0 -9 6 -37 14 -62 8 -25 21 -67 29 -95 16 -53 28 -321 15 -341 -5 -7
-25 -8 -60 -3 -66 9 -269 10 -368 1 -121 -11 -110 -33 -110 221 0 157 -5 242
-15 292 -8 38 -15 80 -15 91 0 12 -7 46 -16 75 -8 30 -22 79 -31 109 -8 30
-21 70 -29 88 -8 18 -14 37 -14 43 0 5 -31 73 -69 152 -66 136 -169 306 -226
374 -14 18 -38 50 -52 70 -38 58 -170 189 -250 249 -84 62 -202 144 -209 144
-2 0 -22 11 -44 25 -37 23 -48 25 -207 27 l-168 3 -3 29 c-2 16 1 32 6 35 15
9 404 1 427 -9z m-3615 -60 c0 -5 -7 -10 -15 -10 -8 0 -15 5 -15 10 0 6 7 10
15 10 8 0 15 -4 15 -10z m325 -66 c69 -64 115 -88 123 -66 5 17 32 15 32 -3 0
-8 -5 -15 -12 -15 -6 0 -9 -2 -6 -5 2 -3 27 2 54 10 57 17 72 9 56 -32 -33
-86 -17 -142 73 -257 91 -117 194 -200 400 -321 160 -95 211 -137 360 -302 83
-92 176 -217 192 -261 22 -55 168 -216 287 -314 33 -28 77 -73 97 -99 31 -41
38 -59 44 -119 6 -61 12 -76 45 -116 70 -85 101 -104 177 -110 37 -3 82 -7 99
-10 l31 -4 -58 -61 c-92 -95 -117 -166 -129 -364 -4 -76 -6 -154 -3 -171 3
-18 2 -54 -2 -80 -6 -41 -17 -57 -90 -135 -105 -111 -108 -121 -103 -336 l4
-161 46 -59 c84 -106 18 -98 763 -98 610 0 652 1 683 18 50 27 131 117 142
157 6 21 10 249 10 558 0 434 -2 529 -14 557 -8 19 -19 35 -24 35 -5 0 -14 11
-20 24 -6 14 -27 43 -47 65 -20 22 -34 45 -30 51 9 14 302 14 310 0 7 -12 3
-18 -70 -112 l-50 -63 -3 -562 -3 -562 66 -75 c36 -41 75 -78 86 -81 36 -12
183 -10 220 3 38 13 104 76 137 133 22 36 22 41 22 585 l0 548 -27 40 c-45 69
-65 87 -87 81 -12 -3 -15 -2 -8 1 19 9 14 30 -10 47 l-23 15 30 12 c80 30 85
34 85 66 0 22 7 36 24 47 44 29 57 76 55 202 -1 98 1 119 16 135 17 18 16 22
-8 82 -14 35 -28 77 -32 93 -19 99 -96 336 -137 425 -169 366 -245 478 -490
721 -93 91 -168 169 -168 172 0 17 58 4 107 -23 148 -84 356 -271 469 -423
123 -165 245 -402 309 -598 46 -142 64 -239 65 -350 0 -71 3 -89 19 -103 17
-15 18 -28 14 -119 -6 -122 6 -176 46 -210 20 -16 31 -36 33 -58 3 -31 7 -35
48 -46 25 -6 82 -12 126 -12 114 -1 118 -10 46 -102 l-57 -74 -3 -550 c-2
-353 1 -563 7 -585 12 -42 114 -148 151 -157 14 -4 66 -7 115 -8 68 0 99 4
128 19 55 27 145 121 157 164 6 23 10 235 10 558 l0 521 -31 46 c-17 26 -58
72 -92 102 l-60 55 65 68 c45 46 70 81 77 108 14 52 13 271 -1 298 -6 12 -15
37 -19 56 -4 19 -12 49 -17 65 -6 17 -24 71 -40 120 -16 50 -41 122 -56 160
-15 39 -34 90 -43 115 -24 70 -155 329 -201 398 -23 35 -42 68 -42 73 0 17 18
9 37 -16 88 -121 194 -287 220 -345 14 -30 37 -82 53 -115 31 -64 56 -132 69
-180 5 -16 13 -41 19 -55 5 -14 20 -70 32 -125 12 -55 26 -116 32 -137 6 -20
8 -47 4 -61 -3 -13 1 -45 8 -71 20 -65 10 -1816 -10 -1844 -16 -22 95 -21
-2144 -18 -536 0 -1420 0 -1964 -1 -544 -2 -999 0 -1012 3 -31 8 -30 16 4 56
68 79 72 95 72 267 0 175 0 176 -83 256 -35 34 -77 47 -77 24 0 -6 -11 -9 -24
-7 -15 2 -34 -6 -49 -20 -37 -34 -58 -25 -90 40 -41 82 -119 152 -193 173
-164 47 -251 63 -374 70 -112 7 -220 28 -220 44 0 5 28 13 63 19 34 6 91 18
127 27 36 9 113 22 172 29 59 8 116 21 128 29 23 16 127 15 165 -2 71 -31 181
-39 303 -22 38 6 95 6 145 0 187 -21 289 -22 392 -5 125 21 137 25 108 37 -34
13 -28 29 10 29 34 0 47 14 62 67 10 37 -23 72 -67 73 -44 0 -50 15 -12 24
l27 7 -22 23 c-11 12 -21 28 -21 34 0 7 -16 12 -39 12 -36 0 -61 14 -48 26 3
3 29 7 58 8 35 2 54 8 57 17 3 8 11 18 18 22 25 15 15 45 -28 81 -40 35 -98
50 -98 26 0 -14 -37 -12 -43 3 -4 10 -7 10 -18 0 -7 -7 -19 -13 -26 -13 -15 0
-18 27 -3 32 6 2 -18 2 -53 1 -56 -1 -68 -5 -96 -31 -21 -19 -41 -28 -54 -26
-12 2 -16 2 -9 -2 14 -7 16 -50 3 -58 -15 -10 -34 22 -27 47 5 20 -1 27 -38
45 -24 12 -48 22 -55 22 -6 0 -11 4 -11 9 0 17 -45 20 -68 5 -15 -10 -34 -13
-49 -9 -20 5 -24 3 -20 -9 4 -10 -2 -17 -16 -22 -33 -10 -53 -36 -61 -77 -5
-26 -11 -35 -21 -30 -8 3 -15 11 -15 19 0 8 -4 14 -10 14 -5 0 -10 -4 -10 -10
0 -5 -9 -10 -19 -10 -14 0 -18 5 -14 19 3 10 0 22 -6 25 -7 4 -11 -1 -11 -13
0 -12 -7 -21 -15 -21 -17 0 -22 65 -5 75 15 9 1 27 -17 21 -8 -4 -11 -2 -7 5
7 12 -55 72 -99 95 l-28 15 46 45 c86 87 114 128 125 185 6 30 22 70 35 89 22
30 23 36 10 46 -18 13 -20 55 -4 71 15 15 -52 94 -124 145 -136 97 -121 91
-223 85 -72 -4 -107 -12 -156 -34 -92 -41 -165 -39 -238 6 -51 32 -58 33 -127
29 -41 -3 -76 -1 -82 5 -7 7 -15 6 -25 -2 -21 -18 -39 -3 -33 26 3 19 0 27
-14 30 -11 3 -19 11 -19 19 0 8 -14 14 -37 16 -42 3 -56 24 -21 33 13 3 31 19
40 36 22 38 7 69 -34 69 -20 0 -31 8 -43 30 -20 39 -20 40 14 40 34 0 61 -23
61 -51 0 -10 5 -19 10 -19 6 0 10 -7 10 -15 0 -17 9 -19 30 -5 10 6 29 1 61
-17 46 -24 49 -25 80 -9 22 11 36 13 43 6 7 -7 3 -10 -12 -10 -23 0 -29 -14
-11 -25 6 -4 21 2 33 14 27 25 71 28 80 4 5 -12 9 -14 18 -5 20 20 31 13 25
-16 -5 -23 0 -31 27 -50 19 -13 47 -22 69 -22 19 0 39 -4 42 -10 11 -17 25
-11 35 15 7 18 14 23 26 18 14 -5 16 -3 11 11 -5 13 -1 19 13 23 17 5 19 11
14 39 -5 26 -2 35 10 40 26 10 -28 105 -86 149 -21 16 -138 15 -138 -1 0 -7
-6 -11 -14 -8 -19 7 -56 -13 -56 -31 0 -7 -5 -17 -11 -21 -9 -5 -10 1 -5 20 5
22 2 33 -19 52 -14 13 -31 24 -37 24 -6 0 -8 9 -5 20 4 17 2 20 -13 15 -21 -7
-36 10 -19 20 5 4 8 14 5 22 -4 9 -1 22 5 30 7 7 9 17 5 20 -4 4 -11 1 -15 -6
-5 -7 -16 -11 -25 -9 -13 2 -10 9 14 35 17 18 34 43 39 55 l9 23 12 -26 c9
-20 21 -28 52 -32 22 -3 48 -13 59 -23 17 -16 22 -16 29 -4 6 8 10 18 10 23 0
18 20 5 20 -14 0 -31 45 -69 81 -69 16 0 29 5 29 10 0 6 9 10 19 10 39 0 44
85 6 120 -26 24 -33 54 -15 65 6 3 13 -1 17 -10 5 -16 7 -16 15 -1 12 22 41
20 64 -5 l18 -20 8 20 c9 27 28 27 28 1 0 -11 -4 -20 -10 -20 -15 0 -12 -47 3
-54 9 -3 7 -9 -5 -19 -13 -10 -18 -29 -18 -61 0 -60 13 -86 40 -79 24 6 27
-12 5 -33 -31 -31 -9 -106 50 -170 21 -23 28 -26 35 -14 5 8 12 11 16 7 4 -3
1 -13 -5 -21 -8 -9 -8 -16 -2 -20 5 -4 12 -2 16 4 9 14 72 12 78 -2 3 -9 17 0
39 23 18 19 41 38 50 41 10 4 18 21 20 43 4 46 22 50 26 5 7 -67 62 -92 109
-48 42 39 19 118 -34 118 -29 0 -30 16 -1 31 49 26 141 114 161 154 29 58 30
75 8 75 -12 0 -21 5 -21 11 0 7 11 8 30 4 23 -5 30 -3 30 9 0 8 6 19 13 23 16
11 34 50 41 91 4 24 1 37 -13 51 -40 40 -32 159 11 146 9 -3 20 0 24 6 5 9 10
8 18 -3 6 -8 27 -18 46 -21 36 -7 45 0 66 56 3 9 10 17 15 17 12 0 11 57 -1
65 -5 3 -10 18 -10 32 0 14 -8 32 -17 39 -25 18 -79 18 -87 -1 -3 -8 -13 -15
-21 -15 -11 0 -16 -8 -15 -22 1 -13 2 -49 1 -80 -1 -44 -5 -58 -16 -58 -12 0
-15 15 -15 76 0 60 -3 75 -13 71 -20 -8 -40 84 -26 120 8 22 7 30 -5 39 -24
17 -19 24 18 24 18 0 39 7 46 15 25 30 62 16 135 -51z m-305 6 c20 -20 20 -35
0 -120 -5 -19 -10 -65 -12 -101 -2 -67 9 -99 38 -99 16 0 29 -39 17 -51 -4 -4
-82 -11 -173 -15 -158 -6 -220 -19 -220 -43 0 -5 -17 -23 -38 -40 l-38 -30
-55 26 c-35 17 -79 29 -126 32 -47 4 -79 12 -89 22 -20 21 -28 115 -17 195 13
89 7 100 -67 108 -70 8 -85 1 -107 -51 -7 -18 -26 -46 -43 -63 -16 -17 -30
-35 -30 -40 0 -14 42 -40 66 -40 37 0 49 -27 46 -103 -2 -61 1 -75 23 -109 14
-21 31 -38 39 -38 8 0 16 -7 20 -15 3 -8 12 -15 21 -15 8 0 15 -4 15 -9 0 -5
3 -16 6 -24 13 -35 -40 -27 -89 13 -10 7 -33 13 -51 12 -29 -2 -35 1 -40 23
-10 39 -62 67 -116 61 -108 -10 -243 -56 -287 -98 -13 -12 -23 -32 -23 -45 0
-18 -9 -27 -41 -39 -43 -18 -59 -43 -59 -94 0 -21 8 -35 26 -46 24 -16 27 -16
55 0 42 25 142 32 159 12 7 -9 28 -16 46 -16 39 0 43 -14 19 -60 -14 -28 -19
-30 -73 -30 -39 0 -66 6 -82 17 -20 14 -43 17 -110 15 -93 -2 -115 -15 -104
-59 6 -20 3 -23 -25 -23 -17 0 -31 4 -31 10 0 5 -11 12 -25 16 -31 8 -33 34
-4 60 23 21 114 202 123 246 4 16 20 35 41 48 45 28 75 67 75 98 0 14 15 43
34 66 26 33 32 46 25 64 -12 31 -71 31 -92 0 -8 -13 -26 -36 -41 -51 -22 -24
-29 -26 -47 -16 -20 10 -50 9 -158 -3 l-24 -3 -2 145 c-1 80 -4 159 -6 175 -4
30 -4 30 44 29 28 0 54 -6 63 -15 13 -14 12 -18 -6 -41 -27 -34 -26 -42 11
-72 43 -37 109 -31 182 17 41 26 55 21 79 -30 32 -67 60 -70 88 -10 20 43 54
75 115 109 59 33 79 39 150 42 41 2 83 10 96 19 37 23 115 30 166 15 58 -17
79 -46 64 -88 -7 -22 -7 -38 1 -55 9 -20 18 -24 75 -27 79 -4 89 -1 113 40 26
43 55 42 82 -4 19 -32 24 -35 52 -30 50 10 71 39 71 99 0 47 2 52 24 55 16 3
32 -5 48 -22 45 -49 113 -17 83 39 -15 28 -5 75 15 75 8 0 24 -9 35 -20z
m-291 -26 c7 -7 -21 -53 -35 -58 -8 -3 -25 -1 -39 4 -27 10 -25 34 4 58 14 11
57 9 70 -4z m364 4 c2 -7 2 -28 -1 -47 -6 -41 -22 -22 -22 27 0 32 13 44 23
20z m-1678 -8 c-3 -5 -13 -10 -21 -10 -8 0 -14 5 -14 10 0 6 9 10 21 10 11 0
17 -4 14 -10z m-198 -121 c7 -14 13 -70 14 -125 1 -62 6 -109 15 -126 8 -15
14 -45 14 -67 0 -22 5 -43 11 -46 6 -4 14 -17 18 -28 5 -12 26 -31 47 -42 50
-26 58 -59 17 -70 -24 -6 -32 -1 -58 29 -16 20 -37 36 -46 36 -9 0 -33 -14
-54 -30 -27 -21 -42 -27 -49 -20 -7 7 -7 16 2 30 17 27 15 44 -5 62 -28 25
-74 30 -107 13 -72 -38 -91 -14 -81 107 6 81 4 99 -14 141 -28 66 -20 82 69
131 30 17 135 35 180 32 8 -1 20 -13 27 -27z m2091 -66 l3 -83 -41 0 -41 0 7
78 c7 80 15 94 49 90 18 -3 20 -12 23 -85z m-178 -278 c17 -21 -3 -68 -37 -86
-22 -12 -26 -11 -44 11 -26 34 -24 68 4 80 34 13 63 12 77 -5z m-220 -46 c6
-11 8 -33 5 -49 -10 -45 2 -67 45 -84 32 -13 40 -21 40 -41 0 -21 -5 -25 -32
-25 -18 -1 -44 -7 -58 -15 -90 -52 -151 26 -110 142 29 85 84 121 110 72z
m-241 -48 c15 -28 -8 -51 -56 -58 -35 -5 -43 -2 -52 16 -14 26 -8 37 32 61 33
21 59 14 76 -19z m-1566 -52 c8 -12 5 -28 -10 -60 l-20 -42 -69 2 c-84 3 -103
16 -85 59 13 31 35 42 88 42 17 0 35 5 38 11 10 15 46 7 58 -12z m907 -19 c0
-6 -7 -22 -16 -35 -13 -20 -25 -25 -61 -25 -32 0 -54 -7 -79 -26 -39 -30 -64
-26 -64 10 0 36 43 66 96 66 23 0 46 5 49 10 8 13 75 13 75 0z m338 -58 c4
-48 -13 -62 -54 -44 -19 9 -24 19 -24 46 0 37 11 46 50 43 22 -2 25 -7 28 -45z
m-944 19 c12 -13 15 -27 10 -45 -5 -23 -11 -27 -38 -24 -23 2 -33 10 -40 30
-17 49 33 78 68 39z m-124 -36 c0 -8 -4 -15 -10 -15 -5 0 -10 7 -10 15 0 8 5
15 10 15 6 0 10 -7 10 -15z m1310 -36 l0 -40 -37 3 c-36 3 -38 5 -41 41 l-3
37 40 0 41 0 0 -41z m-1354 6 c9 -14 26 -25 38 -25 20 0 25 -19 17 -68 0 -5
-19 -23 -41 -41 -35 -28 -43 -30 -62 -20 -64 32 -92 95 -48 106 14 4 20 14 20
32 0 34 7 41 36 41 14 0 30 -10 40 -25z m4725 -5 c6 0 7 -4 4 -10 -8 -13 -62
-13 -70 -1 -6 11 23 21 43 15 8 -2 18 -4 23 -4z m-5097 -41 c12 -18 20 -20 55
-14 37 6 41 5 41 -14 0 -12 -4 -21 -10 -21 -5 0 -10 -9 -10 -20 0 -27 -27 -92
-43 -102 -17 -11 -85 -10 -108 2 -10 6 -19 16 -19 23 0 8 -13 26 -30 42 -48
46 -35 85 35 110 55 19 72 18 89 -6z m1776 -26 c0 -18 14 -39 45 -69 52 -48
59 -85 23 -114 -33 -27 -61 -9 -82 53 -9 29 -18 61 -19 73 -1 11 -8 28 -15 36
-15 19 -7 45 16 51 25 5 32 -1 32 -30z m233 -83 c-5 -18 0 -20 36 -20 l41 0 0
-40 c0 -40 0 -40 -40 -40 -40 0 -40 0 -40 40 0 22 -4 40 -9 40 -5 0 -11 9 -14
20 -4 15 0 20 13 20 13 0 17 -5 13 -20z m-825 -46 c3 -57 -13 -84 -51 -84 -52
1 -53 10 -12 128 3 8 16 12 32 10 26 -3 28 -7 31 -54z m522 31 c0 -8 -4 -17
-10 -20 -6 -4 -10 5 -10 20 0 15 4 24 10 20 6 -3 10 -12 10 -20z m-1459 -44
c29 -28 40 -45 37 -62 -3 -27 -31 -36 -62 -20 -11 5 -32 11 -46 13 -35 4 -40
51 -9 84 12 13 26 24 31 24 5 0 27 -17 49 -39z m277 5 c2 -9 -3 -28 -12 -41
-32 -49 -6 -120 35 -94 8 5 35 9 60 9 61 0 97 26 80 58 -6 11 -11 25 -11 29 0
10 79 33 115 33 33 0 32 -14 -5 -40 -36 -26 -38 -47 -7 -59 30 -12 48 -34 39
-48 -9 -14 -76 -19 -107 -9 -14 5 -28 1 -43 -12 -18 -16 -21 -26 -15 -52 6
-32 5 -33 -23 -28 -16 3 -36 8 -45 12 -11 5 -27 -2 -45 -18 l-29 -24 24 -26
c14 -14 29 -26 34 -26 6 0 18 -7 28 -16 24 -22 62 -11 80 22 18 35 65 54 131
54 32 0 62 6 76 16 12 8 35 14 50 12 23 -3 27 -8 27 -33 0 -28 -2 -30 -41 -30
-34 -1 -52 -9 -103 -50 -33 -28 -61 -57 -61 -66 0 -9 -8 -26 -17 -38 -16 -18
-24 -20 -68 -13 -48 7 -50 9 -55 42 -5 33 -8 35 -59 46 -86 20 -128 -11 -81
-61 18 -19 18 -23 4 -43 -8 -12 -21 -22 -28 -22 -20 0 -42 -40 -51 -88 -6 -37
-4 -47 16 -68 12 -13 31 -24 41 -24 11 0 35 -12 54 -26 27 -21 47 -27 92 -29
72 -2 85 4 110 57 26 56 82 108 123 117 28 6 36 14 49 49 21 59 43 71 145 75
82 4 89 6 107 30 11 15 27 27 36 27 25 0 62 -41 62 -69 0 -51 10 -55 122 -52
110 2 134 10 175 59 20 24 28 26 85 24 35 -1 78 4 96 11 44 15 68 1 64 -40 -5
-46 37 -75 102 -71 47 3 51 1 60 -24 12 -34 -6 -58 -44 -58 -50 0 -68 -36 -62
-127 6 -102 2 -105 -108 -94 -47 5 -89 6 -95 3 -17 -11 -116 -24 -210 -29 -49
-2 -117 -8 -150 -13 -33 -4 -98 -9 -145 -9 -47 -1 -116 -8 -155 -16 -38 -8
-85 -15 -103 -15 -18 0 -43 -5 -54 -11 -12 -6 -67 -13 -122 -15 -56 -1 -114
-7 -129 -13 -16 -6 -41 -11 -57 -11 -16 0 -42 -11 -60 -26 -17 -15 -45 -30
-62 -33 -17 -4 -37 -16 -44 -27 -12 -17 -11 -25 6 -59 22 -43 26 -90 10 -100
-8 -5 -7 -11 1 -21 15 -18 -3 -64 -25 -64 -8 0 -33 -16 -56 -35 -48 -40 -57
-42 -125 -16 -58 22 -69 48 -32 78 13 10 29 28 36 41 6 12 20 22 30 22 28 0
57 30 75 80 24 60 23 93 -3 125 -11 15 -21 35 -21 43 0 8 -11 30 -25 48 -14
18 -25 38 -25 44 0 7 11 21 25 32 14 11 25 28 25 37 0 21 37 71 52 71 20 0 78
51 78 67 0 20 -48 73 -66 73 -7 0 -29 -10 -49 -21 -30 -18 -41 -20 -61 -11
-31 15 -31 46 1 84 14 16 25 35 25 42 0 7 13 31 28 52 49 67 152 258 152 281
0 7 11 20 25 29 27 18 32 43 14 73 -16 25 -3 70 24 80 28 11 61 -1 65 -23z
m916 -31 c10 -22 27 -46 37 -53 44 -31 3 -82 -66 -82 -54 0 -73 24 -37 48 29
19 28 40 -3 48 -34 8 -36 60 -2 74 36 15 51 7 71 -35z m-1554 6 c0 -9 -13 -25
-30 -34 -37 -22 -40 -64 -8 -107 l22 -30 -22 -30 c-27 -35 -27 -39 -4 -56 25
-20 45 -17 86 11 55 37 106 30 106 -16 0 -18 -46 -39 -88 -39 -15 0 -36 -13
-56 -34 -17 -19 -42 -36 -56 -38 -30 -4 -38 -33 -16 -57 20 -22 11 -51 -16
-51 -10 0 -33 7 -49 16 -29 15 -30 17 -24 62 5 42 3 50 -18 70 l-25 23 -38
-20 c-43 -23 -84 -27 -84 -8 0 6 11 25 24 42 21 26 23 37 18 92 -4 60 -4 63
22 74 23 11 29 9 49 -9 13 -12 28 -22 34 -22 18 0 42 45 32 61 -23 37 0 78 65
111 35 18 76 12 76 -11z m1050 -95 c0 -9 -7 -12 -20 -9 -31 8 -34 23 -6 23 16
0 26 -6 26 -14z m-824 -11 c10 -8 31 -15 46 -15 18 0 26 -4 22 -13 -2 -7 4
-22 16 -32 11 -10 20 -23 20 -30 0 -6 -31 -72 -69 -146 -82 -160 -91 -196 -65
-245 11 -20 27 -42 37 -51 23 -21 22 -54 -4 -87 -21 -26 -62 -35 -74 -16 -10
16 -62 12 -69 -5 -3 -8 -11 -15 -18 -15 -9 0 -14 -19 -15 -57 -2 -45 1 -60 17
-75 22 -20 86 -25 92 -6 10 29 88 -88 88 -131 0 -29 -58 -91 -84 -91 -12 0
-31 7 -42 15 -10 8 -28 15 -39 15 -11 0 -39 18 -63 40 l-44 39 7 58 c4 32 14
65 21 74 9 10 14 40 14 82 0 60 -2 67 -20 67 -16 0 -20 7 -20 30 0 18 -6 33
-15 36 -8 4 -15 15 -15 26 0 17 -5 19 -30 13 -16 -4 -35 -3 -42 2 -9 5 -1 10
22 13 27 4 36 10 38 28 3 18 -2 23 -27 28 -17 4 -31 10 -31 15 0 13 54 11 66
-1 8 -8 48 26 132 109 l120 119 -5 44 c-3 24 -12 48 -20 55 -9 7 -13 19 -10
27 4 9 2 18 -3 21 -11 7 -13 58 -3 68 11 12 48 8 69 -8z m-96 -65 c0 -5 -9
-10 -21 -10 -11 0 -17 5 -14 10 3 6 13 10 21 10 8 0 14 -4 14 -10z m-500 -175
c0 -8 -4 -15 -10 -15 -5 0 -10 7 -10 15 0 8 5 15 10 15 6 0 10 -7 10 -15z
m-20 -35 c0 -5 10 -10 23 -10 29 0 47 -18 47 -47 0 -12 7 -26 16 -31 10 -5 14
-14 9 -21 -5 -9 -11 -9 -23 3 -10 8 -30 16 -47 18 -25 2 -31 8 -33 33 -2 17
-8 34 -13 40 -14 14 -11 25 6 25 8 0 15 -4 15 -10z m-34 -148 c12 -18 25 -56
29 -85 10 -83 11 -84 63 -91 144 -19 141 -19 183 9 81 53 107 8 34 -60 -45
-41 -47 -46 -40 -82 3 -21 13 -48 21 -60 25 -40 17 -58 -37 -87 -39 -20 -65
-26 -114 -26 -54 0 -66 -3 -79 -21 -8 -12 -30 -32 -50 -45 -38 -26 -46 -55
-22 -79 11 -11 12 -24 4 -62 -13 -61 -21 -70 -85 -99 -29 -12 -53 -28 -53 -33
0 -19 -39 -12 -50 9 -13 25 -46 25 -85 1 -27 -16 -33 -17 -58 -4 -32 16 -33
23 -7 53 11 13 20 27 20 31 0 5 17 17 37 26 28 14 39 26 43 48 5 28 8 30 49
30 44 0 44 0 62 50 23 66 23 94 0 119 -17 18 -20 38 -22 146 -3 140 6 170 47
170 14 0 34 -5 45 -11 16 -8 25 -7 40 7 10 9 19 22 19 29 0 14 -52 65 -66 65
-6 0 -16 11 -22 25 -10 21 -9 28 9 46 27 27 59 21 85 -19z m210 11 c39 -32 44
-58 12 -66 -39 -11 -97 44 -84 79 8 22 34 17 72 -13z m435 -50 c-9 -16 -10
-14 -11 12 0 21 3 26 11 18 8 -8 8 -16 0 -30z m4654 -140 c10 -3 36 -47 60
-97 34 -72 56 -104 109 -156 46 -44 63 -67 55 -75 -6 -6 -84 -11 -200 -12
-155 -2 -191 0 -195 12 -7 17 26 64 44 65 7 0 15 8 19 18 3 9 20 32 37 50 29
31 31 39 32 105 0 106 0 105 39 90z m-4717 -105 c3 -41 0 -49 -22 -64 -38 -24
-56 -12 -56 37 0 49 23 81 54 77 17 -2 22 -11 24 -50z m-868 -144 c20 -51 12
-82 -31 -129 -23 -25 -46 -45 -52 -45 -13 0 -1 101 19 148 23 57 49 67 64 26z
m2562 11 c3 -3 -22 -34 -54 -68 -33 -33 -55 -63 -49 -65 16 -5 14 -57 -3 -72
-8 -6 -12 -18 -9 -27 9 -24 -17 -32 -87 -26 -46 4 -72 12 -87 26 -26 24 -28
42 -9 87 8 19 11 51 8 77 -5 42 -3 45 19 43 13 -1 26 -1 29 0 42 18 229 37
242 25z m-319 -39 c4 -6 6 -20 5 -31 -2 -16 -11 -20 -38 -20 -29 0 -36 4 -38
23 -7 45 45 66 71 28z m359 -29 c-51 -10 -69 -7 -59 10 3 4 29 6 59 4 l53 -5
-53 -9z m-795 -13 c3 -10 1 -30 -5 -46 -8 -22 -8 -35 0 -48 17 -26 -6 -50 -48
-50 -27 0 -34 4 -34 20 0 11 -4 29 -10 40 -5 11 -14 29 -20 40 -16 31 -12 37
28 48 56 15 82 14 89 -4z m348 -14 c4 -6 4 -33 0 -60 -6 -42 -10 -50 -28 -50
-11 0 -31 9 -43 21 -25 24 -68 18 -87 -12 -26 -41 -97 -2 -97 53 0 42 35 55
105 38 49 -12 60 -11 88 3 38 19 54 21 62 7z m955 -31 c0 -5 -9 -9 -20 -9 -22
0 -27 16 -7 23 15 5 27 -1 27 -14z m-1609 -9 c72 -10 137 -38 145 -63 8 -25
-11 -36 -61 -35 -30 0 -53 -8 -88 -31 -50 -34 -100 -47 -141 -37 -40 10 -56
33 -56 82 0 51 25 84 64 84 14 0 28 5 32 11 3 6 16 8 28 4 11 -4 46 -10 77
-15z m1156 0 c23 0 63 -35 63 -56 0 -6 -14 -17 -30 -24 -59 -24 -179 13 -180
57 0 17 50 33 90 28 19 -3 45 -5 57 -5z m-1999 -23 c24 -25 8 -64 -32 -77 -22
-7 -40 -23 -52 -46 -31 -58 -107 -72 -173 -32 -48 29 -51 34 -51 95 0 75 11
80 166 77 96 -2 130 -6 142 -17z m2765 1 c12 -6 29 -14 37 -18 8 -4 16 -18 18
-32 l3 -26 -85 0 c-74 1 -86 3 -91 19 -8 25 0 37 38 53 41 18 52 19 80 4z
m-245 -29 c4 -42 -8 -47 -113 -49 -141 -3 -135 -5 -135 30 0 36 9 39 135 43
115 3 110 5 113 -24z m460 -11 c15 -42 3 -51 -62 -43 -57 7 -66 11 -66 30 0
26 31 45 74 45 38 0 43 -3 54 -32z m-2802 -13 c4 -8 0 -25 -9 -38 -8 -12 -18
-46 -22 -76 -8 -57 -35 -95 -63 -89 -9 3 -15 11 -13 19 2 8 3 37 3 66 0 38 5
56 19 69 10 9 19 25 19 35 0 29 56 41 66 14z m54 -10 c0 -8 -4 -17 -10 -20 -6
-4 -10 5 -10 20 0 15 4 24 10 20 6 -3 10 -12 10 -20z m5031 -12 c283 2 522 5
532 8 16 4 17 -28 20 -592 l2 -596 -600 1 c-330 0 -647 -1 -705 -4 l-105 -5 0
184 c-1 222 3 234 84 267 33 13 70 38 94 63 l39 42 -6 107 c-6 117 -6 110 -6
262 0 93 3 111 26 158 19 40 23 57 15 65 -15 15 -14 44 1 49 7 3 31 1 54 -4
22 -5 272 -7 555 -5z m1024 3 l120 2 -2 -595 -1 -595 -147 0 -146 0 0 593 c1
327 1 597 1 602 0 4 12 4 28 0 15 -5 81 -7 147 -7z m1007 -2 l108 6 2 -586 c2
-322 1 -590 -2 -594 -3 -4 -77 -9 -165 -11 l-160 -4 2 600 c1 330 2 601 2 601
1 1 25 -3 54 -8 28 -6 100 -7 159 -4z m-4691 -14 c23 -13 25 -55 3 -64 -9 -3
-29 -6 -45 -6 -27 0 -29 2 -23 28 4 15 14 32 23 39 20 15 18 15 42 3z m-393
-27 c2 -9 -7 -13 -27 -13 -30 0 -46 11 -34 24 11 11 56 2 61 -11z m597 -14 c0
-11 -16 -14 -73 -14 -70 0 -98 9 -74 24 6 3 41 6 79 5 52 0 68 -4 68 -15z
m-455 1 c0 -5 -11 -10 -24 -10 -14 0 -28 5 -31 10 -4 6 7 10 24 10 17 0 31 -4
31 -10z m160 1 c0 -14 -48 -22 -86 -15 -54 10 -40 24 26 24 33 0 60 -4 60 -9z
m-703 -47 c3 -8 1 -20 -5 -26 -14 -14 -102 -19 -156 -9 -37 7 -51 5 -76 -10
-38 -24 -39 -54 -2 -66 30 -11 193 0 257 17 23 6 91 9 161 6 146 -5 169 3 158
60 -6 34 -6 34 30 34 31 0 36 -3 36 -23 0 -13 -5 -28 -12 -35 -25 -25 14 -44
103 -48 85 -5 129 -21 129 -49 0 -7 -5 -17 -10 -20 -20 -12 -323 -5 -338 7
-18 16 -235 16 -254 1 -7 -6 -54 -14 -103 -17 -536 -30 -755 -53 -817 -84 -23
-12 -53 -16 -102 -14 -76 3 -96 13 -96 47 0 20 6 23 74 28 41 3 83 10 94 16
12 6 53 11 93 11 73 0 109 15 109 45 0 22 -58 39 -94 28 -17 -6 -51 -10 -76
-9 -41 2 -45 4 -48 29 -3 26 -1 27 40 28 44 1 111 5 184 12 23 2 47 8 54 12 7
4 80 11 164 16 83 5 187 13 231 17 44 5 122 9 173 10 76 2 94 -1 99 -14z m73
-4 c8 -15 21 -20 50 -20 21 0 42 -4 45 -10 10 -15 -98 -12 -120 4 -11 8 -16
19 -12 30 9 22 24 20 37 -4z m199 -15 c-8 -7 -30 -15 -49 -19 -27 -4 -31 -3
-17 5 9 5 17 16 17 24 0 18 21 24 44 13 15 -8 16 -12 5 -23z m-1411 -55 c18
-11 37 -31 42 -45 5 -14 15 -25 22 -25 9 0 9 -3 0 -12 -10 -10 -15 -10 -21 1
-5 7 -14 10 -21 6 -8 -5 -9 -10 -1 -18 17 -17 13 -30 -6 -25 -16 4 -18 -1 -14
-39 2 -30 -1 -43 -10 -43 -10 0 -10 -3 -1 -12 10 -10 15 -10 21 1 6 9 11 10
15 2 4 -6 2 -11 -3 -11 -17 0 -13 -16 14 -56 14 -21 22 -41 18 -45 -11 -11
-119 -29 -169 -29 -70 0 -92 13 -92 54 0 25 5 36 14 36 20 0 29 27 14 45 -7 8
-9 22 -6 31 6 16 8 15 21 -2 12 -15 16 -16 24 -5 16 24 1 50 -32 53 -62 6 -61
70 2 76 17 2 31 7 31 12 0 4 13 22 29 39 34 36 63 39 109 11z m-937 -39 c20
-16 21 -21 10 -34 -7 -9 -10 -20 -7 -25 3 -6 0 -15 -8 -21 -8 -6 -17 -32 -20
-56 -7 -42 -5 -46 33 -81 61 -55 57 -66 -31 -88 -108 -27 -137 -28 -183 -5
-24 12 -46 30 -48 40 -3 11 -13 19 -22 19 -9 0 -13 5 -10 10 4 6 -4 19 -17 30
-22 19 -22 19 -2 20 11 0 30 -9 42 -20 30 -28 62 -9 62 37 0 31 2 33 34 33 36
0 56 25 35 44 -8 8 -13 8 -16 -1 -6 -15 -43 -17 -43 -3 0 6 7 13 15 16 8 4 15
11 15 18 1 15 29 47 60 68 33 23 73 22 101 -1z m520 -12 c15 -15 19 -29 16
-47 -3 -15 -1 -35 5 -46 7 -12 7 -26 0 -41 -13 -27 -4 -40 15 -23 7 6 17 8 20
4 4 -4 1 -11 -7 -16 -13 -8 -12 -13 3 -39 21 -36 22 -61 2 -61 -7 0 -18 -6
-22 -13 -4 -8 -26 -17 -48 -20 -24 -4 -46 -14 -54 -27 -19 -28 -34 -25 -28 6
3 18 0 27 -12 32 -9 3 -23 15 -32 26 -13 16 -14 24 -5 38 9 15 8 21 -4 28 -8
5 -11 12 -7 16 3 4 12 2 20 -4 10 -8 20 -3 42 25 29 37 34 74 19 151 -6 31 -5
32 25 32 18 0 40 -9 52 -21z m2758 6 c6 -6 12 -22 13 -35 l3 -25 -275 0 c-151
0 -283 2 -292 4 -27 5 -23 49 5 61 30 13 533 8 546 -5z m-2901 -54 c8 -5 12
-21 10 -37 -3 -28 -6 -29 -52 -29 -41 -1 -52 -5 -72 -30 -22 -27 -27 -29 -86
-27 -67 3 -137 27 -139 49 -1 7 -2 19 -3 26 -1 7 14 12 39 13 69 2 180 16 190
24 23 18 92 25 113 11z m327 -21 c3 -5 1 -19 -5 -31 -9 -16 -8 -24 4 -38 21
-23 20 -57 0 -65 -10 -4 -26 4 -42 22 -15 16 -39 32 -54 36 -16 3 -28 11 -28
17 0 22 22 49 40 49 10 0 22 5 25 10 8 13 52 13 60 0z m-941 -62 c3 -34 4 -64
1 -66 -3 -3 -5 7 -5 21 0 25 -3 27 -39 27 -22 0 -41 -5 -44 -12 -2 -8 -8 -9
-13 -4 -5 5 -4 11 4 13 6 3 12 19 12 37 0 41 5 46 45 46 32 0 32 0 39 -62z
m-158 35 c13 -17 13 -17 14 0 0 9 7 17 15 17 19 0 21 -66 3 -73 -10 -3 -10 -7
0 -19 18 -22 -2 -35 -58 -40 -39 -3 -45 0 -48 17 -4 26 35 115 50 115 6 0 17
-8 24 -17z m1439 -123 c3 -5 -3 -10 -14 -10 -12 0 -21 5 -21 10 0 6 6 10 14
10 8 0 18 -4 21 -10z m-325 -30 c0 -13 -7 -20 -19 -20 -44 0 -68 24 -33 33 38
10 52 7 52 -13z m620 6 c0 -8 -15 -16 -37 -19 -44 -8 -53 -2 -27 18 24 18 64
19 64 1z m-1636 -72 c25 -10 19 -27 -24 -69 -31 -31 -37 -42 -29 -56 23 -43
182 -49 237 -9 24 18 56 25 159 36 70 8 148 22 173 31 45 17 91 42 100 54 3 4
18 11 33 14 23 6 27 4 27 -14 0 -12 -4 -21 -8 -21 -14 0 -52 -85 -52 -117 0
-34 31 -67 102 -107 l47 -27 -2 -192 -2 -192 -333 2 -334 1 -2 189 c-1 103 -5
195 -9 204 -4 8 -44 30 -89 49 -129 52 -193 125 -159 178 9 14 102 50 133 51
9 1 23 -2 32 -5z m866 -69 c20 -18 176 -49 240 -47 25 0 81 6 125 11 44 5 185
12 313 14 161 2 236 7 244 15 17 17 162 15 196 -2 18 -9 80 -15 192 -19 101
-3 184 -11 215 -20 28 -8 74 -20 104 -27 29 -7 65 -19 80 -26 14 -8 32 -14 39
-14 6 0 12 -6 12 -12 0 -7 2 -118 3 -245 l2 -233 -816 3 -816 2 5 193 5 194
-34 29 c-19 16 -39 29 -45 29 -7 0 -39 20 -73 45 -51 37 -61 50 -61 74 0 44
39 64 70 36z m2044 -229 c19 -8 36 -19 40 -24 3 -6 7 -91 8 -189 l2 -178 -50
-3 -49 -3 -1 206 c0 113 4 205 8 205 5 0 24 -6 42 -14z m-1974 -413 c27 -21
49 -43 49 -49 1 -6 8 -17 16 -24 12 -10 13 -16 3 -27 -10 -12 -36 -14 -134
-11 -67 1 -126 6 -130 11 -9 9 115 137 133 137 8 0 36 -17 63 -37z m1872 -25
c26 -29 48 -57 48 -64 0 -18 -42 -25 -135 -23 -119 2 -122 8 -48 79 33 33 67
60 74 60 7 0 34 -23 61 -52z m-2729 -26 c33 -34 34 -48 5 -55 -40 -11 -88 34
-74 68 9 23 40 18 69 -13z"/>
<path d="M5898 5993 c-34 -29 -40 -33 -124 -83 -60 -35 -67 -48 -58 -106 8
-53 24 -64 129 -94 43 -12 86 -26 94 -30 9 -5 43 -19 76 -31 63 -24 95 -45 95
-62 0 -6 14 -47 31 -91 17 -45 36 -93 41 -108 10 -27 13 -28 78 -28 l67 0 -3
172 c-4 184 -5 188 -57 188 -45 0 -128 45 -188 102 -66 63 -119 130 -119 151
0 22 -11 47 -21 47 -4 0 -23 -12 -41 -27z"/>
<path d="M3624 6617 c-6 -7 -13 -36 -16 -65 -4 -46 -3 -52 13 -52 16 0 19 8
19 50 l0 50 41 0 40 0 -3 -42 c-3 -37 -7 -45 -35 -58 -41 -19 -42 -30 -3 -30
20 0 30 5 30 15 0 8 6 15 14 15 9 0 16 17 21 46 5 39 3 49 -14 65 -23 22 -90
25 -107 6z"/>
<path d="M2553 6293 c-22 -8 -14 -23 12 -23 16 0 25 6 25 15 0 15 -14 18 -37
8z"/>
<path d="M3457 6023 c-33 -8 -57 -36 -57 -65 0 -16 4 -28 9 -28 11 0 21 25 21
50 0 14 9 20 32 22 17 2 33 9 36 16 4 12 -8 14 -41 5z"/>
<path d="M3517 5983 c-11 -10 -8 -43 3 -43 6 0 10 11 10 25 0 26 -2 29 -13 18z"/>
<path d="M4640 5920 c0 -5 21 -10 46 -10 27 0 43 4 39 10 -3 6 -24 10 -46 10
-21 0 -39 -4 -39 -10z"/>
<path d="M3440 5910 c0 -5 11 -10 25 -10 14 0 25 5 25 10 0 6 -11 10 -25 10
-14 0 -25 -4 -25 -10z"/>
<path d="M4604 5885 c-8 -19 2 -45 16 -45 5 0 10 14 10 30 0 31 -16 41 -26 15z"/>
<path d="M4740 5876 c0 -14 5 -26 10 -26 6 0 10 9 10 19 0 11 -4 23 -10 26 -6
4 -10 -5 -10 -19z"/>
<path d="M4640 5820 c0 -5 18 -10 39 -10 22 0 43 5 46 10 4 6 -12 10 -39 10
-25 0 -46 -4 -46 -10z"/>
<path d="M4575 5419 c-10 -16 -1 -21 50 -26 91 -11 25 -32 -77 -25 -21 2 -28
-2 -28 -17 0 -10 -7 -21 -15 -25 -8 -3 -15 -15 -15 -26 0 -12 7 -28 15 -36 8
-9 15 -24 15 -35 0 -21 16 -26 22 -7 3 7 12 9 24 4 19 -7 19 -8 0 -22 -25 -18
-12 -32 14 -16 26 16 164 16 190 0 23 -15 44 0 35 24 -5 12 -28 18 -88 23
-108 9 -171 30 -185 61 -9 19 -8 25 6 33 17 9 81 1 140 -18 19 -5 47 -8 62 -4
21 4 33 0 46 -16 23 -26 31 -26 39 -1 11 33 -12 50 -66 50 -52 0 -66 15 -24
26 29 7 24 24 -8 24 -13 0 -31 6 -42 14 -27 18 -102 29 -110 15z"/>
<path d="M4190 5391 c-21 -19 -30 -38 -30 -60 0 -17 5 -31 10 -31 6 0 10 16
10 35 l0 35 70 0 c56 0 70 -3 70 -15 0 -20 10 -19 26 3 19 25 17 32 -8 32 -13
0 -36 7 -52 15 -41 22 -62 19 -96 -14z"/>
<path d="M3260 5370 c0 -22 5 -40 10 -40 6 0 10 18 10 40 0 22 -4 40 -10 40
-5 0 -10 -18 -10 -40z"/>
<path d="M3360 5376 c0 -20 5 -36 10 -36 6 0 10 13 10 29 0 17 -4 33 -10 36
-6 4 -10 -8 -10 -29z"/>
<path d="M3290 5310 c0 -5 14 -10 31 -10 17 0 28 4 24 10 -3 6 -17 10 -31 10
-13 0 -24 -4 -24 -10z"/>
<path d="M4190 5286 c0 -10 19 -15 73 -18 63 -4 100 3 86 16 -2 2 -39 7 -81
10 -64 5 -78 4 -78 -8z"/>
<path d="M4615 5171 c-27 -7 -28 -9 -10 -17 38 -17 164 -9 144 10 -9 9 -106
14 -134 7z"/>
<path d="M7701 5081 c-11 -7 -10 -11 5 -20 16 -9 13 -10 -18 -11 -27 0 -38 -4
-38 -15 0 -8 -7 -15 -15 -15 -8 0 -15 -9 -15 -20 0 -11 -7 -20 -15 -20 -9 0
-20 -12 -25 -26 -6 -15 -10 -244 -10 -580 l0 -555 25 -23 c14 -13 25 -27 25
-32 0 -21 81 -84 108 -84 36 0 102 61 136 125 l25 47 1 529 c0 428 -2 535 -14
562 -15 35 -79 107 -95 107 -6 0 -11 6 -11 14 0 23 -43 34 -69 17z m61 -96
c11 -4 13 -113 11 -603 l-2 -597 -44 -3 c-49 -3 -65 14 -47 48 14 26 14 1069
0 1106 -7 19 -7 30 1 40 11 14 55 19 81 9z"/>
<path d="M4495 4750 c-4 -6 6 -10 22 -10 15 0 37 -7 47 -15 11 -8 33 -15 48
-15 33 0 46 -23 27 -46 -23 -28 -44 -34 -73 -18 -32 16 -76 19 -76 5 0 -15 60
-41 96 -41 39 0 84 39 84 73 0 13 -14 35 -31 50 -26 22 -41 27 -84 27 -30 0
-57 -4 -60 -10z"/>
<path d="M4810 4733 c-48 -6 -80 -38 -80 -80 0 -21 6 -36 15 -39 8 -4 15 -12
15 -19 0 -15 47 -23 190 -31 88 -5 108 -10 127 -28 13 -11 23 -29 23 -38 0
-10 4 -18 9 -18 14 0 19 23 11 45 -14 37 -45 55 -108 61 -62 7 -86 23 -34 25
15 0 36 4 47 8 19 8 19 8 -2 15 -13 4 -23 12 -23 17 0 5 -15 25 -34 44 -36 35
-84 47 -156 38z m16 -38 c11 -8 41 -14 72 -15 44 0 52 -3 52 -19 0 -10 -7 -24
-15 -31 -21 -17 -101 -25 -109 -11 -4 6 -18 11 -32 11 -26 0 -30 13 -14 54 11
30 19 32 46 11z"/>
<path d="M4460 4701 c0 -17 5 -31 10 -31 6 0 10 11 10 24 0 14 -4 28 -10 31
-6 4 -10 -7 -10 -24z"/>
<path d="M4824 4536 c-8 -22 3 -49 19 -43 6 2 12 14 12 27 0 27 -22 39 -31 16z"/>
<path d="M4905 4481 c-65 -9 -42 -18 68 -26 75 -5 87 -4 87 9 0 9 -8 16 -17
16 -10 0 -34 2 -53 4 -19 2 -57 1 -85 -3z"/>
<path d="M1530 4700 c0 -19 3 -21 12 -12 9 9 9 15 0 24 -9 9 -12 7 -12 -12z"/>
<path d="M530 4530 c0 -5 11 -10 24 -10 14 0 28 5 31 10 4 6 -7 10 -24 10 -17
0 -31 -4 -31 -10z"/>
<path d="M3826 2963 c-4 -4 -4 -56 0 -115 8 -119 5 -124 -49 -86 -40 29 -140
30 -183 2 -51 -34 -83 -78 -104 -143 -20 -62 -20 -65 -3 -119 24 -75 81 -132
153 -155 51 -16 59 -16 109 -1 71 21 103 46 135 104 25 45 26 57 34 271 5 135
4 229 -1 237 -10 13 -79 17 -91 5z m-53 -285 c12 -6 29 -14 37 -18 10 -5 16
-25 18 -58 5 -86 -54 -172 -119 -172 -92 0 -157 89 -129 176 19 58 54 83 118
84 29 0 62 -5 75 -12z"/>
<path d="M8112 2931 c-12 -17 -22 -33 -22 -36 0 -4 -12 -22 -26 -40 -14 -19
-23 -39 -19 -45 8 -13 45 -12 72 3 38 22 135 117 130 130 -2 7 -27 13 -58 15
-51 3 -56 1 -77 -27z"/>
<path d="M306 2909 c-46 -36 -26 -99 33 -99 31 0 61 27 61 54 0 16 -45 66 -60
66 -4 0 -19 -9 -34 -21z"/>
<path d="M1628 2916 c-10 -7 -22 -24 -27 -38 -21 -57 71 -95 104 -44 14 20 14
29 4 48 -14 25 -39 47 -54 47 -5 0 -18 -5 -27 -13z"/>
<path d="M1303 2878 c-6 -8 -7 -98 -2 -237 l7 -223 30 -31 c28 -27 38 -31 110
-35 72 -4 81 -2 91 15 6 12 7 32 2 49 -7 28 -10 29 -67 29 -32 0 -64 3 -70 7
-6 4 -11 52 -11 123 l-1 115 74 0 74 0 0 45 0 44 -72 3 -73 3 3 38 c2 21 -2
45 -9 53 -14 17 -73 18 -86 2z"/>
<path d="M1818 2878 c-2 -7 -1 -115 2 -240 l5 -228 27 -27 c26 -26 34 -28 115
-28 85 0 88 1 91 24 2 12 1 34 -3 48 -6 25 -8 26 -63 20 -31 -4 -62 -3 -68 1
-7 4 -13 52 -15 122 l-4 115 65 3 c75 4 92 14 88 56 l-3 31 -72 3 c-48 2 -73
7 -74 15 0 7 -1 30 -2 52 -2 39 -3 40 -43 43 -27 2 -43 -1 -46 -10z"/>
<path d="M2519 2883 c-7 -36 5 -435 13 -458 18 -53 52 -69 143 -70 76 0 80 1
83 24 2 12 1 34 -3 48 -5 23 -9 24 -65 21 -33 -1 -64 2 -69 7 -11 11 -18 221
-8 231 3 3 36 7 74 8 l68 1 3 43 c2 29 -1 42 -10 43 -7 0 -42 0 -77 -1 l-64
-1 7 41 c4 27 2 47 -5 56 -12 14 -88 20 -90 7z"/>
<path d="M5539 2878 c0 -7 0 -107 1 -223 2 -219 5 -240 50 -280 17 -16 36 -19
103 -20 l82 0 3 33 c5 51 -13 65 -73 58 -27 -3 -56 -2 -63 3 -9 6 -12 38 -10
126 l3 119 70 1 70 0 3 43 3 42 -77 0 -77 0 6 43 c4 28 2 48 -5 55 -16 16 -88
16 -89 0z"/>
<path d="M615 2783 c-10 -3 -31 -13 -45 -22 -72 -46 -92 -107 -88 -277 l3
-129 54 -3 54 -3 -5 148 -5 147 28 28 c44 44 103 35 137 -21 15 -24 16 -46 11
-157 -3 -71 -3 -133 1 -137 4 -5 27 -7 51 -5 l44 3 3 115 c4 159 -14 227 -74
276 -34 29 -53 36 -96 39 -29 2 -62 1 -73 -2z"/>
<path d="M2937 2782 c-19 -2 -51 -25 -93 -68 -68 -68 -72 -78 -66 -178 7 -103
117 -196 231 -196 91 0 173 70 204 175 12 43 12 57 1 103 -17 65 -36 91 -94
130 -45 30 -116 43 -183 34z m149 -123 c26 -27 29 -37 29 -92 0 -74 -21 -109
-77 -128 -124 -41 -222 111 -137 214 29 35 33 37 93 37 56 0 65 -3 92 -31z"/>
<path d="M5955 2783 c-11 -3 -23 -10 -27 -16 -5 -8 -14 -7 -31 2 -13 7 -37 11
-53 9 l-29 -3 0 -210 0 -210 43 -3 c29 -2 42 1 43 10 0 7 0 70 -1 139 -1 123
-1 127 25 157 19 22 36 32 56 32 33 0 52 27 47 68 -3 28 -28 37 -73 25z"/>
<path d="M6194 2779 c-76 -15 -152 -102 -169 -192 -8 -42 14 -113 47 -156 51
-67 156 -104 234 -83 61 16 97 45 127 101 63 116 37 236 -67 306 -39 26 -113
37 -172 24z m133 -108 c56 -41 67 -110 30 -176 -59 -105 -208 -72 -233 52 -22
109 112 191 203 124z"/>
<path d="M6644 2784 c-38 -9 -103 -73 -113 -112 -6 -20 -10 -82 -10 -137 -1
-55 -5 -114 -10 -132 -12 -42 4 -55 61 -51 l43 3 0 148 0 149 28 24 c47 41
100 30 134 -28 18 -30 19 -45 12 -158 -3 -69 -5 -128 -2 -132 2 -5 26 -8 53
-8 l48 0 -5 153 c-4 89 -12 165 -19 183 -22 52 -85 95 -146 99 -29 2 -63 1
-74 -1z"/>
<path d="M7090 2781 c-132 -30 -199 -189 -135 -318 53 -105 177 -151 280 -104
78 35 125 115 125 211 0 90 -31 143 -111 192 -28 18 -118 28 -159 19z m148
-129 c26 -29 32 -43 32 -81 0 -75 -56 -141 -120 -141 -120 0 -175 160 -84 242
44 38 127 29 172 -20z"/>
<path d="M7530 2783 c-14 -2 -43 -19 -65 -37 l-40 -34 -1 -83 c-1 -46 -3 -127
-5 -179 l-4 -95 50 0 50 0 -4 152 c-3 142 -2 152 18 172 25 25 58 27 89 5 22
-15 23 -21 22 -162 -1 -81 -1 -153 0 -160 0 -9 14 -12 48 -10 l47 3 0 153 c0
149 1 154 24 173 39 32 83 23 105 -20 11 -20 12 -56 6 -161 -4 -74 -4 -139 0
-143 4 -5 27 -7 51 -5 l44 3 -1 160 c-1 179 -8 205 -66 246 -42 31 -136 30
-175 -1 -32 -25 -41 -25 -67 -1 -22 20 -83 31 -126 24z"/>
<path d="M8405 2780 c-103 -17 -183 -143 -160 -252 19 -87 80 -156 158 -177
90 -26 175 16 179 87 1 25 3 18 7 -23 l6 -60 45 0 45 0 3 125 c4 169 -18 228
-104 281 -32 20 -120 29 -179 19z m141 -108 c32 -27 44 -56 44 -107 0 -47 -13
-85 -30 -85 -5 0 -26 -11 -46 -25 -20 -14 -46 -25 -58 -25 -54 0 -126 76 -126
133 0 34 25 85 54 109 29 24 133 24 162 0z"/>
<path d="M288 2573 c-2 -114 1 -214 6 -220 11 -16 72 -17 82 -1 4 6 7 104 7
217 l0 206 -46 3 -46 3 -3 -208z"/>
<path d="M957 2762 c-41 -28 -56 -53 -57 -95 0 -45 28 -91 68 -111 15 -7 56
-21 92 -30 76 -21 103 -38 98 -63 -3 -16 -16 -18 -126 -19 -128 0 -141 -5
-142 -46 0 -45 7 -48 124 -48 169 1 215 18 233 88 18 75 -42 143 -148 168 -87
19 -109 30 -109 53 0 30 16 35 130 35 l105 1 0 40 0 40 -120 3 c-103 2 -124 0
-148 -16z"/>
<path d="M1617 2773 c-4 -3 -7 -100 -7 -214 0 -179 2 -208 16 -213 26 -10 61
-7 70 7 5 6 8 105 6 220 l-3 207 -38 0 c-21 0 -41 -3 -44 -7z"/>
<path d="M2086 2665 c-7 -135 -1 -187 27 -235 28 -47 54 -66 104 -80 81 -23
176 17 214 91 16 33 19 60 19 189 l0 151 -47 -3 -48 -3 3 -140 c2 -124 1 -142
-16 -161 -43 -50 -86 -56 -131 -18 l-31 26 0 149 0 149 -43 0 -44 0 -7 -115z"/>
<path d="M4053 2747 c-50 -39 -67 -66 -83 -136 -28 -117 35 -227 151 -263 51
-17 57 -16 111 0 57 18 138 75 138 98 0 6 6 17 14 23 18 15 25 55 14 75 -6 10
-22 16 -43 16 -31 0 -37 -5 -60 -50 -31 -62 -70 -84 -134 -77 -38 4 -52 12
-82 46 -30 33 -36 48 -34 78 2 44 24 90 54 117 24 22 117 33 140 17 21 -14 5
-40 -35 -57 -20 -8 -55 -27 -78 -42 -22 -15 -46 -29 -53 -32 -7 -3 -3 -15 13
-35 l24 -30 57 32 c32 17 95 51 141 74 45 23 82 47 82 53 0 6 -27 36 -61 68
l-60 58 -87 -1 c-82 0 -89 -2 -129 -32z"/>
<path d="M4759 2756 c-19 -13 -48 -41 -65 -63 -27 -35 -29 -44 -29 -124 0 -84
1 -88 35 -130 53 -68 102 -97 166 -98 40 -1 100 23 107 44 9 21 21 19 32 -7 8
-18 18 -23 45 -23 l35 0 6 75 c13 149 -4 253 -49 298 -44 44 -70 52 -159 52
-77 0 -93 -3 -124 -24z m214 -95 c31 -31 47 -113 28 -148 -13 -26 -98 -83
-123 -83 -26 0 -78 28 -99 54 -39 48 -33 130 12 176 47 46 134 47 182 1z"/>
<path d="M5188 2755 c-41 -27 -53 -62 -42 -120 9 -49 52 -80 154 -109 83 -24
102 -38 97 -66 -2 -12 -24 -15 -120 -16 -69 0 -122 -5 -128 -11 -6 -6 -9 -26
-7 -44 l3 -34 137 0 c123 0 139 2 165 21 26 20 28 26 28 89 0 66 -1 69 -36 97
-23 19 -63 36 -112 47 -89 22 -97 26 -97 51 0 30 18 34 135 35 119 0 125 3
111 61 -6 24 -7 24 -129 23 -111 0 -125 -2 -159 -24z"/>
<path d="M8069 2773 c0 -4 -1 -100 -2 -213 l-2 -205 50 0 49 0 0 210 -1 210
-46 3 c-26 2 -47 -1 -48 -5z"/>
<path d="M234 1951 c-2 -2 -4 -46 -4 -98 l0 -93 4263 2 4262 3 0 93 0 92
-4258 3 c-2342 1 -4261 0 -4263 -2z"/>
<path d="M1360 1204 c-107 -49 -155 -91 -198 -173 l-30 -56 -4 -297 c-2 -164
0 -298 4 -299 5 0 45 -1 91 -1 l82 -1 5 285 c5 296 4 290 49 338 44 47 122 64
184 41 31 -12 86 -67 99 -100 10 -27 12 -487 1 -528 -7 -32 24 -40 122 -33
l80 5 -5 160 c-2 88 -5 203 -5 255 -2 176 -23 240 -101 316 -72 69 -142 98
-249 101 -67 3 -99 -1 -125 -13z"/>
<path d="M2205 1200 c-33 -10 -76 -26 -95 -36 -39 -20 -140 -118 -140 -136 0
-6 -6 -19 -13 -27 -21 -25 -42 -129 -42 -206 1 -218 135 -386 343 -426 96 -18
222 15 269 72 12 16 22 203 11 215 -4 4 -26 -14 -49 -39 -44 -51 -113 -87
-164 -87 -76 0 -173 67 -215 150 -28 54 -28 175 -1 228 52 100 113 135 233
134 82 0 90 -2 140 -36 67 -44 90 -85 89 -162 0 -32 7 -121 16 -197 15 -128
15 -141 0 -173 -10 -19 -17 -48 -17 -65 l0 -30 92 3 92 3 -2 270 c-2 248 -4
275 -24 330 -24 66 -105 156 -169 186 -107 51 -244 63 -354 29z"/>
<path d="M3052 1198 c-64 -25 -136 -87 -163 -139 -18 -36 -19 -63 -22 -359
l-2 -320 93 0 93 0 -2 295 c-2 283 -2 297 18 323 29 40 61 53 116 49 32 -3 56
-12 72 -27 45 -42 49 -74 42 -367 -5 -212 -4 -273 6 -274 21 -1 161 -1 172 0
6 1 9 94 6 266 -2 146 0 281 3 300 12 63 69 105 143 105 28 0 44 -8 75 -39
l39 -39 -1 -291 c-1 -159 0 -294 3 -298 6 -9 165 -8 174 1 3 3 5 146 4 317 -2
297 -3 313 -24 353 -51 98 -162 166 -271 166 -67 0 -152 -30 -193 -69 -18 -17
-37 -31 -42 -31 -5 0 -25 14 -43 30 -77 71 -191 89 -296 48z"/>
<path d="M303 1197 c-10 -16 -3 -447 9 -532 13 -93 37 -144 94 -202 53 -53 91
-72 178 -90 57 -12 81 -12 135 -2 89 16 136 41 201 109 84 86 89 109 90 435 1
149 1 275 1 282 -1 8 -28 11 -88 10 l-88 -2 -1 -262 c-1 -144 -4 -272 -7 -285
-8 -32 -65 -92 -106 -112 -19 -9 -49 -16 -68 -16 -63 0 -157 79 -168 143 -3
18 -2 140 3 272 5 142 5 244 0 250 -12 13 -177 15 -185 2z"/>
</g>
</svg>
