<?xml version="1.0" standalone="no"?>
<!DOCTYPE svg PUBLIC "-//W3C//DTD SVG 20010904//EN"
 "http://www.w3.org/TR/2001/REC-SVG-20010904/DTD/svg10.dtd">
<svg version="1.0" xmlns="http://www.w3.org/2000/svg"
 width="900.000000pt" height="306.000000pt" viewBox="0 0 900.000000 306.000000"
 preserveAspectRatio="xMidYMid meet">
<metadata>
Created by potrace 1.10, written by Peter Selinger 2001-2011
</metadata>
<g transform="translate(0.000000,306.000000) scale(0.100000,-0.100000)"
fill="#ffffff" stroke="none">
<path d="M150 2923 c-2 -589 1 -2777 3 -2779 7 -7 4763 -8 4774 -1 10 6 13
300 12 1398 l0 1389 -2395 0 c-1316 0 -2394 -3 -2394 -7z m3135 -1085 l0
-1033 -1538 0 -1538 0 0 1030 c0 567 1 1032 1 1035 0 3 692 4 1538 3 l1537 -2
0 -1033z m667 1032 c4 0 20 -19 35 -42 35 -55 130 -151 214 -216 37 -29 69
-52 72 -52 4 0 27 -12 52 -27 49 -30 56 -50 25 -78 -11 -10 -20 -24 -20 -32 0
-7 -4 -13 -9 -13 -5 0 -12 -8 -15 -17 -4 -10 -20 -33 -36 -52 -17 -18 -30 -36
-30 -40 0 -3 -14 -22 -30 -41 -16 -19 -34 -40 -39 -46 -6 -7 -34 -10 -79 -6
-61 4 -75 2 -107 -18 -54 -33 -95 -95 -95 -142 0 -52 -15 -78 -45 -78 -14 0
-33 -4 -43 -9 -54 -26 -91 -40 -119 -46 -18 -4 -33 -10 -33 -15 0 -4 -20 -12
-46 -16 -25 -5 -45 -13 -45 -19 1 -15 71 -18 116 -5 78 23 195 78 195 92 0 19
41 6 49 -16 5 -12 27 -37 49 -55 35 -27 47 -31 102 -31 71 0 112 20 153 73 25
33 30 60 28 143 -1 31 -8 47 -31 70 -16 16 -30 35 -30 41 0 7 26 39 58 70 60
59 132 158 132 181 0 6 5 12 10 12 6 0 10 7 10 15 0 24 26 29 57 11 102 -56
221 -91 353 -104 l65 -7 3 -170 2 -171 -52 -50 c-47 -44 -168 -130 -208 -147
-8 -4 -22 -11 -30 -15 -89 -52 -233 -94 -394 -118 -113 -16 -125 -16 -235 0
-118 18 -200 38 -259 62 -18 8 -38 14 -44 14 -25 0 -100 43 -115 66 -9 15 -25
24 -40 24 -14 0 -52 20 -86 47 -34 25 -63 48 -65 49 -3 2 -5 901 -3 924 1 4
424 4 603 0z m548 -5 c7 -5 8 -11 1 -19 -6 -7 -13 -32 -17 -56 -4 -25 -13 -54
-20 -65 -8 -11 -14 -31 -14 -45 0 -14 -7 -34 -15 -44 -8 -11 -15 -30 -15 -41
0 -12 -9 -30 -21 -41 -18 -16 -22 -17 -33 -4 -13 17 -72 60 -81 60 -4 0 -12 6
-20 13 -7 6 -28 23 -46 37 -63 48 -212 196 -207 206 7 10 471 10 488 -1z m378
-228 c2 -207 0 -238 -13 -243 -9 -4 -44 3 -79 15 -34 11 -76 21 -93 21 -17 0
-44 7 -59 15 -16 8 -39 15 -51 15 -12 0 -24 4 -28 9 -3 5 -19 12 -35 16 -33 7
-90 34 -90 42 0 3 9 16 20 30 11 14 20 33 20 42 0 9 7 25 15 35 8 11 15 27 15
37 0 9 7 30 15 45 8 16 15 44 15 62 0 18 6 47 13 65 l14 32 159 -1 159 0 3
-237z m-784 -596 c10 -16 -5 -41 -24 -41 -22 0 -35 30 -18 42 17 10 36 10 42
-1z m786 -213 c5 -151 -3 -715 -10 -728 -7 -12 -27 -19 -76 -23 -36 -4 -71
-10 -78 -15 -9 -8 -133 -20 -251 -26 -34 -1 -34 -5 -15 114 11 70 8 208 -6
300 -5 34 -4 36 43 59 117 58 308 221 350 299 17 32 43 43 43 20z m-1481 -128
c24 -25 161 -130 206 -157 11 -7 40 -22 65 -33 25 -12 55 -27 68 -33 25 -12
62 -69 62 -96 0 -9 4 -21 9 -26 17 -18 72 -181 63 -189 -11 -11 -33 -6 -65 17
-18 12 -33 25 -35 30 -2 4 -10 7 -17 7 -8 0 -20 6 -27 13 -7 7 -31 24 -53 37
-44 27 -45 28 -95 70 -19 16 -38 30 -41 30 -16 0 -189 180 -193 201 -3 13 -8
59 -11 102 l-6 78 22 -12 c12 -6 34 -24 48 -39z m982 -138 c-5 -16 -15 -41
-24 -58 -11 -22 -16 -82 -21 -239 -7 -232 -21 -306 -68 -356 -24 -27 -31 -29
-106 -29 -74 0 -82 2 -101 26 -11 14 -25 51 -31 82 -6 31 -20 89 -29 127 -10
39 -24 95 -31 125 -17 74 -66 193 -108 259 -29 46 -32 56 -19 68 12 12 28 12
100 3 92 -13 266 -8 332 8 22 5 57 10 77 11 36 1 36 0 29 -27z m-820 -270 c37
-29 72 -52 78 -52 6 0 11 -4 11 -9 0 -5 10 -13 23 -17 12 -4 24 -10 27 -14 9
-12 134 -69 159 -72 22 -3 27 -12 42 -70 9 -37 18 -109 20 -160 l4 -93 -288 0
-288 0 -1 335 c0 184 1 339 1 345 1 5 34 -25 74 -66 39 -42 102 -99 138 -127z
m1317 -370 l3 -122 -220 0 c-121 0 -225 -2 -233 -5 -7 -3 -19 -1 -27 4 -12 8
-12 19 3 78 10 37 21 84 25 103 5 28 11 34 26 31 45 -10 273 -5 296 5 29 14
100 32 114 29 6 -1 11 -52 13 -123z m-10 -181 c10 -1 12 -59 10 -273 l-3 -273
-2329 -3 c-1385 -1 -2332 2 -2335 7 -5 7 -6 516 -2 541 1 4 4595 5 4659 1z"/>
<path d="M1715 2551 c-45 -5 -50 -9 -53 -33 -2 -14 -10 -32 -18 -38 -8 -7 -14
-25 -14 -41 0 -16 -4 -29 -10 -29 -5 0 -13 -18 -16 -40 -4 -22 -10 -40 -15
-40 -4 0 -11 -17 -15 -37 -4 -21 -13 -47 -20 -58 -8 -11 -14 -27 -14 -36 0 -9
-7 -30 -15 -45 -8 -16 -15 -39 -15 -51 0 -13 -4 -23 -10 -23 -5 0 -12 -17 -16
-37 -4 -21 -13 -47 -20 -58 -8 -11 -14 -29 -14 -40 0 -11 -7 -29 -15 -39 -8
-11 -15 -27 -15 -37 0 -9 -7 -30 -15 -45 -8 -16 -15 -37 -15 -46 0 -9 -4 -20
-10 -23 -5 -3 -10 -14 -10 -23 0 -9 -6 -29 -14 -43 -7 -14 -16 -42 -20 -62 -4
-21 -11 -37 -15 -37 -15 0 -23 -51 -11 -65 8 -10 18 -11 36 -5 44 17 73 -12
39 -40 -8 -7 -15 -18 -15 -25 0 -8 -8 -28 -17 -47 -9 -18 -22 -45 -30 -60 -7
-14 -13 -33 -13 -41 0 -8 -6 -20 -14 -26 -19 -16 -31 -70 -19 -82 5 -5 32 -6
63 -2 53 8 54 9 73 58 10 28 25 64 32 80 7 17 16 42 19 56 3 15 14 35 23 45
17 18 33 19 263 14 l244 -5 7 -30 c4 -16 17 -55 29 -85 12 -30 25 -67 27 -83
7 -34 23 -43 96 -52 56 -7 57 -7 57 18 0 13 -7 30 -15 37 -8 7 -15 20 -15 30
0 10 -7 23 -15 30 -8 7 -15 19 -15 27 0 8 -6 27 -14 41 -37 72 -57 123 -51
132 3 5 26 10 51 10 40 0 44 2 44 24 0 13 -7 37 -15 52 -8 16 -15 37 -15 46 0
9 -4 20 -10 23 -5 3 -10 14 -10 23 0 9 -7 30 -15 46 -8 15 -15 36 -15 45 0 10
-7 26 -15 37 -8 10 -15 28 -15 40 0 11 -7 29 -15 40 -8 10 -15 28 -15 40 0 11
-7 29 -15 40 -8 10 -15 28 -15 40 0 11 -7 29 -15 40 -8 10 -15 28 -15 40 0 11
-7 29 -15 40 -8 10 -15 28 -15 40 0 11 -7 29 -15 40 -8 10 -15 28 -15 40 0 11
-7 29 -15 40 -8 10 -15 28 -15 40 0 11 -7 29 -15 40 -8 10 -15 28 -15 39 0 11
-6 29 -14 40 -7 11 -16 34 -20 51 -4 20 -16 35 -32 43 -14 6 -26 10 -27 9 -1
0 -24 -4 -52 -7z m68 -76 c6 -16 13 -32 17 -35 4 -3 10 -22 14 -42 4 -21 11
-38 16 -38 6 0 10 -10 10 -23 0 -13 7 -32 15 -43 8 -10 15 -25 15 -32 0 -8 6
-28 14 -45 44 -96 56 -127 56 -141 0 -8 4 -17 9 -21 5 -3 12 -19 16 -36 4 -17
13 -42 21 -57 8 -15 14 -34 14 -42 0 -8 7 -24 15 -34 8 -11 15 -29 15 -40 0
-12 7 -30 15 -40 8 -11 15 -29 15 -40 0 -12 7 -30 15 -40 8 -11 15 -29 15 -40
0 -12 7 -30 15 -40 8 -11 15 -27 15 -37 0 -9 7 -22 15 -29 22 -18 9 -30 -34
-30 -40 0 -40 0 -88 125 -8 22 -21 54 -28 70 -7 17 -20 50 -30 75 -20 53 -36
92 -57 140 -9 19 -23 55 -33 80 -9 25 -23 59 -30 75 -7 17 -16 42 -19 57 -4
15 -14 31 -24 36 -27 13 -122 3 -122 -14 0 -7 -7 -30 -16 -51 -9 -21 -24 -54
-32 -73 -8 -19 -21 -48 -28 -63 -8 -16 -14 -35 -14 -42 0 -7 -6 -26 -14 -42
-18 -36 -39 -86 -61 -143 -10 -25 -23 -58 -30 -75 -15 -35 -41 -102 -49 -128
-3 -9 -17 -22 -31 -29 -21 -10 -29 -9 -43 6 -16 16 -16 18 1 27 10 6 17 22 17
38 0 16 7 34 15 41 8 7 15 22 15 34 0 12 7 31 15 42 8 10 15 28 15 40 0 11 7
29 15 40 8 10 15 28 15 40 0 11 7 29 15 40 8 10 15 28 15 40 0 11 7 29 15 40
8 10 15 28 15 39 0 11 6 29 14 40 7 11 16 37 20 58 4 20 11 37 16 37 6 0 10 8
10 18 1 9 9 35 20 57 11 22 20 47 20 55 0 8 7 24 15 34 8 11 15 29 15 40 0 12
7 30 15 40 8 11 15 27 15 36 0 9 7 31 16 49 14 27 21 32 47 29 24 -2 33 -9 40
-33z m-9 -467 c9 -35 23 -76 31 -91 8 -16 15 -36 15 -46 0 -9 7 -26 15 -37 8
-10 15 -27 15 -36 0 -9 6 -29 14 -45 7 -15 20 -44 28 -63 8 -19 25 -56 37 -83
13 -26 21 -53 19 -59 -3 -9 -56 -13 -194 -13 -104 0 -197 -4 -206 -9 -32 -15
-32 21 0 87 16 34 37 82 47 107 10 25 23 59 30 75 7 17 21 50 30 75 9 25 23
60 31 78 8 18 14 39 14 46 0 22 31 76 44 76 7 0 20 -28 30 -62z"/>
<path d="M553 2542 c-9 -6 -12 -94 -13 -357 0 -360 6 -444 36 -505 29 -59 122
-140 160 -140 13 0 26 -4 29 -10 3 -5 19 -10 35 -10 15 0 30 -4 32 -10 2 -5 2
-64 0 -131 l-3 -121 -46 4 c-52 3 -77 -18 -57 -49 9 -15 31 -17 162 -18 138
-1 153 1 158 17 3 10 3 27 -1 38 -5 16 -14 19 -53 17 l-47 -2 -3 126 -3 126
28 11 c15 6 45 14 66 18 20 3 37 10 37 15 0 5 5 9 11 9 6 0 29 17 50 39 22 21
39 44 39 50 0 6 4 11 9 11 5 0 13 15 16 33 4 17 12 38 19 46 16 20 21 767 5
787 -12 15 -105 20 -126 6 -9 -6 -12 -93 -12 -347 0 -404 -4 -442 -61 -497
-46 -45 -50 -58 -18 -58 32 0 95 75 110 130 7 29 14 166 17 390 6 336 6 345
26 345 20 0 20 -8 23 -359 1 -209 -2 -363 -7 -370 -5 -6 -12 -28 -16 -48 -9
-48 -64 -111 -120 -138 -25 -12 -50 -29 -55 -38 -9 -15 -12 -15 -30 7 -25 29
-25 38 1 51 19 11 20 13 4 30 -14 16 -16 46 -15 231 0 136 5 218 12 226 7 9
23 11 48 7 32 -5 39 -3 44 13 15 48 5 51 -156 49 -129 -1 -152 -3 -161 -18
-18 -28 10 -51 54 -44 21 3 41 2 44 -4 3 -5 6 -110 6 -232 1 -219 1 -223 -20
-226 -12 -2 -24 3 -27 12 -3 9 -12 16 -18 16 -15 0 -56 54 -56 74 0 8 -5 16
-11 18 -8 3 -12 119 -13 393 l-1 390 -60 3 c-33 1 -65 -1 -72 -6z m93 -404 c1
-331 3 -370 19 -405 25 -52 61 -85 120 -109 41 -17 50 -25 50 -45 0 -18 -6
-25 -26 -27 -14 -2 -31 4 -39 12 -7 9 -17 16 -23 16 -24 0 -80 49 -115 100
l-37 55 -3 374 c-2 205 -1 380 2 388 4 8 15 13 28 11 l23 -3 1 -367z"/>
<path d="M2438 2539 c-22 -13 -23 -47 -2 -77 13 -19 24 -23 55 -20 l40 3 2
-415 2 -415 -45 -5 c-45 -5 -45 -5 -45 -45 l0 -40 83 -7 c45 -5 119 -5 165 0
l82 7 0 40 c0 40 0 40 -44 45 l-44 5 -1 412 c-1 304 2 414 11 417 6 3 20 2 31
-1 11 -2 30 0 42 7 17 9 21 19 18 53 l-3 42 -165 2 c-100 2 -172 -1 -182 -8z
m302 -44 c0 -5 -21 -12 -47 -15 -40 -4 -48 -9 -54 -30 -9 -33 -9 -807 0 -840
6 -22 13 -25 60 -28 35 -2 51 -7 48 -15 -4 -13 -212 -23 -255 -12 -36 9 -15
25 33 25 28 0 45 5 48 15 4 8 5 209 4 447 l-2 433 -44 5 c-25 3 -46 11 -49 18
-3 10 24 12 127 10 79 -2 131 -7 131 -13z"/>
<path d="M2287 2203 c-2 -5 -1 -186 2 -403 7 -385 7 -396 30 -437 47 -86 112
-134 212 -152 121 -23 248 15 318 96 72 82 76 106 76 528 l0 370 -46 3 c-29 2
-49 -2 -55 -10 -5 -8 -7 -145 -4 -338 7 -389 2 -433 -52 -494 -100 -114 -289
-95 -357 35 -20 38 -21 55 -21 424 l0 385 -49 0 c-28 0 -52 -3 -54 -7z"/>
<path d="M3651 2681 c-6 -11 -11 -31 -11 -44 0 -28 -37 -57 -73 -57 -14 0 -30
-7 -37 -15 -10 -12 -7 -16 16 -26 89 -35 94 -38 94 -64 0 -15 5 -35 11 -46 8
-16 13 -18 25 -8 8 6 14 18 14 26 0 30 31 73 58 79 54 12 62 16 62 29 0 8 -12
17 -27 21 -16 3 -36 8 -46 11 -18 5 -47 52 -47 76 0 8 -6 20 -14 26 -12 10
-17 8 -25 -8z"/>
<path d="M4486 2356 c-3 -13 -22 -33 -42 -45 -39 -23 -38 -36 5 -46 22 -5 30
-13 35 -36 3 -17 12 -29 21 -29 9 0 18 12 21 29 5 23 13 31 35 36 43 10 44 22
4 47 -19 13 -38 33 -41 46 -8 29 -30 28 -38 -2z"/>
<path d="M4621 2625 l-24 -35 27 -25 c15 -14 29 -25 32 -25 9 0 64 44 64 51 0
12 -54 69 -65 69 -5 0 -21 -16 -34 -35z"/>
<path d="M714 572 c-32 -15 -64 -66 -64 -103 0 -11 7 -34 16 -52 44 -88 135
-90 180 -5 31 59 5 135 -56 162 -20 9 -39 15 -41 15 -2 -1 -18 -8 -35 -17z
m84 -104 c2 -32 -2 -50 -13 -62 -24 -23 -38 -20 -58 13 -23 39 -21 77 4 102
18 18 23 19 42 6 16 -10 23 -26 25 -59z"/>
<path d="M954 573 c-69 -34 -85 -123 -33 -186 24 -30 37 -37 65 -37 86 0 139
92 99 170 -12 23 -82 73 -97 69 -2 0 -17 -7 -34 -16z m61 -53 c24 -26 23 -90
-1 -118 l-18 -22 -23 22 c-30 28 -33 111 -5 127 24 14 26 14 47 -9z"/>
<path d="M488 563 c-26 -7 -22 -28 7 -41 22 -10 25 -18 25 -60 0 -36 -5 -54
-20 -67 -37 -33 -26 -45 43 -45 73 0 84 6 60 33 -13 14 -19 39 -20 96 -1 42
-2 79 -3 84 0 7 -63 8 -92 0z"/>
<path d="M1175 560 c-4 -7 2 -24 13 -40 11 -15 28 -44 36 -65 15 -35 15 -40 1
-62 -22 -32 -12 -43 41 -43 32 0 44 4 44 14 0 8 -4 18 -10 21 -5 3 -10 21 -10
40 0 19 5 37 10 40 6 3 10 14 10 24 0 10 10 25 22 33 28 19 18 51 -14 46 -16
-2 -24 -12 -29 -36 -4 -19 -12 -39 -17 -44 -11 -11 -16 2 -24 57 -2 14 -12 21
-35 23 -17 2 -34 -2 -38 -8z"/>
<path d="M2281 556 c-8 -10 -9 -16 -1 -21 5 -3 10 -37 10 -74 0 -59 3 -70 25
-91 18 -16 36 -24 60 -23 50 1 74 34 75 98 0 28 3 67 6 88 6 36 6 37 -25 37
-24 0 -31 -4 -31 -19 0 -11 5 -23 10 -26 18 -11 12 -100 -8 -118 -23 -21 -32
-21 -48 1 -16 21 -18 104 -3 119 7 7 9 19 6 27 -8 20 -60 21 -76 2z"/>
<path d="M3393 547 c-50 -53 -38 -137 26 -182 l42 -29 35 19 c52 28 74 61 74
109 0 38 -19 81 -44 98 -6 4 -33 8 -61 8 -39 0 -55 -5 -72 -23z m109 -34 c26
-23 23 -78 -6 -109 l-23 -26 -28 26 c-22 20 -28 35 -28 67 0 58 44 79 85 42z"/>
<path d="M4090 563 c-39 -15 -40 -63 -3 -98 15 -14 33 -25 38 -25 19 0 33 -21
28 -41 -7 -27 -31 -24 -45 6 -13 29 -41 30 -46 2 -5 -27 27 -57 60 -57 43 0
78 27 78 60 0 35 -9 60 -21 60 -14 0 -69 42 -69 52 0 14 33 9 51 -8 16 -14 18
-14 28 4 18 35 4 52 -43 51 -22 0 -48 -3 -56 -6z"/>
<path d="M1389 520 c-1 -3 0 -33 1 -68 1 -37 -3 -69 -10 -77 -17 -21 3 -27 76
-23 54 3 59 5 62 27 2 15 -3 28 -12 33 -20 11 -21 47 -1 54 19 8 19 38 1 53
-14 11 -115 12 -117 1z m91 -33 c0 -7 -9 -18 -20 -25 -18 -11 -20 -10 -20 13
0 18 5 25 20 25 11 0 20 -6 20 -13z m3 -92 c-4 -15 -36 -12 -41 3 -3 9 3 13
19 10 13 -1 23 -7 22 -13z"/>
<path d="M1765 498 c9 -46 9 -78 0 -116 -8 -33 -8 -33 26 -30 28 2 34 7 31 25
-5 34 13 35 37 3 21 -29 54 -39 65 -21 4 5 -5 23 -19 39 -22 26 -23 31 -10 42
23 19 18 56 -10 74 -14 9 -45 16 -76 16 l-51 0 7 -32z m85 -28 c0 -16 -5 -30
-10 -30 -14 0 -24 26 -16 45 10 26 26 16 26 -15z"/>
<path d="M2000 520 c0 -5 -6 -10 -14 -10 -17 0 -29 -31 -21 -52 3 -8 24 -25
45 -37 22 -12 40 -26 40 -32 0 -11 -40 -13 -40 -1 0 4 -4 13 -9 21 -8 12 -12
12 -25 2 -9 -8 -16 -17 -16 -22 0 -18 34 -39 64 -39 60 0 101 66 56 90 -24 13
-26 30 -5 30 21 0 19 30 -2 46 -21 16 -73 18 -73 4z m48 -38 c3 -9 -2 -13 -14
-10 -9 1 -19 9 -22 16 -3 9 2 13 14 10 9 -1 19 -9 22 -16z"/>
<path d="M2509 523 c-1 -5 -2 -37 -3 -73 -1 -36 -6 -73 -10 -82 -7 -15 -3 -18
29 -18 32 0 36 3 30 18 -13 29 -18 72 -8 72 4 0 28 -21 52 -46 24 -25 47 -42
51 -37 7 6 14 110 11 161 -1 12 -33 17 -43 6 -3 -3 -1 -21 5 -40 6 -18 8 -37
5 -40 -4 -3 -27 15 -52 40 -43 43 -65 56 -67 39z"/>
<path d="M2719 455 c-1 -41 -2 -81 -3 -87 -1 -8 16 -14 45 -16 61 -4 110 23
123 66 18 64 -34 112 -121 112 l-43 0 -1 -75z m102 23 c23 -29 24 -50 1 -78
-26 -32 -42 -17 -42 39 0 66 10 75 41 39z"/>
<path d="M2939 528 c-1 -2 -3 -43 -4 -91 l-3 -88 61 3 c49 2 62 7 75 26 14 22
14 23 -6 29 -23 6 -29 32 -13 62 6 10 7 27 4 39 -5 19 -12 22 -59 22 -30 0
-55 -1 -55 -2z m81 -53 c0 -28 -15 -34 -24 -9 -10 25 -7 34 9 34 9 0 15 -9 15
-25z m3 -86 c-17 -17 -37 -1 -22 17 8 10 15 12 23 4 7 -7 7 -13 -1 -21z"/>
<path d="M3119 526 c-1 0 -2 -41 -3 -89 l-1 -88 30 3 c24 2 30 8 30 27 0 35
17 35 40 1 14 -21 28 -30 48 -30 34 0 35 22 2 48 -25 20 -33 42 -15 42 21 0
10 58 -14 74 -18 11 -109 21 -117 12z m81 -56 c0 -31 -16 -41 -26 -15 -8 19 2
45 16 45 5 0 10 -13 10 -30z"/>
<path d="M3614 517 c-3 -8 0 -26 5 -41 8 -20 7 -37 -4 -69 -20 -56 -20 -57 16
-57 l30 0 -7 45 c-9 62 5 60 54 -10 11 -16 49 -35 56 -28 3 4 6 44 6 90 0 82
0 83 -25 83 -29 0 -29 -2 -13 -47 18 -50 3 -50 -47 1 -48 48 -62 55 -71 33z"/>
<path d="M3829 525 c0 -3 -1 -42 -1 -87 l-1 -83 61 -3 c53 -3 62 0 72 18 10
18 7 25 -15 46 l-27 25 21 21 c13 11 20 27 17 35 -3 8 -6 19 -6 24 0 9 -119
13 -121 4z m84 -31 c9 -9 -4 -35 -14 -28 -5 3 -9 12 -9 20 0 14 12 19 23 8z
m5 -96 c-6 -18 -28 -21 -28 -4 0 9 7 16 16 16 9 0 14 -5 12 -12z"/>
<path d="M4257 523 c-3 -4 -7 -44 -8 -88 l-4 -80 33 -3 c29 -3 32 -1 32 22 0
32 7 33 32 1 21 -26 68 -35 68 -12 0 7 -16 28 -35 47 -19 19 -35 40 -35 47 0
7 -6 13 -14 13 -9 0 -16 12 -18 28 -2 19 -9 28 -25 30 -11 2 -23 0 -26 -5z"/>
<path d="M4347 523 c-14 -14 -7 -53 9 -53 18 0 43 27 44 48 0 12 -42 17 -53 5z"/>
<path d="M4437 524 c-7 -8 18 -61 41 -87 15 -17 15 -21 0 -47 -20 -35 -16 -40
38 -40 l43 0 -6 55 c-5 46 -3 55 10 55 16 0 49 54 39 64 -3 3 -16 6 -29 6 -19
0 -23 -5 -23 -28 0 -16 -3 -32 -7 -35 -10 -10 -33 13 -33 33 0 25 -55 42 -73
24z"/>
<path d="M1585 446 c-42 -88 -43 -98 -8 -94 21 2 29 10 35 36 7 27 12 31 23
22 8 -6 15 -21 17 -33 3 -23 35 -34 64 -23 13 5 11 14 -10 53 -14 27 -30 60
-35 74 -5 15 -19 29 -30 32 -18 4 -26 -6 -56 -67z"/>
<path d="M2142 501 c-18 -11 -12 -41 11 -55 14 -8 20 -8 27 4 23 35 -5 73 -38
51z"/>
<path d="M2140 410 c-12 -7 -12 -13 -4 -27 17 -28 49 -23 49 7 0 27 -21 36
-45 20z"/>
<path d="M5326 2614 c-3 -9 -6 -508 -6 -1110 0 -968 2 -1095 15 -1100 44 -17
43 -45 39 1112 -3 603 -7 1100 -10 1105 -9 14 -31 10 -38 -7z"/>
<path d="M7875 2523 c-22 -7 -51 -25 -65 -39 -22 -22 -25 -33 -25 -97 0 -81
12 -102 79 -138 46 -24 69 -24 121 2 52 26 80 75 79 140 -1 58 -40 117 -85
126 -16 3 -32 10 -35 14 -7 11 -20 10 -69 -8z m122 -80 c61 -76 -18 -179 -110
-144 -45 17 -62 41 -62 86 0 65 40 98 110 90 29 -3 46 -12 62 -32z"/>
<path d="M6144 2521 c-2 -2 -4 -13 -4 -23 0 -14 8 -18 40 -18 25 0 40 -5 41
-12 0 -7 0 -61 -1 -119 -1 -83 2 -108 13 -112 32 -12 38 8 37 114 -1 57 -1
110 -1 117 1 7 16 12 42 12 36 0 40 3 37 21 -3 21 -9 22 -101 23 -54 1 -100
-1 -103 -3z"/>
<path d="M6460 2523 c-87 -9 -81 3 -78 -146 l3 -132 80 -7 c102 -9 127 -4 123
25 -3 20 -10 23 -73 27 l-70 5 -3 33 -3 32 60 0 c59 0 61 1 61 26 0 26 -1 27
-56 21 -52 -5 -56 -4 -65 20 -15 40 4 54 72 51 69 -3 97 14 65 38 -19 13 -41
15 -116 7z"/>
<path d="M6695 2521 l-50 -6 -3 -133 c-2 -115 0 -133 14 -139 21 -8 35 14 32
52 -3 28 0 30 34 33 30 3 39 -2 55 -24 31 -45 63 -75 73 -69 16 10 12 32 -14
70 l-25 36 25 24 c33 34 33 91 -1 128 -14 15 -34 27 -45 27 -10 0 -24 2 -32 3
-7 2 -35 1 -63 -2z m105 -63 c25 -27 25 -43 1 -67 -20 -20 -87 -31 -109 -17
-13 7 -17 88 -5 99 3 4 26 7 49 7 32 0 49 -6 64 -22z"/>
<path d="M7103 2519 c-8 -8 -10 -35 -6 -79 8 -94 0 -113 -31 -68 -12 19 -34
47 -47 63 -101 120 -104 119 -107 -50 -3 -134 6 -168 35 -143 12 9 13 28 8 94
-4 49 -3 84 2 87 6 4 24 -13 41 -36 16 -23 40 -53 52 -67 12 -14 29 -38 38
-53 9 -15 23 -26 32 -25 12 3 16 29 22 132 5 89 4 134 -4 143 -13 16 -21 16
-35 2z"/>
<path d="M7435 2522 c-3 -3 -5 -13 -5 -23 0 -14 10 -19 43 -21 l42 -3 1 -105
c1 -136 0 -132 27 -128 22 3 22 5 18 112 -3 119 -1 126 56 126 34 0 51 16 35
32 -10 10 -208 19 -217 10z"/>
<path d="M7702 2518 c-8 -8 -12 -56 -12 -145 0 -126 1 -133 20 -133 23 0 22
-10 24 148 1 124 -7 155 -32 130z"/>
<path d="M8684 2515 c-4 -9 -3 -73 2 -143 l9 -127 83 -9 c93 -10 109 -4 98 38
-6 26 -9 26 -74 24 l-67 -3 -5 115 c-4 99 -7 115 -23 118 -9 2 -20 -4 -23 -13z"/>
<path d="M5749 2516 c0 -3 -1 -62 -1 -131 0 -69 1 -129 1 -135 2 -18 49 -11
55 8 2 9 4 71 3 137 l-2 120 -27 3 c-16 2 -28 1 -29 -2z"/>
<path d="M5870 2513 c0 -5 -2 -66 -3 -138 -2 -129 -2 -130 21 -133 23 -3 23
-2 21 88 -1 50 1 93 4 96 3 3 24 -18 47 -48 23 -29 50 -63 60 -75 10 -12 24
-31 30 -43 7 -14 19 -20 33 -18 21 3 22 7 22 138 l0 135 -28 3 -29 4 3 -79 c5
-102 -10 -105 -71 -17 -25 36 -51 72 -58 80 -14 15 -52 19 -52 7z"/>
<path d="M7264 2463 c-14 -32 -32 -74 -40 -93 -8 -19 -22 -47 -30 -62 -21 -38
-18 -68 6 -68 12 0 22 9 26 24 10 43 36 57 95 54 51 -3 55 -5 72 -40 13 -29
23 -38 42 -38 14 0 25 5 25 12 0 6 -20 52 -44 102 -24 50 -51 108 -60 129 -13
28 -23 37 -42 37 -20 0 -29 -10 -50 -57z m76 -55 c0 -10 5 -18 10 -18 6 0 10
-7 10 -15 0 -11 -11 -15 -41 -15 -41 0 -41 0 -35 33 7 38 35 64 48 44 4 -6 8
-20 8 -29z"/>
<path d="M8119 2518 c0 -2 -2 -61 -4 -133 -3 -131 3 -159 32 -148 12 5 15 22
12 92 -3 51 0 88 6 90 6 3 40 -36 78 -85 93 -123 100 -121 109 36 4 69 5 131
3 138 -2 6 -16 12 -30 12 -28 0 -28 1 -25 -97 1 -40 -2 -73 -7 -73 -5 0 -37
38 -72 85 -41 55 -70 85 -82 85 -10 0 -19 -1 -20 -2z"/>
<path d="M8480 2493 c-12 -33 -18 -46 -59 -133 -17 -36 -32 -77 -33 -90 -4
-38 28 -32 51 10 17 33 21 35 79 38 l61 3 18 -38 c12 -25 26 -39 41 -41 29 -4
28 3 -9 85 -17 37 -37 84 -45 103 -28 67 -42 85 -68 88 -21 3 -28 -2 -36 -25z
m56 -60 c3 -10 10 -26 15 -35 16 -31 10 -38 -31 -38 -46 0 -51 14 -23 61 20
33 31 37 39 12z"/>
<path d="M6086 1991 c-3 -4 -19 -11 -34 -14 -39 -8 -60 -54 -43 -95 12 -28 41
-45 116 -68 42 -13 45 -45 6 -62 -25 -11 -34 -11 -59 2 -19 10 -42 13 -66 9
-25 -4 -36 -2 -36 6 0 7 -16 45 -35 85 -19 40 -35 77 -35 83 0 5 -9 19 -20 31
-17 18 -25 20 -41 11 -11 -5 -23 -18 -26 -27 -22 -62 -73 -171 -91 -194 -19
-24 -12 -63 13 -63 13 0 26 14 39 43 l21 42 61 0 60 0 18 -40 c19 -43 41 -51
61 -23 11 15 15 15 36 2 54 -35 110 -32 153 7 34 32 35 76 1 109 -13 14 -35
25 -49 25 -14 0 -28 5 -31 10 -3 6 -15 10 -26 10 -24 0 -35 25 -20 44 13 15
217 20 227 4 3 -5 7 -57 7 -116 l2 -107 27 -3 27 -3 3 118 3 118 35 3 c42 4
57 16 42 35 -9 10 -36 12 -114 10 -153 -6 -170 -5 -181 6 -13 13 -44 14 -51 2z
m-207 -113 c11 -23 18 -45 15 -50 -7 -11 -71 -10 -79 1 -5 8 32 91 40 91 2 0
12 -19 24 -42z"/>
<path d="M6835 1990 c-3 -5 -16 -10 -29 -10 -40 0 -96 -79 -96 -135 0 -59 34
-107 97 -136 51 -23 56 -23 101 -2 61 28 102 85 102 140 0 40 -40 105 -75 122
-17 8 -38 18 -47 23 -24 11 -45 10 -53 -2z m82 -65 c59 -42 46 -142 -21 -165
-76 -25 -146 31 -132 106 12 63 99 97 153 59z"/>
<path d="M7430 1985 c-19 -7 -48 -29 -64 -49 -26 -31 -30 -45 -29 -91 2 -68
28 -107 88 -135 55 -25 61 -25 110 1 70 37 80 54 80 137 0 71 -1 75 -33 103
-18 16 -41 29 -52 29 -10 0 -22 5 -25 10 -8 13 -30 11 -75 -5z m121 -74 c69
-73 -8 -183 -105 -151 -71 23 -90 108 -34 155 27 23 39 26 76 22 26 -3 51 -13
63 -26z"/>
<path d="M8235 1990 c-3 -5 -14 -10 -23 -10 -9 -1 -26 -8 -37 -18 -83 -71 -71
-197 23 -248 39 -21 104 -23 127 -4 13 11 20 11 40 0 31 -17 51 -8 60 27 9 37
20 43 81 43 54 0 75 -14 88 -57 9 -29 46 -31 46 -4 0 11 -16 54 -36 98 -20 43
-44 97 -55 121 -15 33 -24 42 -44 42 -20 0 -29 -9 -46 -47 -75 -168 -82 -181
-101 -170 -13 8 -27 8 -54 -2 -50 -18 -103 -1 -127 41 -24 43 -21 62 17 102
38 41 68 45 123 19 30 -14 36 -14 44 -2 15 24 10 39 -18 50 -16 6 -36 15 -45
20 -23 12 -55 11 -63 -1z m284 -93 c6 -8 14 -28 17 -45 6 -32 6 -32 -35 -32
-30 0 -41 4 -41 15 0 8 4 15 9 15 5 0 11 14 15 30 6 32 17 38 35 17z"/>
<path d="M6480 1980 c-21 -13 -27 -262 -6 -279 18 -15 33 4 38 49 3 31 6 35
35 38 33 3 39 -1 89 -65 15 -19 31 -30 39 -26 21 8 19 22 -12 65 l-26 38 21
23 c16 17 22 36 22 68 0 66 -27 88 -116 94 -38 2 -76 0 -84 -5z m142 -57 c45
-40 9 -93 -64 -93 l-48 0 0 55 0 55 47 0 c29 0 53 -6 65 -17z"/>
<path d="M7245 1969 c-4 -12 -4 -54 0 -94 4 -43 3 -75 -3 -79 -5 -3 -26 18
-46 47 -73 105 -97 132 -119 132 -21 0 -22 -5 -28 -125 -3 -69 -4 -131 -1
-137 2 -7 15 -13 28 -13 24 0 24 2 24 90 0 50 3 90 8 90 4 0 38 -41 75 -91 94
-125 100 -122 101 56 1 123 -1 140 -16 143 -10 2 -19 -5 -23 -19z"/>
<path d="M8034 1978 c-8 -13 -14 -244 -6 -265 2 -7 13 -13 23 -13 19 0 19 8
17 142 -2 96 -7 143 -15 145 -6 2 -15 -2 -19 -9z"/>
<path d="M8676 1975 c-9 -10 -14 -27 -11 -43 3 -15 6 -69 9 -120 2 -52 8 -97
12 -102 13 -11 157 -21 172 -11 8 4 12 19 10 32 -3 23 -6 24 -70 21 -65 -2
-68 -1 -74 23 -3 14 -3 59 1 100 10 106 -7 141 -49 100z"/>
<path d="M7668 1858 c-4 -146 -2 -158 24 -158 19 0 20 5 16 86 -2 47 -1 87 3
89 7 5 32 -28 62 -85 11 -19 22 -39 26 -43 16 -16 41 7 66 59 14 30 30 54 35
54 6 0 10 -35 10 -81 l0 -80 28 3 27 3 -2 130 c-1 72 -3 133 -3 138 0 4 -10 7
-23 7 -18 0 -29 -11 -47 -47 -13 -27 -26 -50 -29 -53 -4 -3 -12 -17 -18 -32
-17 -38 -37 -35 -61 10 -64 121 -64 122 -94 122 -15 0 -17 -15 -20 -122z"/>
<path d="M6565 1450 c-3 -5 -14 -10 -24 -10 -28 0 -68 -41 -87 -88 -14 -37
-15 -49 -5 -80 24 -72 81 -115 150 -115 25 0 47 5 49 11 2 7 9 12 16 12 14 0
44 32 64 67 15 28 16 87 1 116 -19 36 -61 77 -80 77 -10 0 -21 5 -24 10 -3 6
-17 10 -30 10 -13 0 -27 -4 -30 -10z m88 -70 c54 -43 43 -130 -18 -156 -70
-29 -135 11 -135 82 0 82 88 125 153 74z"/>
<path d="M5746 1434 c-13 -33 -6 -166 10 -200 34 -72 120 -100 176 -59 44 33
58 76 58 175 l0 90 -30 0 -30 0 0 -100 c0 -95 -1 -100 -25 -116 -34 -22 -83
-10 -97 24 -6 16 -8 60 -4 103 5 79 -2 99 -35 99 -9 0 -20 -7 -23 -16z"/>
<path d="M6247 1439 c-19 -11 -19 -16 0 -143 5 -37 4 -38 -15 -24 -11 7 -47
49 -78 91 -42 55 -64 77 -80 77 -21 0 -22 -4 -26 -127 -2 -71 -2 -134 0 -141
3 -7 14 -12 26 -10 20 3 21 8 18 97 -4 91 -3 93 16 80 11 -8 45 -48 76 -89 51
-68 89 -101 101 -89 7 8 8 267 0 278 -8 13 -15 13 -38 0z"/>
<path d="M6362 1441 c-9 -5 -12 -44 -10 -142 3 -130 4 -134 26 -137 27 -4 24
-15 27 141 2 110 -1 129 -15 137 -9 5 -22 5 -28 1z"/>
<path d="M6974 1435 c-4 -9 -4 -49 0 -90 4 -40 3 -76 -2 -79 -5 -3 -27 19 -48
49 -21 30 -42 55 -46 55 -3 0 -16 16 -28 36 -16 24 -28 34 -43 32 -19 -3 -20
-10 -21 -138 -1 -133 -1 -135 22 -138 25 -4 25 -3 22 106 -1 60 1 72 14 72 9
0 16 -5 16 -10 0 -6 5 -16 10 -23 6 -7 24 -28 40 -47 16 -19 30 -38 30 -41 0
-3 11 -18 24 -34 16 -18 30 -26 40 -22 14 6 16 25 14 144 -3 122 -5 138 -21
141 -9 2 -20 -4 -23 -13z"/>
<path d="M5966 870 c-50 -16 -66 -38 -66 -94 0 -43 4 -54 28 -74 23 -20 34
-23 74 -18 58 8 68 -5 31 -40 -22 -21 -34 -24 -61 -19 -40 7 -72 -1 -72 -20 0
-48 101 -62 161 -22 50 33 81 100 73 157 -15 100 -86 155 -168 130z m73 -67
c42 -36 0 -83 -55 -63 -42 16 -25 78 22 80 7 0 21 -8 33 -17z"/>
<path d="M6385 868 c-43 -16 -64 -47 -65 -95 0 -34 5 -46 32 -68 28 -24 37
-26 81 -21 42 6 48 5 45 -10 -2 -9 -15 -26 -31 -38 -23 -17 -32 -18 -56 -9
-33 12 -61 1 -61 -25 0 -30 21 -42 71 -42 97 0 159 68 159 175 0 70 -31 116
-89 133 -45 14 -47 14 -86 0z m79 -64 c24 -23 20 -53 -8 -64 -34 -13 -65 -1
-72 27 -11 42 48 70 80 37z"/>
<path d="M6790 869 c-59 -17 -80 -62 -36 -79 18 -6 34 -5 56 7 35 17 80 6 80
-21 0 -15 -88 -107 -127 -133 -16 -11 -23 -25 -23 -49 l0 -35 113 3 112 3 3
27 c4 31 -21 43 -67 33 -47 -10 -46 12 4 66 43 46 46 53 43 96 -2 36 -9 50
-28 64 -32 23 -86 30 -130 18z"/>
<path d="M7075 868 c-98 -36 -114 -212 -27 -285 37 -31 96 -30 137 1 44 34 71
116 57 170 -17 60 -51 103 -93 115 -20 6 -38 11 -40 10 -2 0 -17 -5 -34 -11z
m69 -71 c22 -16 32 -91 17 -129 -15 -41 -44 -52 -72 -29 -20 16 -24 28 -24 81
0 50 4 65 20 76 23 17 36 18 59 1z"/>
<path d="M7495 868 c-70 -26 -88 -106 -35 -160 29 -28 34 -30 80 -24 45 6 50
5 50 -12 0 -29 -62 -59 -92 -45 -41 19 -77 -24 -46 -55 21 -21 105 -14 146 12
58 36 72 65 72 142 0 82 -26 124 -88 142 -46 14 -47 14 -87 0z m76 -58 c11 -6
19 -21 19 -36 0 -34 -43 -51 -76 -29 -28 18 -30 32 -7 57 18 20 36 23 64 8z"/>
<path d="M5715 859 c-4 -5 -4 -21 -1 -35 5 -19 13 -24 37 -24 l31 0 -2 -102
c-3 -148 -5 -140 33 -136 l32 3 0 145 c0 85 -4 148 -10 152 -15 12 -113 9
-120 -3z"/>
<path d="M6145 860 c-11 -18 6 -50 25 -50 30 0 35 -19 35 -135 l0 -110 35 0
35 0 0 145 c0 85 -4 148 -10 152 -15 11 -113 9 -120 -2z"/>
<path d="M7255 860 c-11 -18 6 -50 25 -50 30 0 35 -19 35 -135 l0 -110 35 0
35 0 0 145 c0 85 -4 148 -10 152 -15 11 -113 9 -120 -2z"/>
<path d="M6594 706 c-3 -8 0 -24 6 -36 9 -18 19 -21 57 -18 49 3 71 23 60 52
-8 22 -115 23 -123 2z"/>
</g>
</svg>
