<?xml version="1.0" standalone="no"?>
<!DOCTYPE svg PUBLIC "-//W3C//DTD SVG 20010904//EN"
 "http://www.w3.org/TR/2001/REC-SVG-20010904/DTD/svg10.dtd">
<svg version="1.0" xmlns="http://www.w3.org/2000/svg"
 width="900.000000pt" height="945.000000pt" viewBox="0 0 900.000000 945.000000"
 preserveAspectRatio="xMidYMid meet">
<metadata>
Created by potrace 1.10, written by Peter Selinger 2001-2011
</metadata>
<g transform="translate(0.000000,945.000000) scale(0.100000,-0.100000)"
fill="#ffffff" stroke="none">
<path d="M2870 9435 c0 -8 -9 -19 -19 -25 -13 -6 -17 -17 -14 -30 7 -27 22
-25 33 5 11 28 47 34 56 10 4 -8 22 -23 42 -32 19 -9 47 -27 61 -41 25 -23 25
-24 8 -54 -9 -16 -17 -36 -17 -43 0 -8 -9 -19 -20 -25 -11 -6 -17 -16 -14 -25
4 -9 -3 -23 -17 -33 -12 -11 -19 -24 -15 -30 14 -23 33 -11 56 36 13 26 29 50
36 54 7 5 10 17 7 27 -3 13 2 21 16 26 24 7 27 37 6 59 -8 8 -15 19 -15 25 0
5 -9 13 -20 16 -11 3 -20 11 -20 16 0 5 -11 9 -25 9 -15 0 -25 6 -25 14 0 7
-9 16 -20 19 -11 3 -20 12 -20 21 0 11 -9 16 -30 16 -20 0 -30 -5 -30 -15z"/>
<path d="M6030 9436 c0 -18 6 -22 48 -31 30 -6 32 -5 32 19 0 24 -4 26 -40 26
-28 0 -40 -4 -40 -14z"/>
<path d="M5983 9397 c-4 -7 -24 -21 -43 -30 -19 -9 -45 -28 -58 -41 l-23 -25
21 -11 c15 -8 20 -18 17 -31 -3 -10 0 -22 7 -27 7 -4 23 -28 36 -54 22 -45 42
-59 54 -39 9 14 -4 41 -20 41 -8 0 -14 10 -14 24 0 13 -7 26 -15 30 -8 3 -15
14 -15 25 0 11 -7 24 -16 29 -18 10 -11 32 11 32 7 0 15 7 19 15 3 8 12 15 21
15 16 0 65 39 65 52 0 13 -38 9 -47 -5z"/>
<path d="M6106 9375 c-3 -9 3 -20 14 -27 11 -7 20 -22 20 -34 0 -12 7 -24 15
-28 8 -3 15 -12 15 -20 0 -22 33 -76 47 -76 24 0 26 24 4 42 -14 10 -21 24
-17 33 3 9 -3 19 -14 25 -11 6 -20 17 -20 25 0 21 -33 75 -46 75 -7 0 -14 -7
-18 -15z"/>
<path d="M2798 9329 c-10 -17 -18 -37 -18 -45 0 -8 -7 -17 -15 -20 -8 -4 -15
-16 -15 -28 0 -12 -9 -27 -21 -34 -14 -9 -18 -19 -14 -32 4 -13 2 -20 -8 -20
-7 0 -24 -21 -37 -47 -13 -27 -29 -51 -36 -56 -7 -4 -11 -14 -8 -22 4 -9 -4
-23 -17 -33 -22 -18 -20 -42 4 -42 14 0 47 54 47 76 0 8 7 17 15 20 8 4 15 16
15 29 0 13 6 25 14 28 8 3 24 26 37 51 12 25 26 46 31 46 4 0 8 11 8 25 0 14
8 29 19 35 13 6 17 17 14 30 -4 13 0 20 10 20 16 0 30 26 21 41 -10 17 -29 9
-46 -22z"/>
<path d="M5750 9212 c-8 -3 -33 -21 -55 -41 -22 -20 -52 -45 -66 -56 -37 -28
-45 -79 -17 -99 12 -9 18 -21 15 -30 -4 -10 1 -20 13 -26 12 -6 20 -21 20 -35
0 -14 4 -25 8 -25 5 0 14 -12 21 -27 11 -25 13 -25 29 -9 16 16 16 18 -5 36
-13 10 -23 27 -23 38 0 11 -7 22 -15 26 -8 3 -15 15 -15 26 0 11 -4 20 -9 20
-5 0 -12 13 -16 29 -5 22 -1 35 14 50 12 12 24 21 29 21 4 1 18 14 32 30 36
44 56 39 82 -20 12 -27 28 -50 36 -50 9 0 13 -7 9 -20 -3 -13 1 -24 14 -30 11
-6 19 -21 19 -35 0 -14 4 -25 8 -25 5 0 18 -20 30 -44 21 -41 63 -81 75 -70 9
9 -24 64 -39 64 -11 0 -13 6 -9 20 4 13 0 23 -14 32 -12 7 -21 23 -21 35 0 13
-3 23 -8 23 -4 0 -18 23 -31 50 -13 28 -30 50 -37 50 -8 0 -14 10 -14 24 0 13
-7 26 -15 30 -8 3 -15 12 -15 20 0 18 -11 25 -30 18z"/>
<path d="M3177 9193 c-4 -3 -7 -15 -7 -25 0 -10 -7 -21 -15 -24 -8 -4 -15 -16
-15 -29 0 -13 -6 -25 -14 -28 -8 -3 -20 -18 -28 -34 -44 -84 -61 -113 -74
-124 -8 -6 -12 -20 -9 -29 4 -12 -1 -19 -15 -23 -23 -6 -27 -32 -5 -40 16 -7
55 41 55 67 0 9 7 19 15 22 8 4 15 16 15 28 0 12 9 27 21 34 14 9 18 19 14 32
-4 13 -2 20 7 20 13 0 48 52 48 72 0 13 42 58 55 58 6 -1 32 -23 60 -50 27
-28 53 -50 57 -50 16 0 7 -33 -14 -49 -12 -10 -18 -23 -14 -29 11 -19 32 -14
44 11 7 12 18 30 24 40 11 15 4 26 -61 87 -60 57 -79 70 -106 70 -17 0 -35 -3
-38 -7z"/>
<path d="M6225 9173 c-4 -12 1 -24 14 -35 12 -9 21 -25 21 -36 0 -11 7 -22 15
-26 8 -3 15 -15 15 -26 0 -11 4 -20 9 -20 5 0 12 -11 15 -25 4 -14 13 -25 22
-25 11 0 13 -6 9 -20 -4 -13 0 -23 14 -32 12 -7 21 -23 21 -35 0 -13 4 -23 9
-23 4 0 19 -22 32 -50 13 -27 30 -50 37 -50 9 0 11 -7 7 -19 -4 -14 0 -23 15
-31 11 -6 20 -17 20 -25 0 -21 34 -75 47 -75 23 0 26 23 5 41 -12 9 -22 27
-22 38 0 12 -4 21 -10 21 -5 0 -12 11 -16 25 -3 14 -10 25 -14 25 -4 0 -11 11
-14 25 -4 14 -13 25 -22 25 -11 0 -13 6 -9 20 4 13 0 23 -14 32 -12 7 -21 23
-21 35 0 13 -5 23 -10 23 -6 0 -20 23 -32 50 -12 28 -28 50 -36 50 -9 0 -11 7
-7 20 4 13 0 23 -14 32 -12 7 -21 23 -21 35 0 13 -4 23 -8 23 -5 0 -14 11 -20
25 -14 29 -27 32 -37 8z"/>
<path d="M5984 9108 c-4 -6 2 -19 14 -29 12 -9 22 -27 22 -38 0 -12 4 -21 10
-21 5 0 12 -11 16 -25 3 -14 10 -25 14 -25 4 0 11 -11 14 -25 4 -14 13 -25 22
-25 11 0 13 -6 9 -20 -4 -13 0 -23 14 -32 12 -7 21 -23 21 -35 0 -13 4 -23 9
-23 5 0 13 -9 16 -20 7 -22 30 -27 41 -8 4 6 -2 19 -14 29 -12 9 -22 27 -22
38 0 12 -4 21 -10 21 -5 0 -12 11 -16 25 -3 14 -10 25 -14 25 -4 0 -11 11 -14
25 -4 14 -14 25 -22 25 -12 0 -15 6 -11 20 4 14 -1 25 -14 33 -10 6 -19 22
-19 34 0 13 -4 23 -9 23 -5 0 -13 9 -16 20 -7 22 -30 27 -41 8z"/>
<path d="M2925 9070 c-3 -11 -11 -20 -16 -20 -5 0 -9 -11 -9 -25 0 -14 -7 -28
-15 -31 -8 -4 -15 -17 -15 -30 0 -13 -6 -24 -13 -24 -7 0 -23 -22 -36 -50 -13
-27 -28 -50 -32 -50 -5 0 -9 -10 -9 -23 0 -12 -9 -28 -21 -35 -14 -9 -18 -19
-14 -32 4 -13 2 -20 -7 -20 -7 0 -24 -22 -37 -50 -13 -27 -28 -50 -32 -50 -5
0 -9 -10 -9 -22 0 -13 -11 -33 -25 -46 -24 -23 -24 -23 -35 -2 -6 11 -17 20
-25 20 -8 0 -15 5 -15 10 0 6 -9 10 -20 10 -11 0 -23 7 -26 15 -4 8 -16 15
-29 15 -31 0 -41 39 -15 57 11 8 16 20 13 33 -7 26 -19 25 -34 -2 -7 -13 -15
-25 -19 -28 -4 -3 -10 -15 -14 -27 -6 -18 -2 -25 18 -35 14 -6 26 -15 26 -20
0 -4 7 -8 15 -8 8 0 22 -8 31 -19 10 -11 24 -16 35 -14 13 4 19 0 19 -11 0 -9
4 -16 10 -16 5 0 18 -10 29 -21 l20 -21 23 25 c40 44 48 56 48 74 0 10 9 24
19 30 13 8 18 19 14 33 -4 14 -1 20 11 20 8 0 18 11 22 25 3 14 10 25 14 25 4
0 11 11 14 25 4 14 11 25 16 25 6 0 10 10 10 23 0 12 9 28 21 35 14 9 18 19
14 32 -4 14 -2 20 8 20 8 0 25 23 38 50 13 28 27 50 31 50 5 0 8 9 8 21 0 11
10 29 22 38 12 10 18 23 14 29 -11 19 -34 14 -41 -8z"/>
<path d="M3278 8939 c-10 -17 -18 -37 -18 -45 0 -8 -7 -17 -15 -20 -8 -4 -15
-17 -15 -30 0 -14 -6 -24 -14 -24 -8 0 -18 -10 -22 -22 -4 -13 -18 -40 -30
-60 -13 -21 -24 -43 -24 -50 0 -7 -9 -19 -21 -26 -14 -9 -18 -19 -14 -32 4
-13 2 -20 -7 -20 -7 0 -24 -22 -37 -50 -13 -27 -28 -50 -32 -50 -5 0 -9 -10
-9 -23 0 -12 -9 -28 -19 -34 -12 -8 -17 -19 -14 -31 3 -14 -2 -21 -17 -25 -28
-7 -23 -42 5 -42 13 0 21 8 23 23 2 12 7 22 12 22 4 0 11 11 14 25 4 14 11 25
16 25 6 0 10 10 10 23 0 12 9 28 21 35 14 9 18 19 14 32 -4 14 -2 20 9 20 9 0
18 11 22 25 3 14 10 25 14 25 4 0 11 11 14 25 4 14 11 25 16 25 6 0 10 10 10
23 0 12 9 28 21 35 14 9 18 19 14 32 -4 14 -2 20 8 20 8 0 25 23 38 50 13 28
27 50 31 50 5 0 8 10 8 23 0 12 9 28 20 35 11 7 17 18 14 27 -9 24 -27 18 -46
-16z"/>
<path d="M3440 8955 c-16 -19 -3 -38 23 -31 22 5 47 -17 98 -88 34 -46 37 -71
10 -86 -13 -6 -17 -17 -14 -30 3 -13 0 -20 -8 -20 -8 0 -25 -22 -38 -50 -13
-27 -28 -50 -32 -50 -5 0 -9 -10 -9 -23 0 -12 -9 -28 -21 -35 -14 -9 -18 -19
-14 -32 4 -14 2 -20 -9 -20 -9 0 -18 -11 -22 -25 -3 -14 -10 -25 -14 -25 -4 0
-11 -11 -14 -25 -4 -14 -11 -25 -16 -25 -6 0 -10 -10 -10 -23 0 -12 -9 -28
-21 -35 -11 -7 -18 -19 -15 -27 3 -8 -1 -18 -8 -22 -8 -5 -24 -28 -37 -53 -13
-25 -30 -50 -38 -56 -13 -10 -13 -14 -2 -28 13 -15 17 -14 42 16 17 20 26 40
23 51 -3 10 0 17 8 17 7 0 24 23 37 50 13 28 28 50 32 50 5 0 9 10 9 23 0 12
9 28 19 34 13 8 18 19 14 33 -3 13 -1 20 8 20 8 0 25 23 38 50 13 28 28 50 32
50 5 0 9 10 9 23 0 12 9 28 19 34 13 8 18 19 14 33 -4 14 -1 20 11 20 8 0 18
11 22 25 3 14 10 25 15 25 5 0 9 9 9 20 0 10 8 23 17 28 20 12 22 63 2 86 -55
67 -127 136 -140 136 -9 0 -22 -7 -29 -15z"/>
<path d="M5469 8958 c-9 -7 -31 -33 -50 -58 -19 -25 -43 -53 -54 -62 -16 -13
-18 -19 -7 -29 10 -11 20 -5 55 33 23 25 52 59 64 75 22 27 22 28 29 6 3 -12
12 -24 20 -27 8 -3 14 -15 14 -26 0 -11 4 -20 9 -20 5 0 12 -11 15 -25 7 -26
30 -33 42 -13 4 6 -3 19 -15 30 -14 10 -21 24 -17 33 3 9 -3 19 -14 25 -11 6
-20 20 -20 31 0 12 -10 23 -26 29 -31 12 -27 12 -45 -2z"/>
<path d="M2565 8920 c-3 -11 -11 -20 -16 -20 -5 0 -9 -11 -9 -25 0 -14 -7 -28
-15 -31 -8 -4 -15 -15 -15 -26 0 -11 -10 -28 -22 -37 -12 -10 -18 -23 -14 -29
12 -20 35 -13 42 13 3 14 10 25 15 25 5 0 9 9 9 20 0 11 7 23 15 26 8 4 15 15
15 26 0 11 10 28 22 37 12 10 18 23 14 29 -11 19 -34 14 -41 -8z"/>
<path d="M3408 8895 c-6 -14 -15 -25 -20 -25 -4 0 -8 -11 -8 -24 0 -13 -7 -26
-15 -30 -8 -3 -15 -17 -15 -31 0 -15 -6 -25 -15 -25 -8 0 -17 -11 -21 -25 -3
-14 -10 -25 -14 -25 -4 0 -11 -11 -14 -25 -4 -14 -11 -25 -16 -25 -6 0 -10 -7
-10 -15 0 -21 16 -19 45 7 16 14 23 28 19 40 -3 12 0 18 10 18 9 0 18 11 22
25 3 14 10 25 14 25 4 0 11 11 14 25 4 14 11 25 16 25 6 0 10 11 10 25 0 14 7
28 15 31 17 7 21 54 5 54 -6 0 -16 -11 -22 -25z"/>
<path d="M5714 8838 c-4 -6 2 -19 14 -29 12 -9 22 -26 22 -37 0 -11 7 -22 15
-26 8 -3 15 -12 15 -20 0 -23 34 -76 48 -76 9 0 11 -7 7 -20 -4 -13 0 -23 14
-32 12 -7 21 -23 21 -35 0 -13 4 -23 10 -23 5 0 12 -11 16 -25 3 -14 10 -25
14 -25 4 0 11 -11 14 -25 4 -14 13 -25 22 -25 11 0 13 -6 9 -20 -4 -13 0 -23
14 -32 12 -7 21 -18 21 -25 0 -17 27 -17 33 1 3 7 -3 20 -14 29 -10 9 -19 24
-19 32 0 8 -4 15 -9 15 -5 0 -12 11 -15 25 -4 14 -13 25 -22 25 -11 0 -13 6
-9 19 4 14 0 23 -15 31 -12 6 -20 21 -20 35 0 14 -4 25 -8 25 -5 0 -19 21 -31
46 -13 25 -29 48 -37 51 -8 3 -14 15 -14 28 0 13 -7 25 -15 29 -8 3 -15 12
-15 20 0 22 -33 76 -47 76 -6 0 -15 -5 -19 -12z"/>
<path d="M5597 8780 c-4 -14 1 -25 14 -33 10 -6 19 -22 19 -34 0 -13 4 -23 10
-23 5 0 12 -11 16 -25 7 -28 31 -33 41 -8 4 10 -2 23 -15 34 -12 9 -22 27 -22
38 0 12 -4 21 -8 21 -5 0 -14 11 -20 25 -14 30 -28 32 -35 5z"/>
<path d="M5356 8781 c-9 -14 4 -41 21 -41 10 0 12 -6 8 -20 -4 -13 0 -23 14
-32 12 -7 21 -23 21 -35 0 -13 4 -23 9 -23 4 0 19 -22 32 -50 13 -27 30 -50
37 -50 9 0 11 -7 7 -19 -4 -14 0 -23 15 -31 12 -6 20 -21 20 -35 0 -14 4 -25
9 -25 5 0 13 -9 16 -20 7 -22 30 -27 41 -8 4 6 -2 19 -14 29 -12 9 -22 26 -22
37 0 11 -7 22 -15 26 -8 3 -15 15 -15 26 0 11 -4 20 -9 20 -5 0 -12 11 -15 25
-4 14 -13 25 -22 25 -11 0 -13 6 -9 20 4 13 0 23 -14 32 -12 7 -21 23 -21 35
0 12 -4 23 -9 25 -4 2 -19 23 -32 47 -26 46 -43 59 -53 42z"/>
<path d="M6196 8751 c-9 -15 5 -41 21 -41 10 0 14 -7 10 -20 -3 -10 1 -24 9
-31 7 -6 24 -31 36 -55 21 -44 40 -55 54 -32 4 6 -3 19 -15 30 -14 10 -21 24
-17 33 3 9 -3 19 -14 25 -11 6 -20 17 -20 25 0 7 -8 27 -17 44 -18 31 -37 39
-47 22z"/>
<path d="M3698 8642 c-26 -27 -27 -52 -3 -52 7 0 15 10 18 22 6 22 6 22 32 -6
14 -15 25 -35 25 -45 0 -11 7 -21 15 -25 9 -3 15 -19 15 -41 0 -22 -6 -38 -15
-41 -8 -4 -15 -15 -15 -26 0 -11 -10 -28 -22 -37 -21 -18 -18 -41 5 -41 13 0
47 54 47 75 0 8 7 18 16 23 22 12 29 81 9 88 -9 4 -24 25 -34 48 -11 22 -30
51 -43 63 l-24 23 -26 -28z"/>
<path d="M5228 8659 c-10 -5 -18 -16 -18 -24 0 -8 -13 -28 -30 -43 -19 -18
-30 -39 -30 -56 0 -16 -5 -26 -15 -26 -8 0 -15 -7 -15 -15 0 -8 4 -15 10 -15
5 0 12 -11 16 -25 3 -14 10 -25 14 -25 4 0 11 -11 14 -25 4 -14 14 -25 22 -25
12 0 15 -6 11 -20 -4 -14 1 -25 14 -33 10 -6 19 -22 19 -34 0 -13 4 -23 9 -23
4 0 19 -22 32 -50 13 -27 30 -50 37 -50 8 0 11 -7 7 -19 -3 -10 1 -23 10 -31
8 -7 25 -32 37 -56 21 -44 40 -55 54 -32 4 6 -3 19 -15 30 -14 10 -21 24 -17
33 3 9 -3 19 -14 25 -11 6 -20 17 -20 25 0 22 -34 75 -48 75 -9 0 -11 7 -7 20
4 13 0 23 -14 32 -12 7 -21 23 -21 35 0 13 -4 23 -10 23 -5 0 -12 11 -16 25
-3 14 -10 25 -14 25 -4 0 -11 11 -14 25 -4 14 -13 25 -22 25 -10 0 -14 7 -12
20 2 10 -6 26 -17 35 -19 14 -19 16 -2 26 9 5 17 17 17 25 0 16 66 84 82 84
12 0 6 43 -7 46 -5 2 -18 -1 -27 -7z"/>
<path d="M5270 8590 c0 -11 7 -23 15 -26 8 -4 15 -16 15 -29 0 -13 7 -25 15
-29 8 -3 15 -15 15 -26 0 -11 4 -20 9 -20 5 0 12 -11 15 -25 4 -14 13 -25 22
-25 10 0 13 -6 9 -19 -8 -25 18 -46 34 -27 12 14 5 46 -9 46 -4 0 -11 11 -14
25 -4 14 -13 25 -22 25 -11 0 -13 6 -9 19 4 14 0 23 -15 31 -12 6 -20 21 -20
35 0 14 -4 25 -9 25 -5 0 -13 9 -16 20 -8 26 -35 26 -35 0z"/>
<path d="M6554 8598 c-4 -6 2 -19 14 -29 12 -9 22 -26 22 -37 0 -11 7 -22 15
-26 8 -3 15 -12 15 -20 0 -22 33 -76 47 -76 24 0 26 24 4 42 -14 10 -21 24
-17 33 3 9 -3 19 -14 25 -11 6 -20 17 -20 25 0 21 -34 75 -47 75 -6 0 -15 -5
-19 -12z"/>
<path d="M3644 8555 c-3 -14 -10 -25 -14 -25 -4 0 -11 -11 -14 -25 -4 -14 -11
-25 -16 -25 -6 0 -10 -11 -10 -24 0 -16 -7 -27 -20 -31 -13 -4 -20 -15 -20
-31 0 -32 27 -32 42 1 6 14 15 25 20 25 4 0 8 10 8 23 0 12 9 28 19 34 13 8
18 19 14 33 -4 13 -1 20 10 20 16 0 30 26 21 41 -11 18 -34 9 -40 -16z"/>
<path d="M6315 8543 c-4 -12 1 -24 14 -35 12 -9 21 -26 21 -37 0 -12 4 -21 10
-21 5 0 12 -11 16 -25 3 -14 10 -25 14 -25 4 0 11 -11 14 -25 4 -14 13 -25 22
-25 11 0 13 -6 9 -20 -4 -13 0 -23 14 -32 12 -7 21 -23 21 -35 0 -13 4 -23 8
-23 5 0 14 -12 21 -27 11 -25 13 -25 29 -9 16 16 16 18 -5 36 -13 10 -23 28
-23 39 0 12 -4 21 -9 21 -4 0 -19 23 -32 50 -13 28 -30 50 -38 50 -9 0 -11 7
-8 20 4 14 -1 25 -14 33 -10 6 -19 22 -19 34 0 13 -4 23 -8 23 -5 0 -14 11
-20 25 -14 29 -27 32 -37 8z"/>
<path d="M6675 8393 c-4 -12 1 -24 14 -35 12 -9 21 -25 21 -36 0 -11 7 -22 15
-26 8 -3 15 -15 15 -26 0 -11 4 -20 9 -20 5 0 12 -11 15 -25 4 -14 13 -25 22
-25 11 0 13 -6 9 -20 -4 -13 0 -23 14 -32 12 -7 21 -23 21 -35 0 -13 4 -23 8
-23 5 0 14 -11 20 -25 14 -30 28 -32 35 -5 4 14 -1 25 -14 33 -10 6 -19 22
-19 34 0 13 -3 23 -8 23 -7 0 -35 50 -46 83 -3 9 -12 17 -21 17 -9 0 -15 9
-15 25 0 14 -7 28 -15 31 -8 4 -15 17 -15 30 0 13 -4 24 -8 24 -5 0 -14 11
-20 25 -14 29 -27 32 -37 8z"/>
<path d="M5594 8358 c-4 -6 2 -19 14 -29 12 -9 22 -26 22 -37 0 -11 7 -22 15
-26 8 -3 15 -12 15 -20 0 -32 47 -95 73 -96 14 0 -4 44 -25 62 -11 10 -18 25
-14 33 3 9 -3 19 -14 25 -11 6 -20 17 -20 25 0 21 -34 75 -47 75 -6 0 -15 -5
-19 -12z"/>
<path d="M2842 8349 c2 -6 8 -10 13 -10 5 0 11 4 13 10 2 6 -4 11 -13 11 -9 0
-15 -5 -13 -11z"/>
<path d="M3698 8309 c-10 -17 -18 -37 -18 -45 0 -8 -7 -17 -15 -20 -8 -4 -15
-15 -15 -26 0 -11 -10 -28 -22 -37 -22 -18 -18 -41 7 -41 14 0 45 53 45 77 0
7 7 16 15 19 8 4 15 15 15 26 0 11 10 28 22 37 12 10 18 23 14 29 -12 20 -30
13 -48 -19z"/>
<path d="M3920 8275 c0 -14 -7 -28 -15 -31 -8 -4 -15 -17 -15 -30 0 -13 -6
-24 -13 -24 -7 0 -23 -22 -36 -50 -13 -27 -27 -50 -31 -50 -12 0 -20 -28 -14
-45 9 -23 34 -18 34 8 0 12 9 28 21 35 14 9 18 19 14 32 -4 13 -2 20 7 20 8 0
24 23 36 50 20 45 25 50 47 44 20 -5 25 -2 25 13 0 19 -32 53 -50 53 -6 0 -10
-11 -10 -25z"/>
<path d="M5000 8282 c0 -21 29 -52 48 -52 19 0 14 34 -8 53 -26 22 -40 22 -40
-1z"/>
<path d="M4970 8235 c-6 -8 -8 -19 -4 -26 4 -7 -3 -19 -16 -29 -16 -12 -21
-23 -15 -38 10 -33 35 -28 35 7 0 16 6 31 15 35 16 6 21 51 6 60 -5 3 -14 -1
-21 -9z"/>
<path d="M3980 8190 c0 -20 5 -30 15 -30 11 0 15 -12 15 -45 0 -31 -5 -47 -15
-51 -8 -4 -15 -15 -15 -26 0 -11 -9 -27 -20 -36 -19 -15 -19 -19 -6 -37 14
-19 15 -19 27 8 7 15 16 27 21 27 4 0 8 11 8 25 0 13 8 29 18 34 25 13 23 75
-2 94 -11 8 -16 19 -12 25 9 15 -4 42 -20 42 -9 0 -14 -11 -14 -30z"/>
<path d="M5056 8205 c-3 -9 3 -20 14 -27 11 -7 20 -23 20 -35 0 -13 4 -23 9
-23 5 0 13 -12 19 -27 14 -40 47 -77 60 -69 19 12 14 37 -9 43 -14 4 -19 11
-16 25 3 12 -2 23 -14 31 -10 6 -19 22 -19 34 0 13 -4 23 -9 23 -5 0 -13 9
-16 20 -7 24 -30 26 -39 5z"/>
<path d="M6526 8181 c-9 -14 4 -41 20 -41 8 0 14 -10 14 -24 0 -14 4 -27 9
-31 6 -3 20 -26 32 -50 22 -45 41 -56 55 -33 4 6 -2 19 -14 29 -12 9 -22 26
-22 37 0 11 -7 22 -15 26 -8 3 -15 12 -15 20 0 8 -8 28 -17 45 -18 31 -37 39
-47 22z"/>
<path d="M3578 8099 c-10 -17 -18 -37 -18 -44 0 -8 -9 -19 -19 -25 -13 -6 -17
-17 -14 -30 4 -13 0 -20 -9 -20 -15 0 -50 -67 -39 -75 13 -7 59 43 77 85 10
22 21 40 26 40 4 0 8 9 8 21 0 11 10 29 22 38 12 10 18 23 14 29 -12 20 -30
13 -48 -19z"/>
<path d="M3110 8107 c0 -16 32 -47 48 -47 18 0 14 18 -8 40 -23 23 -40 26 -40
7z"/>
<path d="M4938 8085 c-8 -8 2 -45 12 -45 4 0 11 -11 14 -25 4 -14 13 -25 22
-25 11 0 13 -6 9 -20 -4 -13 0 -23 14 -32 12 -7 21 -23 21 -35 0 -13 5 -23 10
-23 6 0 20 -22 32 -50 12 -27 28 -50 35 -50 7 0 13 -11 13 -24 0 -14 5 -28 10
-31 6 -3 19 -26 30 -51 12 -25 27 -44 36 -44 11 0 14 -5 10 -16 -9 -23 13 -47
30 -33 10 8 9 18 -8 51 -12 22 -27 42 -34 45 -8 3 -14 15 -14 28 0 13 -7 25
-15 29 -8 3 -15 12 -15 20 0 23 -34 76 -48 76 -9 0 -11 7 -7 20 4 13 0 23 -14
32 -12 7 -21 23 -21 35 0 13 -5 23 -10 23 -6 0 -20 23 -32 50 -12 28 -28 50
-36 50 -8 0 -12 9 -10 22 3 21 -20 37 -34 23z"/>
<path d="M6886 8031 c-9 -15 5 -41 21 -41 10 0 14 -7 10 -20 -3 -13 1 -24 14
-30 11 -6 19 -21 19 -35 0 -14 4 -25 9 -25 5 0 13 -9 16 -20 7 -22 30 -27 41
-8 4 6 -2 19 -14 29 -12 9 -22 27 -22 38 0 12 -4 21 -8 21 -5 0 -18 23 -30 50
-20 46 -43 63 -56 41z"/>
<path d="M2032 7997 c-19 -23 2 -39 42 -32 29 6 36 4 36 -9 0 -8 11 -18 25
-22 14 -3 25 -10 25 -15 0 -5 8 -9 18 -9 9 0 28 -12 42 -26 22 -24 23 -27 7
-39 -9 -7 -17 -20 -17 -29 0 -9 -7 -19 -15 -22 -8 -4 -15 -15 -15 -26 0 -11
-10 -28 -22 -37 -21 -18 -18 -41 5 -41 13 0 47 54 47 75 0 8 9 19 20 25 11 6
17 16 14 25 -4 9 4 23 17 35 l24 20 -30 25 c-16 14 -37 31 -45 38 -8 6 -22 10
-32 9 -10 -2 -18 3 -18 10 0 13 -83 58 -106 58 -6 0 -16 -6 -22 -13z"/>
<path d="M5414 7998 c-4 -6 2 -19 14 -29 12 -9 22 -26 22 -38 0 -25 15 -35 28
-18 12 14 5 57 -8 57 -5 0 -12 9 -15 20 -7 22 -30 27 -41 8z"/>
<path d="M6644 7968 c-4 -6 2 -19 14 -29 12 -9 22 -27 22 -38 0 -12 3 -21 8
-21 4 0 18 -22 31 -50 13 -27 30 -50 38 -50 10 0 12 -6 8 -20 -4 -13 0 -23 14
-32 12 -7 21 -23 21 -35 0 -13 4 -23 9 -23 4 0 19 -22 32 -50 13 -27 30 -50
38 -50 9 0 11 -7 8 -20 -4 -14 1 -25 14 -33 10 -6 19 -20 19 -30 0 -10 6 -25
13 -32 6 -8 18 -22 26 -31 13 -15 15 -15 24 2 8 13 5 21 -12 35 -11 9 -21 27
-21 38 0 12 -4 21 -10 21 -5 0 -12 11 -16 25 -3 14 -10 25 -14 25 -4 0 -11 11
-14 25 -4 14 -13 25 -22 25 -11 0 -13 6 -9 20 4 13 0 23 -14 32 -12 7 -21 23
-21 35 0 13 -4 23 -8 23 -5 0 -19 20 -31 45 -12 25 -29 49 -38 54 -10 5 -14
15 -10 25 4 10 -1 20 -13 26 -11 6 -20 17 -20 25 0 21 -34 75 -47 75 -6 0 -15
-5 -19 -12z"/>
<path d="M1980 7903 c-13 -27 -29 -51 -36 -56 -7 -4 -11 -14 -7 -23 3 -9 -3
-21 -16 -30 -11 -8 -21 -24 -21 -35 0 -10 -3 -19 -7 -19 -10 0 -43 -58 -43
-75 0 -8 -9 -19 -19 -25 -13 -6 -17 -17 -14 -30 4 -13 0 -20 -10 -20 -27 0
-26 -27 3 -55 28 -27 50 -27 50 1 0 8 -6 14 -14 14 -23 0 -31 22 -13 35 10 7
17 20 17 29 0 9 7 19 15 22 8 4 15 16 15 28 0 12 9 27 21 34 11 7 18 19 15 27
-3 8 0 18 7 22 18 11 47 60 47 77 0 9 9 20 20 26 11 6 17 16 14 25 -4 9 3 23
17 33 12 11 19 24 15 30 -14 23 -33 11 -56 -35z"/>
<path d="M3914 7925 c-3 -14 -10 -25 -15 -25 -5 0 -9 -9 -9 -20 0 -11 -7 -23
-15 -26 -8 -4 -15 -15 -15 -26 0 -11 -10 -28 -22 -37 -12 -10 -18 -23 -14 -29
11 -19 34 -14 41 8 3 11 11 20 16 20 5 0 9 11 9 24 0 13 7 26 15 30 8 3 15 17
15 31 0 15 6 25 14 25 16 0 29 27 20 41 -11 18 -34 9 -40 -16z"/>
<path d="M4088 7889 c-17 -17 -25 -59 -13 -59 20 0 55 36 55 56 0 28 -18 30
-42 3z"/>
<path d="M4831 7876 c-15 -24 -20 -43 -15 -61 9 -36 28 -26 32 17 2 26 9 37
24 41 23 6 20 30 -4 35 -9 2 -25 -12 -37 -32z"/>
<path d="M4887 7864 c-12 -13 -8 -42 8 -48 8 -3 15 -17 15 -31 0 -14 4 -25 10
-25 5 0 12 -11 16 -25 7 -28 31 -33 41 -8 4 10 -2 23 -15 34 -12 9 -22 25 -22
34 0 9 -5 21 -10 28 -6 7 -16 20 -23 30 -7 10 -16 15 -20 11z"/>
<path d="M4131 7818 c-10 -28 -3 -58 14 -58 17 0 28 34 20 60 -8 26 -24 25
-34 -2z"/>
<path d="M3344 7815 c-4 -9 -2 -21 4 -27 15 -15 44 -1 40 19 -4 23 -36 29 -44
8z"/>
<path d="M4021 7780 c-13 -27 -28 -50 -32 -50 -12 0 -11 -37 1 -45 6 -3 13 2
17 12 4 10 15 24 25 31 12 9 17 20 13 33 -4 13 -2 19 8 19 15 0 30 34 19 44
-14 15 -29 2 -51 -44z"/>
<path d="M7004 7818 c-4 -6 2 -19 14 -29 12 -9 22 -26 22 -37 0 -11 7 -22 15
-26 8 -3 15 -15 15 -26 0 -11 4 -20 9 -20 5 0 12 -11 15 -25 4 -14 13 -25 22
-25 11 0 13 -6 9 -20 -4 -13 0 -23 14 -32 12 -7 21 -23 21 -35 0 -13 4 -23 10
-23 5 0 12 -11 16 -25 3 -14 10 -25 14 -25 4 0 11 -11 14 -25 4 -14 14 -25 22
-25 11 0 15 -6 11 -20 -3 -13 1 -24 14 -30 11 -6 19 -21 19 -35 0 -14 4 -25 9
-25 5 0 13 -9 16 -20 7 -22 30 -27 41 -8 4 6 -2 19 -14 29 -12 9 -22 27 -22
38 0 12 -4 21 -10 21 -5 0 -12 11 -16 25 -3 14 -10 25 -15 25 -5 0 -9 9 -9 21
0 13 -8 23 -21 26 -14 4 -19 11 -16 25 3 12 -2 23 -14 31 -10 6 -19 22 -19 34
0 13 -4 23 -9 23 -4 0 -19 23 -32 50 -13 28 -30 50 -37 50 -9 0 -11 7 -7 20 4
13 0 23 -14 32 -12 7 -21 23 -21 35 0 13 -4 23 -9 23 -5 0 -13 9 -16 20 -7 22
-30 27 -41 8z"/>
<path d="M2378 7789 c-10 -5 -18 -19 -18 -30 0 -11 -7 -22 -15 -25 -8 -4 -15
-15 -15 -26 0 -11 -10 -28 -22 -37 -12 -10 -18 -23 -14 -29 12 -20 35 -13 42
13 3 14 10 25 15 25 5 0 9 8 9 18 0 10 10 26 21 36 21 18 23 18 59 -3 51 -28
64 -27 44 4 -9 14 -24 25 -33 25 -9 0 -22 9 -29 20 -14 23 -20 24 -44 9z"/>
<path d="M4787 7753 c-10 -38 -1 -105 16 -118 9 -7 17 -21 17 -33 0 -11 7 -22
15 -26 8 -3 15 -12 15 -20 0 -8 8 -28 18 -45 17 -31 36 -39 46 -22 9 15 -5 41
-21 41 -10 0 -14 7 -10 20 3 13 -1 24 -14 30 -10 6 -19 17 -19 26 0 8 -7 26
-16 39 -10 16 -14 36 -11 54 8 36 -2 71 -18 71 -8 0 -16 -8 -18 -17z"/>
<path d="M3780 7693 c-13 -26 -29 -52 -37 -58 -16 -12 -6 -55 13 -55 8 0 14 9
14 20 0 11 8 27 19 36 10 9 16 24 14 34 -3 11 3 19 17 23 25 6 24 40 -1 45
-10 2 -24 -14 -39 -45z"/>
<path d="M4161 7718 c-6 -15 -8 -35 -4 -44 3 -9 -3 -21 -15 -30 -12 -8 -19
-21 -16 -29 7 -16 34 -21 34 -6 0 5 7 16 15 25 23 23 29 68 11 91 -14 20 -15
19 -25 -7z"/>
<path d="M2118 7665 c-6 -14 -15 -25 -20 -25 -4 0 -8 -11 -8 -25 0 -14 -7 -28
-15 -31 -8 -4 -15 -17 -15 -30 0 -14 -6 -24 -14 -24 -16 0 -29 -27 -20 -41 11
-18 34 -9 40 16 3 14 10 25 15 25 5 0 9 9 9 20 0 11 7 23 15 26 8 4 15 15 15
26 0 11 9 27 21 36 13 11 18 23 14 35 -10 24 -23 21 -37 -8z"/>
<path d="M2269 7607 c-7 -15 -16 -27 -21 -27 -4 0 -8 -10 -8 -23 0 -12 -9 -28
-19 -34 -12 -8 -17 -19 -14 -31 3 -14 -2 -21 -16 -25 -28 -7 -29 -47 -1 -47
13 0 22 9 26 25 3 14 10 25 14 25 4 0 11 11 14 25 4 14 11 25 16 25 6 0 10 9
10 21 0 11 10 29 23 39 21 18 21 20 5 36 -16 16 -18 16 -29 -9z"/>
<path d="M4088 7559 c-10 -17 -18 -37 -18 -45 0 -8 -7 -17 -15 -20 -8 -4 -15
-16 -15 -28 0 -12 -9 -27 -21 -34 -11 -7 -18 -19 -15 -27 3 -8 0 -18 -7 -22
-17 -11 -47 -59 -47 -75 0 -7 -9 -19 -20 -26 -11 -7 -17 -18 -14 -27 8 -21 31
-19 39 4 3 11 12 22 20 25 9 3 12 12 9 21 -4 10 2 22 15 32 12 8 20 21 17 29
-3 7 0 17 7 21 18 11 47 60 47 77 0 9 9 20 19 26 13 6 17 17 14 30 -4 13 0 20
10 20 16 0 30 26 21 41 -10 17 -29 9 -46 -22z"/>
<path d="M2660 7565 c0 -8 7 -15 15 -15 8 0 15 7 15 15 0 8 -7 15 -15 15 -8 0
-15 -7 -15 -15z"/>
<path d="M2478 7545 c-6 -14 -15 -25 -20 -25 -4 0 -8 -10 -8 -23 0 -12 -9 -28
-21 -35 -14 -9 -18 -19 -14 -32 4 -13 2 -20 -7 -20 -7 0 -24 -22 -37 -50 -13
-27 -28 -50 -32 -50 -5 0 -9 -11 -9 -24 0 -39 -32 -42 -70 -6 -33 31 -50 38
-50 20 0 -14 78 -90 93 -90 18 0 57 46 57 68 0 9 9 23 19 29 13 8 18 19 14 33
-4 14 -1 20 11 20 8 0 18 11 22 25 3 14 10 25 14 25 4 0 11 11 14 25 4 14 11
25 16 25 6 0 10 9 10 21 0 11 9 28 21 37 13 11 18 23 14 35 -10 24 -23 21 -37
-8z"/>
<path d="M1873 7513 c-4 -9 -1 -19 5 -21 7 -2 19 -10 26 -18 8 -8 23 -14 34
-14 11 0 26 -10 34 -21 19 -29 58 -18 58 17 0 27 -3 28 -31 14 -15 -9 -21 -7
-25 5 -3 8 -16 15 -28 15 -12 0 -27 9 -34 20 -15 24 -30 26 -39 3z"/>
<path d="M2595 7480 c-3 -11 -11 -20 -16 -20 -5 0 -9 -10 -9 -23 0 -12 -9 -28
-21 -35 -14 -9 -18 -19 -14 -32 4 -14 2 -20 -9 -20 -9 0 -18 -11 -22 -25 -3
-14 -10 -25 -15 -25 -5 0 -9 -6 -9 -14 0 -8 -7 -22 -16 -31 -9 -8 -13 -23 -10
-31 9 -23 65 32 59 57 -3 12 0 19 8 19 8 0 25 23 38 50 13 28 28 50 32 50 5 0
9 9 9 21 0 11 10 29 22 38 12 10 18 23 14 29 -11 19 -34 14 -41 -8z"/>
<path d="M3557 7493 c-15 -15 -5 -46 23 -75 25 -25 31 -27 36 -13 4 9 -1 21
-11 29 -10 7 -15 18 -11 25 13 20 -21 51 -37 34z"/>
<path d="M4197 7464 c-12 -12 -8 -34 8 -50 8 -9 15 -31 15 -50 0 -24 5 -34 15
-34 13 0 15 12 13 68 -3 59 -6 67 -23 70 -12 2 -24 0 -28 -4z"/>
<path d="M4728 7458 c-3 -7 -2 -24 2 -38 4 -18 13 -25 30 -25 17 0 26 -7 30
-24 3 -14 11 -26 18 -29 18 -6 15 55 -3 62 -8 3 -15 12 -15 20 0 33 -53 61
-62 34z"/>
<path d="M4904 7458 c-4 -6 2 -19 14 -29 12 -9 22 -27 22 -38 0 -12 4 -21 10
-21 5 0 12 -11 16 -25 3 -14 10 -25 15 -25 5 0 9 -9 9 -21 0 -12 8 -23 20 -26
13 -3 20 -14 20 -28 0 -13 7 -25 15 -29 8 -3 15 -15 15 -26 0 -11 4 -20 9 -20
5 0 12 -11 15 -25 7 -26 30 -33 42 -13 4 6 -2 19 -14 29 -12 9 -22 26 -22 37
0 11 -7 22 -15 26 -8 3 -15 15 -15 26 0 11 -4 20 -9 20 -5 0 -12 11 -15 25 -4
14 -13 25 -22 25 -11 0 -13 6 -9 20 4 13 0 23 -14 32 -12 7 -21 23 -21 35 0
13 -4 23 -9 23 -5 0 -13 9 -16 20 -7 22 -30 27 -41 8z"/>
<path d="M4148 7379 c-22 -38 -23 -69 -3 -69 9 0 15 9 15 24 0 13 7 26 15 30
18 7 20 46 3 46 -7 0 -21 -14 -30 -31z"/>
<path d="M6976 7401 c-9 -15 5 -41 21 -41 10 0 14 -7 10 -20 -3 -13 1 -24 14
-30 10 -6 19 -17 19 -25 0 -7 8 -27 18 -44 17 -31 36 -39 46 -22 9 14 -4 41
-20 41 -8 0 -14 10 -14 24 0 13 -7 26 -15 30 -8 3 -15 12 -15 20 0 8 -8 28
-17 45 -18 31 -37 39 -47 22z"/>
<path d="M4701 7332 c-15 -29 -14 -78 3 -94 7 -8 17 -24 20 -36 4 -12 14 -22
22 -22 11 0 13 -6 9 -20 -4 -13 0 -23 14 -32 12 -7 21 -23 21 -35 0 -13 4 -23
9 -23 4 0 19 -22 32 -50 13 -27 30 -50 37 -50 9 0 11 -7 7 -20 -4 -13 0 -23
14 -32 12 -7 21 -23 21 -35 0 -13 3 -23 8 -23 9 0 42 -58 42 -75 0 -8 9 -17
20 -20 13 -4 20 -15 20 -31 0 -15 6 -24 15 -24 10 0 15 10 15 30 0 17 -4 30
-9 30 -5 0 -13 9 -16 20 -3 11 -13 20 -21 20 -11 0 -13 6 -9 20 4 13 0 23 -14
32 -12 7 -21 23 -21 35 0 13 -3 23 -8 23 -4 0 -18 23 -31 50 -13 28 -30 50
-38 50 -10 0 -12 6 -8 20 4 13 0 23 -14 32 -12 7 -21 23 -21 35 0 13 -4 23 -9
23 -4 0 -19 23 -32 50 -13 28 -29 50 -34 50 -7 0 -12 22 -12 51 -1 59 -15 82
-32 51z"/>
<path d="M4250 7266 c0 -8 -7 -16 -15 -20 -8 -3 -15 -15 -15 -26 0 -11 -7 -23
-15 -26 -8 -4 -15 -15 -15 -26 0 -11 -10 -28 -22 -37 -22 -18 -18 -41 7 -41
14 0 45 53 45 77 0 7 7 16 15 19 9 4 15 19 15 35 0 19 5 29 15 29 8 0 15 7 15
15 0 8 -7 15 -15 15 -8 0 -15 -6 -15 -14z"/>
<path d="M7334 7248 c-4 -6 3 -19 15 -30 14 -10 21 -24 17 -33 -3 -9 3 -19 14
-25 11 -6 20 -17 20 -25 0 -22 34 -75 48 -75 9 0 11 -7 7 -20 -4 -13 0 -23 14
-32 12 -7 21 -23 21 -35 0 -13 4 -23 10 -23 5 0 12 -11 16 -25 3 -14 10 -25
14 -25 4 0 11 -11 14 -25 4 -14 13 -25 22 -25 11 0 13 -6 9 -19 -4 -14 0 -23
15 -31 11 -6 20 -21 20 -35 0 -13 6 -25 13 -28 17 -6 -3 -39 -31 -52 -12 -5
-22 -16 -22 -23 0 -9 -7 -11 -19 -7 -14 4 -23 0 -31 -16 -10 -18 -18 -20 -50
-15 -42 7 -59 -6 -40 -29 12 -15 82 -9 88 7 2 4 24 17 48 29 25 11 48 26 51
34 3 8 13 15 24 15 10 0 24 10 30 22 10 18 8 24 -10 39 -11 9 -21 26 -21 37 0
11 -7 22 -15 26 -8 3 -15 15 -15 26 0 11 -4 20 -9 20 -5 0 -12 11 -15 25 -4
14 -13 25 -22 25 -11 0 -13 6 -9 20 4 13 0 23 -14 32 -12 7 -21 23 -21 35 0
13 -4 23 -9 23 -4 0 -19 23 -32 50 -13 28 -29 50 -36 50 -7 0 -13 11 -13 24 0
14 -4 27 -9 31 -6 3 -20 26 -32 50 -22 45 -41 56 -55 33z"/>
<path d="M3892 7218 c-7 -7 -12 -18 -12 -25 0 -7 -4 -13 -10 -13 -5 0 -10 -9
-10 -20 0 -11 -7 -23 -15 -26 -8 -4 -15 -15 -15 -26 0 -11 -10 -28 -22 -37
-21 -18 -18 -41 5 -41 14 0 47 54 47 76 0 8 7 17 15 20 8 4 15 16 15 29 0 13
7 25 15 29 8 3 15 15 15 26 0 23 -10 26 -28 8z"/>
<path d="M7094 7188 c-4 -6 2 -19 14 -29 12 -9 22 -27 22 -38 0 -12 4 -21 10
-21 5 0 12 -11 16 -25 3 -14 10 -25 14 -25 4 0 11 -11 14 -25 4 -14 13 -25 22
-25 11 0 13 -6 9 -20 -4 -13 0 -23 14 -32 12 -7 21 -23 21 -35 0 -13 4 -23 8
-23 5 0 14 -12 21 -27 11 -25 13 -25 29 -9 16 16 16 18 -5 36 -13 10 -23 28
-23 39 0 12 -4 21 -10 21 -5 0 -12 11 -16 25 -3 14 -10 25 -14 25 -4 0 -11 11
-14 25 -4 14 -14 25 -22 25 -11 0 -15 6 -11 20 3 13 -1 24 -14 30 -11 6 -19
21 -19 35 0 14 -4 25 -9 25 -5 0 -13 9 -16 20 -7 22 -30 27 -41 8z"/>
<path d="M1575 7130 c-3 -5 -15 -10 -26 -10 -11 0 -24 -11 -31 -25 -6 -14 -15
-25 -20 -25 -4 0 -8 -10 -8 -23 0 -12 -9 -28 -21 -35 -13 -8 -18 -19 -14 -31
4 -13 0 -20 -15 -24 -12 -3 -20 -13 -20 -26 0 -12 -4 -21 -9 -21 -5 0 -12 -11
-15 -25 -4 -14 -11 -25 -16 -25 -6 0 -10 -10 -10 -23 0 -12 -9 -28 -21 -35
-13 -8 -18 -19 -14 -31 4 -13 0 -20 -15 -24 -12 -3 -20 -13 -20 -26 0 -12 -4
-21 -9 -21 -5 0 -12 -11 -15 -25 -4 -14 -11 -25 -16 -25 -6 0 -10 -10 -10 -23
0 -12 -9 -28 -21 -35 -14 -9 -18 -19 -14 -32 4 -13 2 -20 -8 -20 -7 0 -24 -21
-37 -47 -13 -27 -29 -51 -36 -56 -7 -4 -11 -14 -7 -23 3 -9 -3 -21 -16 -30
-15 -11 -20 -22 -16 -35 4 -12 2 -19 -8 -19 -7 0 -24 -21 -37 -47 -13 -27 -29
-51 -36 -56 -7 -4 -11 -14 -8 -22 4 -9 -4 -23 -17 -33 -12 -11 -19 -24 -15
-30 11 -19 34 -14 41 8 3 11 11 20 16 20 5 0 9 11 9 25 0 14 8 29 19 35 12 6
17 17 14 28 -3 11 2 22 10 25 8 3 25 26 38 51 12 25 26 46 31 46 4 0 8 11 8
25 0 14 8 29 20 35 12 6 17 16 13 26 -4 10 0 20 10 25 9 5 26 29 38 54 12 25
26 45 31 45 4 0 8 10 8 23 0 12 9 28 21 35 14 9 18 19 14 32 -4 13 -2 20 7 20
7 0 24 23 37 50 13 28 28 50 32 50 5 0 9 10 9 23 0 12 9 28 21 35 14 9 18 19
14 32 -4 14 -2 20 9 20 9 0 18 11 22 25 3 14 10 25 14 25 4 0 11 11 14 25 4
14 11 25 16 25 6 0 10 10 10 23 0 12 9 28 20 35 11 7 20 19 20 27 0 13 4 14
21 4 25 -13 45 1 36 25 -7 18 -33 21 -42 6z"/>
<path d="M1631 7101 c-7 -5 -11 -13 -8 -17 6 -9 60 -38 90 -48 25 -8 23 -63
-3 -84 -19 -15 -19 -19 -7 -36 14 -19 15 -19 27 5 7 13 16 26 20 29 4 3 11 24
15 48 6 35 4 42 -9 42 -9 0 -19 7 -22 15 -4 8 -16 15 -28 15 -12 0 -27 9 -34
20 -13 22 -20 24 -41 11z"/>
<path d="M5114 7098 c-4 -6 2 -19 14 -29 12 -9 22 -27 22 -38 0 -12 6 -21 15
-21 20 0 19 31 -2 69 -19 32 -37 39 -49 19z"/>
<path d="M4118 7049 c-10 -17 -18 -37 -18 -44 0 -8 -9 -19 -19 -25 -12 -6 -17
-17 -14 -28 3 -11 -2 -22 -10 -25 -8 -3 -25 -26 -38 -51 -12 -25 -26 -46 -31
-46 -4 0 -8 -9 -8 -21 0 -11 -9 -28 -21 -37 -13 -11 -18 -23 -14 -35 9 -21 35
-23 35 -2 0 8 9 23 19 32 11 9 17 22 14 30 -3 8 4 21 16 29 15 11 20 22 16 35
-4 13 -2 19 8 19 8 0 25 23 38 50 13 28 27 50 31 50 5 0 8 9 8 21 0 11 10 29
22 38 12 10 18 23 14 29 -12 20 -30 13 -48 -19z"/>
<path d="M2533 7034 c-4 -11 2 -23 18 -35 47 -36 66 -18 27 26 -25 29 -36 31
-45 9z"/>
<path d="M4693 7004 c-4 -10 6 -26 26 -44 34 -32 35 -31 20 23 -10 38 -35 50
-46 21z"/>
<path d="M4241 6989 c-24 -20 -24 -20 -7 -51 15 -24 17 -43 13 -87 -4 -31 -4
-67 0 -79 6 -24 28 -30 36 -9 7 18 -3 231 -11 239 -4 3 -18 -2 -31 -13z"/>
<path d="M1880 6927 c0 -12 -9 -28 -21 -35 -14 -9 -18 -19 -14 -32 4 -13 2
-20 -8 -20 -7 0 -24 -21 -37 -47 -13 -27 -29 -51 -36 -56 -7 -4 -11 -14 -8
-22 4 -9 -4 -23 -16 -33 -18 -14 -21 -23 -13 -36 9 -16 11 -16 24 -2 33 36 39
46 39 65 0 11 9 25 19 31 13 6 17 17 14 30 -4 13 0 20 9 20 8 0 22 17 31 39
19 43 67 103 67 83 0 -18 52 -61 67 -55 7 3 13 9 13 15 0 12 -52 57 -67 58 -7
0 -13 5 -13 10 0 6 -11 10 -25 10 -19 0 -25 -5 -25 -23z"/>
<path d="M1664 6875 c-3 -14 -10 -25 -14 -25 -4 0 -11 -11 -14 -25 -4 -14 -11
-25 -16 -25 -6 0 -10 -10 -10 -23 0 -12 -9 -28 -21 -35 -14 -9 -18 -19 -14
-32 4 -13 2 -20 -7 -20 -14 0 -48 -53 -48 -75 0 -8 -9 -19 -20 -25 -11 -6 -17
-16 -14 -25 4 -9 -3 -23 -17 -33 -22 -18 -20 -42 4 -42 14 0 47 54 47 76 0 8
7 17 15 20 8 4 15 17 15 30 0 13 6 24 13 24 7 0 23 23 36 50 13 28 28 50 32
50 5 0 9 11 9 25 0 14 8 29 20 35 15 8 19 17 15 31 -4 13 -2 19 8 19 16 0 30
27 21 41 -11 18 -34 9 -40 -16z"/>
<path d="M4707 6853 c-3 -5 -7 -30 -8 -58 -3 -41 -1 -50 14 -53 14 -3 17 4 17
52 0 50 -11 78 -23 59z"/>
<path d="M4796 6852 c-3 -6 -1 -14 5 -17 15 -10 25 3 12 16 -7 7 -13 7 -17 1z"/>
<path d="M7306 6831 c-9 -15 5 -41 21 -41 11 0 14 -7 10 -20 -4 -14 1 -25 14
-33 10 -6 19 -17 19 -24 0 -19 34 -73 47 -73 23 0 26 23 5 41 -12 9 -22 26
-22 37 0 11 -7 22 -15 26 -8 3 -15 15 -15 26 0 11 -4 20 -9 20 -5 0 -12 11
-15 25 -6 25 -29 34 -40 16z"/>
<path d="M2810 6755 c0 -8 7 -15 15 -15 8 0 15 7 15 15 0 8 -7 15 -15 15 -8 0
-15 -7 -15 -15z"/>
<path d="M2180 6730 c0 -23 106 -110 134 -110 28 0 17 24 -22 50 -35 24 -42
29 -76 58 -18 15 -36 16 -36 2z"/>
<path d="M1693 6610 c-3 -11 -10 -20 -15 -20 -13 0 -6 -51 7 -51 6 0 12 8 14
17 2 10 12 25 24 34 11 9 17 22 13 28 -11 19 -37 14 -43 -8z"/>
<path d="M3860 6605 c0 -8 7 -15 15 -15 8 0 15 7 15 15 0 8 -7 15 -15 15 -8 0
-15 -7 -15 -15z"/>
<path d="M3092 6496 c-12 -24 -29 -49 -37 -56 -12 -10 -13 -16 -4 -27 10 -12
17 -9 41 14 17 16 26 33 23 44 -4 11 1 18 16 22 13 4 20 12 17 24 -6 35 -33
25 -56 -21z"/>
<path d="M4733 6528 c-5 -7 -8 -32 -5 -56 4 -40 6 -43 28 -38 18 5 26 2 30
-11 15 -46 40 -83 56 -83 26 0 24 40 -2 47 -13 3 -20 14 -20 28 0 13 -7 25
-15 29 -8 3 -15 13 -15 23 -1 10 -11 31 -24 46 -18 22 -25 25 -33 15z"/>
<path d="M4208 6509 c-25 -27 -22 -47 7 -61 31 -14 35 -11 38 38 2 44 -17 55
-45 23z"/>
<path d="M1418 6449 c-10 -17 -18 -37 -18 -44 0 -8 -9 -19 -19 -25 -13 -6 -17
-17 -14 -30 4 -13 0 -20 -10 -20 -16 0 -30 -26 -21 -41 10 -17 29 -9 47 22 9
17 17 37 17 45 0 8 7 17 15 20 8 4 15 15 15 26 0 11 10 28 22 37 12 10 18 23
14 29 -12 20 -30 13 -48 -19z"/>
<path d="M1853 6469 c-6 -6 -9 -18 -6 -26 3 -8 -4 -21 -16 -29 -11 -8 -21 -19
-21 -25 0 -5 -11 -27 -25 -49 -14 -22 -25 -46 -25 -54 0 -9 -9 -20 -20 -26
-11 -6 -17 -16 -14 -25 4 -9 -3 -23 -17 -33 -12 -11 -19 -24 -15 -30 14 -24
34 -11 57 38 13 28 27 50 31 50 5 0 8 11 8 24 0 13 7 26 15 30 8 3 20 16 25
28 6 13 22 43 36 67 22 37 24 45 12 57 -10 11 -17 11 -25 3z"/>
<path d="M2474 6469 c-6 -11 72 -99 88 -99 25 0 14 32 -23 68 -44 44 -54 49
-65 31z"/>
<path d="M7190 6455 c0 -10 7 -15 18 -13 21 4 19 22 -2 26 -10 2 -16 -3 -16
-13z"/>
<path d="M4163 6438 c-6 -7 -13 -20 -17 -28 -3 -8 -15 -28 -25 -45 -25 -40
-16 -50 20 -24 21 15 28 26 24 40 -4 13 -2 19 9 19 10 0 16 9 16 25 0 27 -12
32 -27 13z"/>
<path d="M1963 6404 c-3 -8 1 -22 9 -30 13 -13 16 -13 27 0 7 9 11 23 7 31 -7
20 -35 19 -43 -1z"/>
<path d="M7878 6293 c-10 -3 -18 -8 -18 -13 0 -4 -11 -11 -25 -14 -14 -4 -25
-13 -25 -22 0 -11 -6 -13 -20 -9 -13 4 -23 0 -32 -14 -7 -12 -23 -21 -35 -21
-13 0 -23 -6 -24 -12 -2 -29 4 -73 11 -78 4 -3 13 -16 19 -29 12 -22 14 -22
29 -7 16 16 15 19 -5 36 -13 10 -23 25 -23 33 0 19 39 51 91 74 21 9 39 23 39
30 0 22 31 15 56 -13 13 -14 24 -34 24 -45 0 -10 4 -19 10 -19 5 0 12 -11 16
-25 3 -14 10 -25 14 -25 4 0 11 -11 14 -25 4 -14 13 -25 22 -25 11 0 13 -6 9
-20 -4 -13 0 -23 14 -32 12 -7 21 -18 21 -25 0 -16 40 -83 50 -83 20 0 20 36
1 52 -12 9 -21 26 -21 37 0 12 -4 21 -10 21 -5 0 -12 11 -16 25 -3 14 -10 25
-14 25 -4 0 -11 11 -14 25 -4 14 -13 25 -22 25 -11 0 -13 6 -9 20 4 13 0 23
-14 32 -12 7 -21 23 -21 35 0 13 -5 23 -10 23 -6 0 -15 11 -20 24 -10 28 -37
44 -62 39z"/>
<path d="M1301 6245 c-11 -20 -21 -42 -21 -50 0 -8 -9 -19 -19 -25 -13 -6 -17
-17 -14 -30 4 -13 0 -20 -10 -20 -16 0 -30 -26 -21 -41 11 -18 34 -9 40 16 3
14 10 25 14 25 4 0 11 11 14 25 4 14 11 25 16 25 6 0 10 9 10 21 0 11 10 29
23 39 20 17 21 20 6 35 -15 15 -18 14 -38 -20z"/>
<path d="M3345 6243 c-13 -2 -30 -23 -44 -53 -13 -28 -28 -50 -32 -50 -5 0 -9
-13 -9 -30 0 -20 5 -30 15 -30 9 0 15 9 15 23 0 12 9 28 20 35 11 7 20 21 20
31 0 10 6 21 14 24 7 3 16 17 18 31 3 14 5 25 4 25 0 -1 -10 -4 -21 -6z"/>
<path d="M2264 6165 c-4 -9 -2 -21 4 -27 15 -15 44 -1 40 19 -4 23 -36 29 -44
8z"/>
<path d="M2752 6168 c-8 -8 -9 -15 0 -25 14 -17 39 2 31 23 -6 17 -15 18 -31
2z"/>
<path d="M1669 6138 c-7 -13 -18 -29 -26 -36 -17 -17 -17 -37 1 -51 10 -9 16
-8 26 3 6 9 9 20 5 26 -4 6 3 18 15 28 14 11 19 23 15 35 -10 23 -22 21 -36
-5z"/>
<path d="M931 6075 c-12 -24 -26 -47 -32 -50 -5 -4 -9 -15 -9 -26 0 -12 -10
-29 -22 -38 -21 -18 -18 -41 5 -41 14 0 47 54 47 76 0 8 7 17 15 20 8 4 15 15
15 26 0 11 10 28 22 37 12 10 18 23 14 29 -14 23 -33 12 -55 -33z"/>
<path d="M7517 6096 c-3 -8 -17 -16 -32 -18 -37 -4 -36 -22 3 -26 24 -3 32 1
32 13 0 24 22 13 45 -23 21 -33 39 -40 51 -20 4 6 -2 19 -14 29 -12 9 -22 27
-22 38 0 16 -6 21 -29 21 -16 0 -31 -6 -34 -14z"/>
<path d="M1189 6047 c-7 -15 -16 -27 -21 -27 -4 0 -8 -10 -8 -23 0 -12 -9 -28
-19 -34 -13 -8 -18 -19 -14 -33 4 -14 1 -20 -11 -20 -8 0 -18 -11 -22 -25 -3
-14 -10 -25 -14 -25 -4 0 -11 -11 -14 -25 -4 -14 -11 -25 -16 -25 -6 0 -10
-10 -10 -23 0 -12 -9 -28 -21 -35 -14 -9 -18 -19 -14 -32 4 -14 2 -20 -9 -20
-9 0 -18 -11 -22 -25 -3 -14 -10 -25 -14 -25 -4 0 -11 -11 -14 -25 -4 -14 -11
-25 -16 -25 -6 0 -10 -9 -10 -21 0 -11 -9 -28 -21 -37 -13 -11 -18 -23 -14
-35 10 -24 23 -21 37 8 6 14 15 25 20 25 4 0 8 10 8 23 0 12 9 28 19 34 13 8
18 19 14 33 -3 13 -1 20 8 20 8 0 25 23 38 50 13 28 28 50 32 50 5 0 9 10 9
23 0 12 9 28 21 35 14 9 18 19 14 32 -4 14 -2 20 9 20 9 0 18 11 22 25 3 14
10 25 14 25 4 0 11 11 14 25 4 14 11 25 16 25 6 0 10 9 10 21 0 11 10 29 23
39 21 18 21 20 5 36 -16 16 -18 16 -29 -9z"/>
<path d="M7756 6051 c-9 -14 4 -41 20 -41 8 0 14 -10 14 -24 0 -13 7 -26 15
-30 8 -3 15 -12 15 -20 0 -22 33 -76 47 -76 23 0 26 23 5 41 -12 9 -22 26 -22
37 0 11 -7 22 -15 26 -8 3 -15 12 -15 20 0 8 -8 28 -17 45 -18 31 -37 39 -47
22z"/>
<path d="M7604 5988 c-4 -6 2 -19 14 -29 12 -9 22 -26 22 -37 0 -11 7 -22 15
-26 8 -3 15 -12 15 -20 0 -22 33 -76 47 -76 24 0 26 24 4 42 -14 10 -21 24
-17 33 3 9 -3 19 -14 25 -11 6 -20 17 -20 25 0 21 -34 75 -47 75 -6 0 -15 -5
-19 -12z"/>
<path d="M2572 5938 c-7 -7 -12 -20 -12 -30 0 -10 -5 -18 -11 -18 -5 0 -8 -4
-5 -9 8 -13 66 17 66 34 0 21 -25 36 -38 23z"/>
<path d="M4070 5920 c0 -11 -7 -23 -15 -26 -29 -12 -29 -74 0 -74 16 0 29 35
20 51 -4 6 2 17 13 25 12 8 19 21 16 29 -9 22 -34 18 -34 -5z"/>
<path d="M4881 5926 c-15 -18 -6 -52 15 -60 10 -4 13 -13 8 -31 -7 -29 22 -48
37 -24 14 22 11 37 -12 58 -12 11 -19 27 -16 35 9 22 -17 40 -32 22z"/>
<path d="M1942 5905 c2 -14 8 -26 13 -26 6 0 11 12 13 26 2 18 -1 25 -13 25
-12 0 -15 -7 -13 -25z"/>
<path d="M845 5912 c-17 -11 -45 -60 -45 -76 0 -9 -9 -20 -20 -26 -11 -6 -17
-16 -14 -25 4 -9 -3 -23 -17 -33 -22 -18 -20 -42 4 -42 14 0 47 54 47 76 0 8
7 17 15 20 8 4 15 15 15 26 0 11 10 28 21 37 16 13 19 22 13 34 -5 9 -14 13
-19 9z"/>
<path d="M8114 5899 c-4 -7 4 -20 17 -30 l24 -19 -22 -6 c-24 -7 -31 -28 -12
-40 6 -3 22 5 35 19 25 27 31 47 15 47 -5 0 -13 9 -16 20 -7 22 -30 27 -41 9z"/>
<path d="M3590 5857 c0 -7 -9 -20 -20 -30 -28 -23 -26 -49 3 -45 18 2 21 8 19
31 -3 19 1 27 12 27 9 0 16 7 16 15 0 8 -7 15 -15 15 -8 0 -15 -6 -15 -13z"/>
<path d="M7875 5843 c-4 -12 1 -24 14 -35 12 -9 21 -24 21 -33 0 -9 10 -27 23
-41 l24 -25 71 38 c40 21 72 43 72 50 0 24 -23 26 -41 4 -11 -13 -23 -19 -30
-15 -7 4 -19 -3 -29 -16 -12 -16 -23 -21 -38 -15 -12 3 -22 13 -22 20 0 18
-40 85 -50 85 -4 0 -11 -8 -15 -17z"/>
<path d="M2987 5835 c-4 -9 6 -23 24 -36 38 -27 45 -21 22 20 -19 33 -37 40
-46 16z"/>
<path d="M4011 5807 c-6 -8 -9 -22 -5 -31 4 -10 0 -18 -10 -22 -9 -3 -16 -14
-16 -24 0 -10 -7 -26 -16 -34 -16 -17 -16 -57 1 -57 6 0 12 8 14 18 2 10 12
24 23 31 12 9 17 20 13 32 -4 11 0 22 10 27 18 11 25 64 9 70 -6 2 -16 -3 -23
-10z"/>
<path d="M4934 5775 c-4 -9 -2 -21 4 -27 15 -15 44 -1 40 19 -4 23 -36 29 -44
8z"/>
<path d="M7724 5778 c-4 -6 2 -19 14 -29 12 -9 22 -27 22 -39 0 -15 5 -20 18
-18 21 5 19 42 -3 64 -8 9 -15 20 -15 25 0 13 -27 11 -36 -3z"/>
<path d="M2204 5715 c-4 -9 -2 -21 4 -27 15 -15 44 -1 40 19 -4 23 -36 29 -44
8z"/>
<path d="M3352 5718 c-7 -7 -12 -18 -12 -25 0 -7 -4 -13 -10 -13 -5 0 -10 -9
-10 -20 0 -11 -7 -23 -15 -26 -8 -4 -15 -17 -15 -29 0 -15 -8 -26 -21 -30 -23
-8 -22 -38 1 -43 15 -2 50 48 50 73 0 8 9 19 19 25 13 6 17 17 14 30 -4 13 0
20 10 20 20 0 29 26 13 39 -9 7 -16 7 -24 -1z"/>
<path d="M4964 5717 c-3 -9 0 -25 6 -37 9 -17 14 -19 26 -9 8 7 14 22 12 33
-4 25 -36 34 -44 13z"/>
<path d="M705 5680 c-3 -11 -11 -20 -16 -20 -5 0 -9 -11 -9 -25 0 -14 -8 -29
-19 -35 -13 -6 -17 -17 -14 -30 3 -13 0 -20 -8 -20 -8 0 -25 -22 -38 -50 -13
-27 -28 -50 -32 -50 -5 0 -9 -10 -9 -23 0 -12 -9 -28 -19 -34 -13 -8 -18 -19
-14 -33 4 -14 1 -20 -11 -20 -8 0 -18 -11 -22 -25 -3 -14 -10 -25 -14 -25 -4
0 -11 -11 -14 -25 -4 -14 -11 -25 -16 -25 -6 0 -10 -10 -10 -23 0 -12 -9 -28
-21 -35 -14 -9 -18 -19 -14 -32 4 -14 2 -20 -9 -20 -9 0 -18 -11 -22 -25 -3
-14 -10 -25 -14 -25 -4 0 -11 -11 -14 -25 -4 -14 -11 -25 -16 -25 -6 0 -10
-10 -10 -23 0 -12 -9 -28 -21 -35 -14 -9 -18 -19 -14 -32 4 -14 2 -20 -9 -20
-9 0 -18 -11 -22 -25 -3 -14 -10 -25 -15 -25 -5 0 -9 -9 -9 -20 0 -10 -9 -24
-20 -30 -12 -6 -17 -16 -13 -26 3 -9 -3 -21 -16 -30 -15 -11 -20 -22 -16 -35
4 -12 2 -19 -8 -19 -7 0 -24 -21 -37 -47 -13 -27 -29 -51 -36 -56 -7 -4 -11
-14 -8 -22 4 -9 -4 -23 -17 -33 -22 -18 -20 -42 4 -42 14 0 47 54 47 76 0 8 7
17 15 20 8 4 15 16 15 28 0 12 9 27 20 34 11 7 20 17 20 22 0 6 11 28 25 50
14 22 25 45 25 52 0 7 9 19 19 25 13 8 18 19 14 33 -3 13 -1 20 8 20 8 0 25
23 38 50 13 28 28 50 32 50 5 0 9 10 9 23 0 12 9 28 21 35 14 9 18 19 14 32
-4 13 -2 20 7 20 7 0 24 23 37 50 13 28 28 50 32 50 5 0 9 10 9 23 0 12 9 28
19 34 13 8 18 19 14 33 -4 14 -1 20 11 20 8 0 18 11 22 25 3 14 10 25 14 25 4
0 11 11 14 25 4 14 11 25 16 25 6 0 10 10 10 23 0 12 9 28 21 35 14 9 18 19
14 32 -4 14 -2 20 8 20 8 0 25 23 38 50 13 28 27 50 31 50 5 0 8 9 8 21 0 11
10 29 22 38 12 10 18 23 14 29 -11 19 -34 14 -41 -8z"/>
<path d="M7581 5626 c-16 -19 0 -52 29 -61 21 -7 60 10 60 25 0 6 14 10 30 10
32 0 42 23 15 34 -21 8 -45 -3 -45 -20 0 -21 -37 -17 -58 6 -17 18 -21 19 -31
6z"/>
<path d="M7460 5555 c0 -8 7 -15 15 -15 8 0 15 7 15 15 0 8 -7 15 -15 15 -8 0
-15 -7 -15 -15z"/>
<path d="M854 5465 c-3 -14 -10 -25 -14 -25 -4 0 -11 -11 -14 -25 -4 -14 -11
-25 -16 -25 -6 0 -10 -9 -10 -21 0 -11 -10 -29 -22 -38 -12 -10 -18 -23 -14
-29 11 -19 34 -14 41 8 3 11 11 20 16 20 5 0 9 10 9 23 0 12 9 28 19 34 13 8
18 19 14 33 -4 13 -1 20 10 20 16 0 30 26 21 41 -11 18 -34 9 -40 -16z"/>
<path d="M2497 5461 c-16 -18 -22 -32 -17 -41 6 -10 15 -8 38 11 17 13 31 29
31 35 2 24 -27 21 -52 -5z"/>
<path d="M3560 5392 c0 -5 -9 -19 -20 -32 -11 -13 -20 -31 -20 -42 0 -10 -4
-18 -10 -18 -5 0 -10 -7 -10 -15 0 -8 5 -15 10 -15 17 0 50 39 50 59 0 11 9
23 21 26 24 8 22 38 -4 43 -9 2 -17 -1 -17 -6z"/>
<path d="M728 5249 c-10 -17 -18 -37 -18 -45 0 -8 -7 -17 -15 -20 -8 -4 -15
-15 -15 -26 0 -11 -10 -28 -22 -37 -12 -10 -18 -23 -14 -29 14 -24 34 -11 57
38 13 28 27 50 31 50 5 0 8 11 8 25 0 15 6 25 14 25 16 0 29 27 20 41 -10 17
-29 9 -46 -22z"/>
<path d="M8510 5200 c0 -5 -12 -13 -27 -16 -15 -4 -34 -13 -41 -21 -7 -7 -20
-13 -28 -13 -8 0 -14 -4 -14 -9 0 -5 -13 -12 -30 -16 -22 -5 -30 -12 -30 -29
0 -12 -6 -28 -12 -35 -11 -10 -9 -16 10 -31 12 -10 22 -28 22 -39 0 -12 3 -21
8 -21 4 0 18 -22 31 -50 22 -47 43 -62 55 -41 9 15 -5 41 -21 41 -10 0 -14 7
-10 20 3 13 -1 24 -14 30 -10 6 -19 17 -19 25 0 8 -9 29 -20 48 l-20 34 25 11
c14 6 25 17 25 23 0 6 9 9 20 6 14 -4 25 1 33 14 6 10 20 19 31 19 10 0 25 8
32 18 13 16 14 16 20 -5 7 -24 28 -30 40 -12 3 6 -5 22 -19 35 -27 25 -47 31
-47 14z"/>
<path d="M8564 5118 c-4 -6 2 -19 14 -29 12 -9 22 -26 22 -37 0 -11 7 -22 15
-26 8 -3 15 -15 15 -26 0 -11 4 -20 9 -20 5 0 12 -11 15 -25 4 -14 13 -25 22
-25 11 0 13 -6 9 -20 -4 -13 0 -23 14 -32 12 -7 21 -23 21 -35 0 -13 4 -23 10
-23 5 0 12 -11 16 -25 3 -14 10 -25 14 -25 4 0 11 -11 14 -25 4 -14 14 -25 22
-25 12 0 15 -6 11 -20 -4 -14 1 -25 14 -33 10 -6 19 -22 19 -34 0 -13 4 -23 8
-23 5 0 14 -11 20 -25 14 -29 27 -32 37 -8 4 12 -1 24 -14 35 -12 9 -21 26
-21 37 0 12 -4 21 -10 21 -5 0 -12 11 -16 25 -3 14 -10 25 -14 25 -4 0 -11 11
-14 25 -4 14 -13 25 -22 25 -11 0 -13 6 -9 19 4 14 0 23 -15 31 -12 6 -20 21
-20 35 0 14 -4 25 -9 25 -4 0 -19 23 -32 50 -13 28 -30 50 -38 50 -8 0 -11 7
-8 20 3 13 -1 24 -14 30 -10 6 -19 17 -19 25 0 21 -34 75 -47 75 -6 0 -15 -5
-19 -12z"/>
<path d="M608 5039 c-10 -17 -18 -37 -18 -45 0 -8 -7 -17 -15 -20 -8 -4 -15
-15 -15 -26 0 -11 -10 -28 -22 -37 -12 -10 -18 -23 -14 -29 14 -23 33 -12 54
32 12 24 29 49 37 56 7 6 11 18 8 26 -3 8 5 22 18 32 12 11 19 24 15 30 -12
20 -30 13 -48 -19z"/>
<path d="M8153 5033 c-14 -5 -18 -33 -4 -33 17 0 61 -50 61 -68 0 -11 7 -22
15 -26 8 -3 15 -15 15 -26 0 -11 4 -20 9 -20 5 0 12 -11 15 -25 4 -14 13 -25
22 -25 11 0 13 -6 9 -20 -4 -13 0 -23 14 -32 12 -7 21 -23 21 -35 0 -13 4 -23
9 -23 4 0 19 -23 32 -50 24 -51 50 -63 57 -27 3 12 -4 20 -17 24 -15 4 -20 11
-16 24 4 12 -1 23 -14 31 -12 7 -21 23 -21 35 0 13 -4 23 -10 23 -5 0 -12 11
-16 25 -3 14 -10 25 -14 25 -4 0 -11 11 -14 25 -4 14 -13 25 -21 25 -9 0 -15
9 -15 24 0 13 -7 26 -15 30 -8 3 -15 15 -15 26 0 12 -6 28 -12 36 -21 24 -59
64 -61 63 -1 0 -8 -3 -14 -6z"/>
<path d="M8063 4994 c-6 -16 11 -34 33 -34 17 0 37 27 29 40 -10 16 -55 12
-62 -6z"/>
<path d="M2573 4913 c-4 -10 -16 -25 -27 -34 -10 -9 -16 -21 -12 -27 11 -19
34 -14 41 8 3 11 11 20 16 20 12 0 12 37 -1 45 -6 3 -13 -2 -17 -12z"/>
<path d="M7773 4913 c-21 -8 -14 -30 11 -37 30 -7 56 2 56 19 0 20 -37 31 -67
18z"/>
<path d="M7664 4875 c-3 -8 -3 -19 1 -25 12 -20 75 -8 75 15 0 26 -67 35 -76
10z"/>
<path d="M8450 4855 c-13 -15 -12 -19 8 -35 12 -10 22 -28 22 -39 0 -12 4 -21
8 -21 5 0 19 -20 31 -45 12 -25 29 -49 38 -54 10 -5 14 -15 10 -25 -4 -10 1
-21 13 -28 11 -7 20 -18 20 -25 0 -19 34 -73 47 -73 23 0 26 23 5 41 -12 9
-22 26 -22 37 0 11 -7 22 -15 26 -8 3 -15 15 -15 26 0 11 -4 20 -9 20 -5 0
-12 11 -15 25 -4 14 -14 25 -22 25 -11 0 -15 6 -11 20 3 13 -1 24 -14 30 -10
6 -19 20 -19 31 0 11 -5 25 -10 32 -6 7 -16 20 -23 30 -12 18 -14 18 -27 2z"/>
<path d="M488 4829 c-10 -17 -18 -37 -18 -45 0 -8 -7 -17 -15 -20 -8 -4 -15
-15 -15 -26 0 -11 -10 -28 -22 -37 -12 -10 -18 -23 -14 -29 12 -20 35 -13 42
13 3 14 10 25 14 25 4 0 11 11 14 25 4 14 11 25 16 25 6 0 10 9 10 21 0 11 10
29 22 38 12 10 18 23 14 29 -12 20 -30 13 -48 -19z"/>
<path d="M8083 4733 c-4 -10 2 -23 15 -34 12 -9 22 -27 22 -38 0 -12 4 -21 9
-21 4 0 19 -22 32 -50 13 -27 29 -50 36 -50 7 0 13 -11 13 -25 0 -14 7 -28 15
-31 8 -4 15 -17 15 -30 0 -13 4 -24 9 -24 4 0 19 -22 32 -50 13 -27 30 -50 38
-50 8 0 11 -7 8 -20 -3 -11 0 -23 7 -28 7 -4 22 -27 35 -52 27 -52 59 -83 79
-75 7 3 16 5 18 5 11 0 2 30 -8 30 -22 1 -70 50 -64 65 3 9 -3 19 -14 25 -11
6 -20 17 -20 25 0 22 -34 75 -48 75 -9 0 -11 7 -7 20 4 13 0 23 -14 32 -12 7
-21 23 -21 35 0 13 -4 23 -10 23 -5 0 -12 11 -16 25 -3 14 -10 25 -14 25 -4 0
-11 11 -14 25 -4 14 -14 25 -22 25 -12 0 -15 6 -11 20 4 14 -1 25 -14 33 -10
6 -19 22 -19 34 0 13 -4 23 -10 23 -5 0 -12 11 -16 25 -7 28 -31 33 -41 8z"/>
<path d="M7972 4688 c-18 -18 -14 -36 8 -48 12 -6 20 -21 20 -35 0 -14 4 -25
9 -25 4 0 18 -22 31 -48 20 -42 61 -78 74 -65 8 8 -29 63 -42 63 -9 0 -11 7
-7 20 4 13 0 23 -14 32 -12 7 -21 22 -21 34 0 12 -7 24 -15 28 -8 3 -15 14
-15 25 0 25 -13 34 -28 19z"/>
<path d="M375 4630 c-3 -11 -11 -20 -16 -20 -5 0 -9 -10 -9 -23 0 -12 -9 -28
-19 -34 -13 -8 -18 -19 -14 -33 3 -13 1 -20 -8 -20 -8 0 -25 -22 -38 -50 -13
-27 -28 -50 -32 -50 -5 0 -9 -10 -9 -22 0 -13 -12 -34 -26 -47 -24 -23 -27
-23 -35 -8 -6 9 -18 17 -29 17 -10 0 -26 7 -34 16 -17 16 -61 16 -61 -1 0 -5
11 -12 25 -13 13 -2 30 -12 38 -23 7 -11 19 -16 29 -12 9 4 21 -1 29 -11 17
-24 46 -16 62 17 7 15 17 27 23 27 5 0 9 10 9 23 0 12 9 28 21 35 14 9 18 19
14 32 -4 14 -2 20 9 20 9 0 18 11 22 25 3 14 10 25 14 25 4 0 11 11 14 25 4
14 11 25 16 25 6 0 10 9 10 21 0 11 10 29 22 38 12 10 18 23 14 29 -11 19 -34
14 -41 -8z"/>
<path d="M7604 4545 c-7 -18 3 -35 22 -35 11 0 13 -6 9 -19 -4 -14 0 -23 15
-31 11 -6 20 -17 20 -25 0 -18 40 -85 50 -85 12 0 23 37 15 50 -3 5 -13 10
-22 10 -10 0 -14 6 -10 20 3 11 0 23 -7 28 -7 4 -23 28 -36 55 -24 47 -46 60
-56 32z"/>
<path d="M8894 4548 c-4 -6 2 -19 14 -29 12 -9 22 -26 22 -37 0 -11 7 -22 15
-26 8 -3 15 -13 15 -23 0 -24 -46 -67 -65 -59 -8 3 -21 -4 -29 -15 -7 -11 -20
-20 -27 -19 -27 4 -39 0 -39 -14 0 -8 5 -18 10 -21 16 -10 50 5 50 21 0 9 11
14 30 14 17 0 30 4 30 10 0 5 11 12 25 16 14 3 25 10 25 15 0 5 7 9 15 9 25 0
20 66 -5 73 -12 3 -20 14 -20 26 0 12 -4 21 -9 21 -5 0 -12 11 -15 25 -7 26
-30 33 -42 13z"/>
<path d="M20 4480 c0 -11 6 -20 13 -20 19 0 27 10 20 26 -8 21 -33 17 -33 -6z"/>
<path d="M4210 4492 c-49 -4 -65 -11 -54 -22 6 -6 138 -10 324 -11 372 -1 340
-3 340 16 0 8 -6 15 -12 16 -36 3 -568 4 -598 1z"/>
<path d="M8654 4488 c-4 -6 2 -19 14 -29 12 -9 22 -27 22 -38 0 -12 4 -21 10
-21 5 0 12 -11 16 -25 3 -14 10 -25 14 -25 4 0 11 -11 14 -25 4 -16 13 -25 26
-25 27 0 27 37 0 45 -12 4 -20 15 -20 30 0 12 -7 25 -15 29 -8 3 -15 12 -15
20 0 22 -33 76 -47 76 -6 0 -15 -5 -19 -12z"/>
<path d="M0 4412 c0 -32 4 -42 16 -42 12 0 14 7 9 33 -11 51 -25 56 -25 9z"/>
<path d="M3542 4345 c-18 -8 -31 -19 -27 -25 11 -18 40 -10 52 15 6 14 10 25
10 25 -1 -1 -17 -7 -35 -15z"/>
<path d="M4041 4276 c-16 -19 12 -40 44 -32 28 7 33 31 9 40 -25 9 -41 7 -53
-8z"/>
<path d="M4873 4283 c-20 -7 -15 -30 7 -36 27 -7 60 3 60 18 0 18 -41 29 -67
18z"/>
<path d="M3502 4264 c4 -21 22 -23 26 -1 2 10 -3 17 -13 17 -10 0 -15 -6 -13
-16z"/>
<path d="M4267 4274 c-19 -19 24 -24 219 -24 184 0 214 2 214 15 0 13 -30 15
-213 15 -118 0 -217 -3 -220 -6z"/>
<path d="M441 4216 c-9 -10 -8 -16 3 -25 10 -9 16 -8 25 3 9 10 8 16 -3 25
-10 9 -16 8 -25 -3z"/>
<path d="M8498 4223 c-25 -6 -22 -30 4 -36 29 -8 52 11 37 29 -6 8 -14 13 -18
13 -3 -1 -14 -3 -23 -6z"/>
<path d="M7996 4193 c-4 -9 2 -25 14 -38 11 -12 20 -25 20 -31 0 -16 48 -55
55 -44 3 5 -1 13 -10 16 -11 5 -15 14 -11 30 5 17 1 26 -14 34 -11 6 -20 20
-20 30 0 24 -25 27 -34 3z"/>
<path d="M4268 4187 c-50 -18 9 -26 202 -27 113 0 213 -1 223 0 19 0 24 30 5
30 -121 5 -414 3 -430 -3z"/>
<path d="M4912 4187 c-10 -11 -9 -17 2 -26 23 -19 61 -10 61 14 0 25 -46 33
-63 12z"/>
<path d="M8115 4120 c-8 -13 20 -24 41 -16 20 8 9 26 -16 26 -10 0 -22 -5 -25
-10z"/>
<path d="M4220 4072 c-12 -4 -14 -32 -2 -32 25 -1 539 -1 550 -1 6 1 12 8 12
16 0 8 -6 15 -12 16 -47 3 -540 3 -548 1z"/>
<path d="M7697 4066 c-8 -20 16 -39 30 -25 14 14 6 39 -12 39 -7 0 -15 -6 -18
-14z"/>
<path d="M3290 4055 c0 -8 9 -15 20 -15 11 0 20 7 20 15 0 8 -9 15 -20 15 -11
0 -20 -7 -20 -15z"/>
<path d="M3993 3653 c-22 -8 -14 -32 13 -39 29 -8 49 7 41 30 -6 16 -29 20
-54 9z"/>
<path d="M4190 3532 c0 -5 -9 -20 -20 -32 -24 -27 -23 -53 3 -58 12 -3 17 3
17 22 0 16 7 27 21 31 24 8 22 38 -4 43 -9 2 -17 -1 -17 -6z"/>
<path d="M4607 3533 c-2 -5 -4 -26 -3 -48 l2 -40 94 -6 c107 -6 122 -4 118 20
-3 14 -16 15 -85 13 -92 -4 -108 0 -93 27 12 24 -20 57 -33 34z"/>
<path d="M4022 3203 c-27 -41 -25 -68 3 -68 16 0 20 6 18 27 -1 19 4 29 18 33
12 4 19 14 17 23 -6 30 -32 22 -56 -15z"/>
<path d="M4490 3220 c0 -5 -7 -10 -15 -10 -20 0 -30 -46 -15 -65 17 -20 40 -2
40 31 0 12 5 26 10 29 15 9 12 25 -5 25 -8 0 -15 -4 -15 -10z"/>
<path d="M4745 2920 c-17 -6 -14 -9 17 -15 38 -7 62 0 53 16 -7 11 -42 11 -70
-1z"/>
<path d="M4244 2445 c-8 -32 1 -55 21 -55 22 0 30 27 17 56 -15 31 -30 31 -38
-1z"/>
<path d="M4220 1985 c0 -10 10 -15 30 -15 20 0 30 5 30 15 0 10 -10 15 -30 15
-20 0 -30 -5 -30 -15z"/>
<path d="M4225 940 c-8 -13 20 -24 41 -16 20 8 9 26 -16 26 -10 0 -22 -5 -25
-10z"/>
</g>
</svg>
