<?xml version="1.0" standalone="no"?>
<!DOCTYPE svg PUBLIC "-//W3C//DTD SVG 20010904//EN"
 "http://www.w3.org/TR/2001/REC-SVG-20010904/DTD/svg10.dtd">
<svg version="1.0" xmlns="http://www.w3.org/2000/svg"
 width="900.000000pt" height="222.000000pt" viewBox="0 0 900.000000 222.000000"
 preserveAspectRatio="xMidYMid meet">
<metadata>
Created by potrace 1.10, written by Peter Selinger 2001-2011
</metadata>
<g transform="translate(0.000000,222.000000) scale(0.100000,-0.100000)"
fill="#ffffff" stroke="none">
<path d="M252 2110 c-12 -9 -8 -2030 3 -2030 676 -2 2289 1 2292 3 5 5 5 2019
0 2024 -6 6 -2288 9 -2295 3z m792 -106 c38 -24 51 -97 36 -196 -14 -86 -9
-201 11 -258 33 -96 55 -140 97 -196 43 -56 140 -140 199 -171 14 -7 42 -21
62 -32 38 -19 90 -40 153 -60 112 -36 401 -12 450 37 7 7 22 12 34 12 12 0 24
7 28 15 3 8 14 15 25 15 11 0 24 6 28 13 4 8 16 16 26 20 9 3 17 11 17 18 0
14 -61 5 -165 -26 -115 -33 -156 -37 -291 -25 -105 10 -129 16 -203 51 -46 21
-88 39 -94 39 -20 0 -134 94 -172 143 -61 78 -86 146 -95 262 -5 74 0 257 10
302 0 2 15 9 33 16 25 11 142 14 532 16 546 2 640 -2 649 -28 3 -9 10 -29 15
-44 11 -34 18 -1282 7 -1314 -10 -32 -31 -29 -79 12 -23 20 -52 38 -66 42 -25
6 -72 -13 -128 -54 -17 -13 -35 -23 -38 -23 -4 0 -33 -16 -64 -35 -59 -37
-124 -53 -239 -60 l-63 -4 -71 71 c-86 86 -155 170 -168 204 -15 40 -12 111 6
128 8 9 30 16 47 17 18 0 79 2 137 4 157 4 231 19 336 66 23 11 44 19 48 19
21 0 155 123 156 143 0 13 -37 7 -50 -8 -7 -8 -18 -15 -25 -15 -7 0 -18 -7
-25 -15 -7 -8 -20 -15 -30 -15 -10 0 -23 -7 -30 -15 -7 -8 -22 -15 -34 -15
-11 0 -30 -7 -40 -15 -11 -8 -34 -15 -51 -15 -17 0 -36 -5 -42 -11 -16 -16
-225 -23 -293 -11 -165 30 -332 112 -449 218 -62 56 -180 209 -197 254 -3 8
-11 29 -18 45 -30 68 -40 127 -43 260 -3 114 -1 146 12 176 25 55 67 71 109
43z m-261 -28 c27 -18 27 -19 26 -130 -1 -200 34 -332 134 -496 27 -44 38 -57
112 -140 48 -53 65 -81 85 -141 13 -41 25 -87 26 -104 1 -36 -21 -111 -39
-130 -6 -7 -25 -30 -42 -51 -47 -60 -178 -190 -204 -203 -13 -7 -62 -21 -110
-31 -339 -71 -347 -73 -374 -92 -14 -11 -19 -10 -27 2 -10 16 -13 249 -9 725
2 165 2 318 2 340 -4 142 -3 355 2 386 13 74 48 86 255 84 113 -1 139 -4 163
-19z m433 -861 c27 -13 79 -60 114 -101 10 -12 14 -38 13 -76 -2 -101 -63
-187 -234 -333 -30 -25 -67 -53 -83 -61 -38 -19 -76 -18 -76 1 0 8 3 15 8 15
29 0 262 233 289 290 45 96 40 132 -34 208 -29 30 -53 59 -53 64 0 12 23 10
56 -7z m258 -145 c-9 -16 -20 -30 -25 -30 -5 0 -9 -8 -9 -18 0 -10 -7 -27 -15
-38 -29 -38 -12 -132 39 -212 25 -39 91 -104 164 -161 23 -18 42 -39 42 -47 0
-10 13 -14 43 -14 23 -1 53 -7 67 -15 35 -20 220 -20 278 0 63 22 81 34 154
103 56 52 72 62 90 56 33 -9 33 -10 31 -67 -1 -49 -4 -55 -51 -97 -75 -68
-129 -83 -277 -76 -168 7 -272 19 -287 34 -6 6 -37 12 -68 12 -30 0 -86 7
-125 16 -102 22 -714 22 -800 0 -34 -9 -101 -16 -156 -16 -97 0 -129 -5 -129
-20 0 -19 79 -23 430 -21 206 1 481 -3 610 -9 219 -11 241 -14 320 -42 129
-45 156 -51 270 -52 96 -1 110 1 163 27 32 16 84 53 116 83 32 30 62 54 65 54
17 0 34 -70 31 -125 -4 -73 -10 -89 -39 -103 -15 -7 -354 -10 -1014 -11 -1152
-2 -1032 -15 -1032 114 0 64 3 77 20 87 12 8 20 24 20 40 l0 28 86 0 c49 0 95
5 107 12 12 7 76 16 142 20 66 3 199 12 295 18 173 11 338 7 369 -9 25 -13
171 -24 171 -13 0 5 -17 21 -37 34 -63 42 -124 110 -150 167 -22 47 -25 65
-21 130 7 109 54 191 109 191 16 0 16 -3 3 -30z"/>
<path d="M4773 1913 c-9 -3 -13 -26 -13 -64 0 -59 -11 -74 -37 -48 -16 16 -67
2 -93 -26 -40 -43 -40 -156 1 -205 16 -19 29 -24 62 -23 23 1 61 3 84 3 l41 2
4 171 c2 95 -1 178 -5 185 -10 12 -23 14 -44 5z m-23 -180 c26 -33 22 -99 -6
-120 -26 -19 -62 -16 -74 6 -15 29 -12 93 6 119 21 30 48 28 74 -5z"/>
<path d="M3502 1898 c-30 -30 0 -78 37 -58 26 14 27 46 2 60 -24 13 -24 13
-39 -2z"/>
<path d="M2735 1884 c-6 -2 -10 -66 -9 -165 1 -136 3 -163 17 -170 8 -5 23 -6
31 -3 14 6 16 27 14 173 -3 158 -4 166 -23 168 -11 1 -24 0 -30 -3z"/>
<path d="M3340 1851 c-5 -11 -10 -25 -10 -31 0 -7 -10 -20 -22 -30 l-23 -18
28 -13 c26 -12 27 -15 27 -94 0 -98 11 -117 66 -119 34 -1 39 2 42 22 3 18 -3
26 -27 35 -30 11 -31 13 -31 79 0 55 3 68 16 68 8 0 24 5 35 11 16 8 18 13 8
25 -6 8 -22 14 -35 14 -17 0 -24 6 -24 19 0 49 -30 68 -50 32z"/>
<path d="M4066 1854 c-3 -9 -6 -24 -6 -34 0 -10 -9 -22 -20 -25 -27 -8 -25
-19 5 -39 23 -15 24 -20 19 -78 -4 -36 -1 -75 5 -91 21 -54 111 -64 111 -12 0
18 -5 25 -19 25 -36 0 -51 27 -51 90 l0 58 37 9 c48 11 53 30 11 41 -21 5 -34
15 -37 28 -7 41 -43 59 -55 28z"/>
<path d="M3620 1837 c0 -14 -7 -30 -15 -37 -8 -7 -15 -18 -15 -25 0 -7 7 -15
15 -19 12 -4 15 -24 15 -90 0 -79 2 -86 26 -105 42 -33 94 -25 94 14 0 18 -6
24 -27 27 -27 3 -28 6 -33 71 -5 73 1 87 38 87 32 0 26 32 -8 40 -15 4 -26 15
-30 30 -4 18 -14 26 -33 28 -23 3 -27 0 -27 -21z"/>
<path d="M2956 1803 c-3 -4 -25 -7 -49 -7 l-42 -1 -6 -115 c-7 -121 0 -150 35
-137 13 5 16 23 16 90 0 70 3 87 20 105 49 52 78 15 82 -103 3 -82 5 -90 23
-90 18 0 20 8 23 85 4 117 -3 147 -38 165 -31 16 -53 19 -64 8z"/>
<path d="M3160 1803 c-32 -12 -50 -37 -50 -69 0 -34 16 -51 79 -86 36 -20 39
-33 10 -49 -16 -8 -27 -8 -45 1 -32 18 -57 6 -48 -22 9 -30 7 -29 52 -35 112
-15 155 103 54 152 -32 15 -42 25 -40 40 3 17 10 20 46 17 37 -2 42 0 42 18 0
30 -57 49 -100 33z"/>
<path d="M3790 1795 c-19 -23 -13 -172 8 -210 23 -39 70 -53 110 -32 21 10 34
11 41 4 5 -5 17 -7 25 -4 13 5 16 26 16 115 0 119 -13 159 -44 133 -12 -10
-16 -32 -16 -92 0 -82 -12 -109 -50 -109 -41 0 -53 28 -46 108 5 51 3 78 -5
88 -15 18 -23 18 -39 -1z"/>
<path d="M4280 1799 c-51 -21 -65 -48 -65 -126 0 -66 3 -75 28 -100 23 -24 36
-28 81 -28 44 0 59 5 80 24 48 45 57 154 16 201 -32 36 -90 49 -140 29z m89
-65 c48 -61 -2 -160 -66 -131 -47 21 -54 96 -13 137 27 27 55 25 79 -6z"/>
<path d="M4935 1801 c-46 -19 -60 -49 -60 -127 0 -66 3 -76 27 -100 38 -38
126 -46 157 -15 12 12 20 28 18 34 -5 16 -47 21 -60 8 -17 -17 -44 -13 -73 12
-19 17 -25 29 -21 41 6 15 15 17 57 11 72 -10 110 1 110 31 0 78 -83 134 -155
105z m80 -57 c25 -26 12 -39 -43 -42 -56 -3 -65 7 -35 40 20 22 56 23 78 2z"/>
<path d="M3507 1793 c-11 -10 -8 -241 3 -248 5 -3 18 -1 29 5 18 9 19 18 14
122 -5 101 -12 127 -34 128 -3 0 -9 -3 -12 -7z"/>
<path d="M5975 1282 c-15 -11 -55 -70 -55 -81 0 -12 21 -19 43 -13 28 7 69 73
55 89 -12 14 -28 16 -43 5z"/>
<path d="M8080 1284 c-17 -5 -50 -58 -50 -80 0 -8 10 -14 25 -14 31 0 80 67
63 87 -11 13 -12 14 -38 7z"/>
<path d="M3407 1273 c-4 -3 -7 -33 -7 -66 0 -50 -2 -58 -16 -53 -68 26 -108
12 -134 -46 -24 -53 -25 -86 -3 -139 21 -54 67 -76 116 -56 24 10 37 11 49 3
11 -7 21 -7 27 -1 11 11 17 337 7 354 -8 12 -29 15 -39 4z m-29 -172 c34 -29
31 -102 -4 -130 -33 -26 -39 -26 -64 -1 -30 30 -28 112 3 133 29 21 37 20 65
-2z"/>
<path d="M7902 1257 c-13 -14 -22 -36 -22 -54 0 -20 -7 -35 -22 -45 l-21 -14
22 -21 c20 -19 23 -30 21 -105 -3 -114 -4 -110 28 -106 27 3 27 3 29 88 1 47
2 91 2 98 1 7 12 17 26 22 33 12 33 40 1 40 -14 0 -28 4 -31 10 -11 18 15 50
40 50 21 0 25 5 25 30 0 28 -2 30 -38 30 -27 0 -45 -7 -60 -23z"/>
<path d="M3513 1244 c-8 -22 9 -48 34 -52 24 -4 48 39 30 57 -17 17 -57 13
-64 -5z"/>
<path d="M8343 1253 c-7 -2 -13 -12 -13 -22 0 -44 65 -58 76 -17 3 14 3 30 -1
35 -6 11 -40 13 -62 4z"/>
<path d="M2735 1238 c-2 -7 -5 -81 -7 -165 -4 -149 -4 -152 18 -162 34 -15 48
8 41 69 -7 59 -1 80 22 80 24 0 61 -37 61 -60 0 -10 4 -21 9 -24 4 -3 11 -19
14 -36 6 -25 11 -30 37 -30 39 0 39 20 0 93 -35 67 -36 77 -10 100 36 31 24
103 -21 130 -37 21 -157 24 -164 5z m118 -47 c56 -22 28 -95 -34 -89 -30 3
-34 6 -37 36 -5 54 20 72 71 53z"/>
<path d="M6810 1178 c-12 -40 -27 -77 -31 -82 -5 -6 -9 -16 -9 -24 0 -13 -31
-90 -51 -126 -12 -21 -4 -33 26 -38 15 -2 26 8 44 45 l23 47 53 0 c57 0 63 -5
80 -55 7 -22 17 -31 38 -33 32 -4 36 17 13 70 -8 18 -21 49 -30 70 -9 20 -16
45 -16 56 0 12 -4 23 -9 26 -5 3 -12 18 -15 33 -16 68 -27 83 -60 83 -31 0
-33 -2 -56 -72z m80 -65 c0 -12 5 -25 10 -28 6 -3 10 -15 10 -26 0 -16 -7 -19
-39 -19 -22 0 -42 4 -45 9 -8 12 13 72 32 94 18 20 32 7 32 -30z"/>
<path d="M4367 1223 c-4 -3 -7 -16 -7 -28 0 -13 -10 -30 -22 -38 l-23 -16 23
-16 c19 -14 22 -25 22 -79 0 -102 7 -124 47 -137 28 -9 38 -8 59 6 25 16 24
35 -2 35 -32 0 -54 38 -54 96 0 53 1 55 35 70 45 19 45 40 -1 48 -27 6 -34 11
-30 23 11 27 -27 56 -47 36z"/>
<path d="M7267 1223 c-13 -3 -17 -11 -14 -24 3 -13 -2 -24 -14 -32 -24 -15
-24 -29 1 -52 16 -15 20 -31 20 -90 0 -55 4 -78 18 -93 23 -28 62 -36 86 -19
25 18 14 47 -18 47 -29 0 -36 16 -36 83 0 59 11 83 34 74 10 -4 20 1 26 14 11
20 7 24 -35 31 -12 2 -20 11 -20 23 -1 23 -13 46 -23 44 -4 -1 -15 -3 -25 -6z"/>
<path d="M3038 1164 c-19 -6 -50 -49 -41 -58 10 -10 51 -7 58 4 10 17 51 11
69 -9 23 -25 13 -41 -24 -41 -91 0 -141 -73 -89 -128 18 -20 28 -22 95 -19 40
2 76 6 79 8 9 10 -8 210 -20 225 -12 17 -93 28 -127 18z m99 -161 c8 -21 -33
-55 -61 -51 -27 4 -33 38 -10 55 25 18 63 16 71 -4z"/>
<path d="M3683 1160 c-59 -24 -85 -151 -43 -210 27 -38 78 -54 125 -41 45 12
71 43 85 101 26 107 -67 190 -167 150z m96 -66 c29 -37 27 -89 -4 -119 -29
-30 -45 -31 -75 -7 -17 14 -22 28 -22 67 0 39 5 53 22 67 31 25 55 22 79 -8z"/>
<path d="M3914 1147 c-16 -14 -24 -29 -20 -35 9 -15 52 -16 61 -2 9 15 51 12
65 -5 17 -21 5 -45 -23 -45 -38 0 -86 -20 -97 -40 -18 -34 -12 -78 14 -95 13
-9 32 -16 43 -16 63 1 113 7 120 16 5 6 7 54 3 108 -4 88 -8 101 -29 118 -34
28 -102 26 -137 -4z m119 -141 c7 -19 -37 -59 -60 -54 -25 5 -31 55 -6 61 36
9 61 7 66 -7z"/>
<path d="M4165 1145 c-46 -45 -25 -99 51 -131 66 -28 27 -80 -41 -54 -35 13
-56 -1 -39 -27 28 -45 131 -32 162 20 15 25 15 30 2 53 -8 15 -35 37 -60 50
-25 13 -45 29 -44 34 1 6 2 15 3 21 0 8 15 9 41 5 31 -5 42 -3 46 9 18 47 -79
63 -121 20z"/>
<path d="M4567 1163 l-48 -4 3 -122 3 -122 27 -3 27 -3 3 93 3 92 40 12 c25 7
41 18 43 29 4 19 -14 36 -38 33 -8 -1 -37 -3 -63 -5z"/>
<path d="M4755 1161 c-75 -33 -95 -171 -33 -228 31 -28 71 -36 116 -23 56 16
77 52 77 132 0 60 -3 71 -26 94 -29 28 -97 41 -134 25z m70 -47 c25 -10 47
-62 40 -93 -7 -33 -40 -71 -61 -71 -8 0 -26 12 -39 26 -31 33 -33 82 -4 118
21 26 35 31 64 20z"/>
<path d="M5057 1163 c-4 -3 -25 -6 -47 -5 l-40 2 0 -126 0 -125 28 3 c27 3 27
4 30 88 2 74 6 87 25 102 27 22 32 22 51 2 12 -12 16 -37 16 -105 l0 -89 30 0
30 0 0 90 c0 129 -23 169 -96 170 -11 0 -24 -3 -27 -7z"/>
<path d="M5295 1161 c-46 -19 -60 -49 -60 -126 0 -84 15 -109 74 -125 49 -13
100 3 126 38 15 21 20 43 20 95 0 65 -2 70 -33 98 -33 30 -83 38 -127 20z m74
-51 c25 -13 45 -64 37 -95 -8 -31 -40 -65 -61 -65 -9 0 -27 12 -40 26 -33 36
-33 87 0 119 26 27 37 30 64 15z"/>
<path d="M5563 1163 l-53 -4 0 -125 0 -124 30 0 30 0 0 89 c0 84 1 90 26 106
24 16 27 16 46 -2 18 -16 20 -28 16 -103 l-3 -85 30 0 30 0 1 80 c0 86 4 99
34 115 15 8 24 6 40 -10 19 -19 21 -28 14 -100 -6 -71 -5 -80 11 -86 38 -15
50 8 46 92 -1 43 -9 93 -16 111 -23 55 -73 68 -120 31 -26 -20 -29 -20 -40 -5
-14 20 -50 26 -122 20z"/>
<path d="M6070 1164 c-20 -6 -43 -42 -35 -54 8 -14 31 -12 55 2 27 17 75 -1
75 -27 0 -16 -9 -21 -41 -25 -87 -12 -124 -64 -84 -120 19 -27 44 -37 75 -30
6 1 33 3 60 4 l50 1 3 70 c6 136 -21 186 -100 184 -24 -1 -50 -3 -58 -5z m97
-159 c8 -24 -27 -56 -56 -53 -36 4 -42 44 -9 57 35 14 58 13 65 -4z"/>
<path d="M6377 1164 c-11 -11 -8 -36 6 -64 8 -14 18 -39 25 -55 6 -17 20 -54
31 -84 18 -48 19 -56 6 -75 -18 -25 -19 -63 -2 -69 22 -7 57 15 57 37 0 12 7
34 15 50 8 15 15 34 15 41 0 11 19 60 56 142 18 40 18 72 0 79 -23 9 -56 -15
-56 -40 0 -25 -28 -116 -40 -129 -4 -5 -18 24 -29 65 -12 40 -26 80 -30 88 -9
16 -43 25 -54 14z"/>
<path d="M7066 1149 c-22 -17 -26 -28 -24 -57 2 -29 10 -41 38 -59 77 -49 77
-49 58 -69 -15 -16 -22 -16 -51 -6 -46 17 -49 16 -45 -15 4 -35 50 -49 104
-31 74 25 72 104 -3 142 -31 15 -43 27 -43 44 0 16 6 22 23 22 13 0 28 -5 34
-11 15 -15 33 -3 33 21 0 42 -80 54 -124 19z"/>
<path d="M7496 1163 c-4 -4 -22 -8 -39 -8 l-32 0 0 -120 0 -120 25 0 c24 0 25
2 22 64 -4 82 11 119 52 129 24 6 31 14 31 33 0 18 -6 25 -25 27 -14 2 -29 -1
-34 -5z"/>
<path d="M7653 1160 c-12 -5 -33 -26 -47 -47 -52 -75 -24 -182 53 -203 88 -23
161 32 161 122 0 103 -78 164 -167 128z m82 -56 c34 -22 36 -96 3 -131 -26
-28 -38 -29 -72 -2 -35 27 -37 98 -4 129 26 24 41 25 73 4z"/>
<path d="M8155 1145 c-34 -33 -32 -70 6 -106 17 -16 39 -29 49 -29 23 0 34
-28 18 -47 -11 -14 -27 -14 -85 3 -20 5 -23 3 -23 -19 0 -22 6 -28 38 -36 53
-15 103 1 125 39 16 26 16 32 3 58 -8 15 -35 38 -61 51 -32 16 -45 28 -41 38
3 8 6 17 6 19 0 8 49 4 55 -6 9 -14 35 0 35 19 0 47 -84 58 -125 16z"/>
<path d="M8510 1164 c-8 -3 -25 -19 -37 -37 -31 -44 -32 -150 -3 -185 28 -34
70 -45 119 -32 36 10 41 14 41 40 0 23 -5 30 -20 30 -11 0 -20 -4 -20 -10 0
-16 -56 -11 -71 7 -23 26 -18 99 8 125 l22 22 36 -20 c30 -16 37 -17 44 -5 29
46 -43 85 -119 65z"/>
<path d="M8709 1163 c-9 -2 -21 -15 -28 -29 -14 -32 6 -42 50 -24 23 10 36 10
55 1 40 -18 27 -45 -24 -52 -86 -11 -123 -68 -80 -122 24 -29 34 -31 133 -25
l50 3 3 90 c3 98 -13 149 -52 159 -23 6 -83 6 -107 -1z m98 -158 c8 -24 -27
-56 -56 -53 -36 4 -42 44 -9 57 35 14 58 13 65 -4z"/>
<path d="M3524 1147 c-2 -7 -3 -62 -2 -123 3 -101 4 -109 23 -109 19 0 20 8
23 123 3 117 2 122 -18 122 -11 0 -23 -6 -26 -13z"/>
<path d="M5930 1156 c-3 -2 -5 -58 -5 -123 l1 -118 24 0 25 0 0 120 c0 113 -1
120 -20 123 -12 2 -23 1 -25 -2z"/>
<path d="M8028 1076 c-4 -174 -6 -161 22 -161 l25 0 0 120 c0 117 -1 120 -22
123 -22 3 -23 0 -25 -82z"/>
<path d="M8350 1156 c-4 -3 -4 -193 -1 -239 1 -5 11 -7 24 -5 21 3 22 6 22
123 0 113 -1 120 -20 123 -12 2 -23 1 -25 -2z"/>
<path d="M2697 403 c-4 -3 -7 -37 -7 -75 0 -55 4 -75 22 -98 24 -32 62 -40 72
-15 4 13 10 14 26 5 24 -13 28 -6 32 55 4 54 22 51 28 -4 5 -43 23 -65 32 -39
2 7 2 37 0 67 l-4 53 -38 -5 c-40 -5 -50 3 -50 44 0 10 -7 19 -15 19 -12 0
-15 -15 -15 -79 0 -84 -9 -104 -33 -71 -9 14 -12 36 -9 70 5 58 -17 98 -41 73z"/>
<path d="M2936 401 c-3 -5 -5 -26 -5 -47 1 -22 -1 -57 -5 -80 -5 -31 -3 -44 8
-53 13 -11 17 -10 22 5 15 48 17 49 27 17 13 -42 31 -42 43 -1 l9 31 25 -37
c19 -28 31 -36 50 -34 33 4 35 42 3 46 -15 2 -23 10 -23 23 0 15 5 19 19 14
24 -7 42 15 34 43 -7 27 -57 31 -67 6 -6 -16 -8 -16 -25 0 -22 20 -31 12 -31
-26 0 -38 -24 -32 -28 6 -2 15 -10 30 -18 33 -8 3 -14 16 -14 28 0 25 -15 41
-24 26z"/>
<path d="M3326 403 c-3 -3 -6 -17 -6 -30 0 -24 -18 -28 -107 -23 -39 2 -54
-22 -49 -78 6 -75 36 -82 36 -8 0 23 3 45 6 49 7 7 74 -61 74 -74 0 -13 -14
-11 -28 3 -9 9 -12 7 -12 -10 0 -27 26 -39 51 -24 10 7 26 12 34 12 9 0 20 12
26 28 l11 27 13 -31 c16 -39 38 -48 82 -32 27 10 36 10 42 0 9 -15 60 -6 67
12 2 6 1 36 -3 66 -7 50 -11 55 -36 58 -31 4 -39 -21 -10 -32 15 -6 15 -8 1
-23 -24 -23 -50 -9 -47 24 4 60 -1 93 -15 93 -8 0 -16 -12 -18 -27 -2 -19 -10
-29 -27 -33 -13 -3 -28 -18 -36 -35 l-13 -30 -9 25 c-6 14 -8 39 -6 56 5 30
-7 51 -21 37z m-6 -98 c0 -9 -9 -15 -25 -15 -16 0 -25 6 -25 15 0 9 9 15 25
15 16 0 25 -6 25 -15z m118 -19 c5 -37 -13 -55 -27 -29 -12 23 -3 65 13 60 6
-2 12 -16 14 -31z m82 -41 c0 -8 -4 -15 -10 -15 -5 0 -10 7 -10 15 0 8 5 15
10 15 6 0 10 -7 10 -15z"/>
<path d="M3650 386 c0 -17 -9 -29 -27 -38 -25 -12 -28 -20 -31 -67 -3 -55 12
-80 49 -81 37 0 46 39 40 188 -1 31 -31 29 -31 -2z m0 -96 c0 -28 -11 -51 -21
-44 -10 6 -12 57 -3 67 11 10 24 -3 24 -23z"/>
<path d="M3836 395 c-3 -9 -6 -25 -6 -36 0 -30 -20 -22 -26 11 -5 21 -12 30
-25 30 -17 0 -19 -8 -18 -67 1 -38 0 -72 -1 -78 -5 -21 1 -35 15 -35 8 0 17
11 21 25 8 33 17 32 31 -6 10 -25 15 -30 26 -21 10 9 13 34 11 93 -2 80 -15
117 -28 84z"/>
<path d="M4075 395 c-3 -8 -7 -22 -10 -30 -2 -8 -16 -15 -30 -15 -14 0 -28 -7
-31 -15 -4 -8 -14 -15 -24 -15 -10 0 -20 7 -24 15 -6 17 -66 21 -66 4 0 -5 13
-15 30 -20 34 -12 31 -29 -6 -29 -23 0 -25 -3 -22 -42 3 -41 4 -43 38 -44 19
-1 42 5 52 13 14 13 17 13 26 -3 14 -25 79 -11 94 22 l11 24 18 -30 c21 -34
46 -39 64 -13 10 14 16 15 27 5 21 -17 28 -5 28 45 0 32 4 43 15 43 11 0 15
-11 15 -39 0 -44 13 -59 35 -41 11 9 16 7 24 -8 8 -14 21 -20 51 -20 64 -1 75
17 75 118 0 73 -2 85 -17 88 -15 3 -18 -4 -18 -37 0 -41 -16 -64 -26 -37 -8
20 -64 22 -64 2 0 -8 11 -17 25 -20 33 -8 32 -26 0 -26 -14 0 -28 -7 -31 -15
-12 -30 -24 -14 -24 30 l0 45 -38 0 c-21 0 -43 -5 -50 -12 -9 -9 -16 -8 -29 3
-24 21 -52 13 -64 -18 -15 -39 -33 -13 -30 42 2 43 -14 63 -24 30z m-7 -113
c4 -36 -18 -53 -43 -32 -18 15 -20 56 -2 63 27 12 42 1 45 -31z m122 -1 c0
-34 -9 -44 -27 -30 -16 14 -17 41 -1 57 16 16 28 5 28 -27z"/>
<path d="M4567 381 c-9 -16 -17 -42 -17 -58 0 -16 -7 -38 -15 -49 -15 -20 -20
-56 -8 -67 3 -4 21 10 39 31 34 39 32 39 49 -14 4 -14 8 -14 21 -3 14 11 18
11 29 -4 15 -21 34 -22 63 -1 21 14 25 14 48 -1 19 -12 29 -14 39 -5 10 8 19
8 34 -2 18 -11 24 -10 43 9 17 17 21 32 19 65 -1 23 -7 48 -14 56 -6 8 -11 26
-12 40 0 35 -29 36 -33 2 -2 -14 -10 -32 -17 -40 -8 -8 -15 -35 -17 -59 -2
-25 -9 -46 -15 -49 -20 -6 -17 87 2 94 12 5 12 9 -3 30 -9 13 -21 23 -27 24
-17 0 -43 -56 -38 -82 4 -22 0 -26 -27 -32 -39 -7 -50 -2 -43 24 3 11 2 27 -1
36 -5 13 -9 14 -21 4 -17 -15 -38 -3 -31 17 8 21 -4 63 -18 63 -6 0 -19 -13
-29 -29z m311 -98 c-2 -21 -7 -38 -13 -38 -5 0 -11 17 -13 38 -3 29 0 37 13
37 13 0 16 -8 13 -37z"/>
<path d="M5536 386 c-3 -14 -16 -28 -28 -32 -29 -9 -57 -44 -58 -72 0 -27 38
-82 57 -82 8 0 28 7 45 16 29 15 32 15 44 -1 20 -26 58 -16 62 18 2 19 -1 27
-12 27 -9 0 -16 -4 -16 -10 0 -5 -4 -10 -10 -10 -5 0 -10 14 -10 30 0 28 2 29
20 18 29 -19 48 2 32 37 -12 26 -54 35 -67 15 -13 -20 -24 -9 -27 27 -4 43
-23 55 -32 19z m4 -101 c0 -20 -5 -25 -25 -25 -27 0 -33 18 -13 38 20 20 38
14 38 -13z"/>
<path d="M5746 401 c-3 -5 -5 -38 -4 -73 1 -35 -1 -69 -5 -75 -9 -14 18 -48
31 -39 7 4 12 15 12 24 0 20 44 65 54 55 3 -3 6 -24 6 -45 0 -43 12 -48 34
-16 l15 21 12 -26 c8 -18 20 -27 36 -27 28 0 29 14 3 48 -24 30 -14 42 38 42
33 0 44 -16 17 -26 -18 -7 -19 -26 -3 -42 9 -9 16 -8 30 5 20 17 29 13 41 -22
2 -5 18 0 35 13 31 22 31 22 42 2 6 -12 21 -20 35 -20 37 0 33 34 -5 50 -19 8
-30 20 -30 32 0 12 11 23 30 29 30 11 39 32 20 44 -16 10 -50 -5 -50 -21 0 -8
-6 -14 -14 -14 -10 0 -16 13 -18 42 -4 49 -28 66 -28 19 0 -16 -5 -33 -10 -36
-8 -5 -7 -11 0 -20 14 -17 9 -67 -7 -73 -9 -2 -13 8 -13 35 0 28 -6 42 -22 52
-19 12 -23 11 -33 -3 -26 -35 -41 -14 -35 52 1 14 -4 22 -14 22 -9 0 -16 -5
-16 -12 0 -22 -42 -98 -51 -92 -5 3 -9 27 -9 55 0 60 -18 65 -46 14 -10 -19
-21 -35 -25 -35 -3 0 -10 14 -15 32 -10 32 -28 46 -38 29z"/>
<path d="M5323 353 c-21 -8 -15 -33 7 -33 11 0 20 -7 20 -15 0 -29 -49 -18
-68 15 -15 27 -22 30 -69 30 -42 0 -54 -4 -63 -20 -6 -11 -15 -20 -20 -20 -6
0 -10 9 -10 20 0 25 -47 28 -64 4 -12 -15 -46 -10 -46 7 0 5 -16 9 -35 9 l-36
0 3 -65 c3 -75 21 -87 28 -20 6 55 24 60 28 8 4 -55 10 -69 24 -55 17 17 38
15 38 -3 0 -27 46 -18 59 12 l13 27 17 -22 c22 -30 31 -19 31 35 0 32 4 43 15
43 11 0 15 -11 15 -39 0 -22 5 -43 10 -46 19 -12 37 13 32 46 -4 24 -1 30 9
27 8 -3 13 -17 12 -32 -3 -46 87 -87 116 -53 18 22 2 115 -23 132 -22 16 -24
16 -43 8z m-216 -59 c14 -14 14 -16 -3 -29 -30 -23 -44 -18 -44 15 0 34 21 40
47 14z"/>
<path d="M6223 334 c-30 -33 -29 -76 1 -108 28 -31 49 -33 76 -6 34 34 36 72
5 108 -32 39 -53 40 -82 6z m57 -55 c0 -12 -7 -19 -19 -19 -27 0 -34 15 -15
34 19 19 34 12 34 -15z"/>
</g>
</svg>
