<?xml version="1.0" standalone="no"?>
<!DOCTYPE svg PUBLIC "-//W3C//DTD SVG 20010904//EN"
 "http://www.w3.org/TR/2001/REC-SVG-20010904/DTD/svg10.dtd">
<svg version="1.0" xmlns="http://www.w3.org/2000/svg"
 width="225.000000pt" height="225.000000pt" viewBox="0 0 225.000000 225.000000"
 preserveAspectRatio="xMidYMid meet">
<metadata>
Created by potrace 1.10, written by Peter Selinger 2001-2011
</metadata>
<g transform="translate(0.000000,225.000000) scale(0.100000,-0.100000)"
fill="#ffffff" stroke="none">
<path d="M640 2216 c0 -108 57 -272 136 -392 185 -281 536 -451 853 -414 161
19 325 87 426 176 29 26 32 30 10 16 -152 -99 -344 -150 -523 -139 -117 7
-190 26 -299 77 -178 83 -301 192 -367 324 -49 97 -66 172 -66 288 l0 98 -85
0 -85 0 0 -34z"/>
<path d="M975 1469 c74 -82 80 -146 25 -256 -32 -63 -94 -131 -235 -262 -78
-72 -85 -80 -49 -62 55 27 183 129 265 210 149 150 157 291 22 380 -63 42 -73
39 -28 -10z"/>
<path d="M1197 1351 c-27 -31 -49 -68 -57 -96 -27 -96 7 -224 83 -311 62 -70
227 -171 227 -137 0 4 -25 28 -56 53 -96 76 -181 175 -205 238 -35 93 -19 188
47 280 28 38 8 24 -39 -27z"/>
<path d="M2047 871 c-113 -102 -170 -122 -350 -122 -79 0 -159 7 -227 20 -305
57 -290 56 -590 55 -258 -1 -309 -4 -535 -33 -242 -31 -338 -51 -185 -37 433
38 796 45 1084 21 189 -15 228 -21 426 -61 161 -33 307 -31 384 6 90 43 135
108 124 181 -2 19 -10 25 -34 27 -26 3 -42 -7 -97 -57z"/>
<path d="M1712 320 c-141 -176 -150 -190 -125 -190 22 1 38 14 78 65 l50 64
137 0 136 1 52 -65 c51 -64 52 -65 101 -65 27 0 49 3 49 8 -1 19 -288 367
-306 369 -14 2 -58 -46 -172 -187z m207 28 l53 -68 -117 0 c-95 0 -115 2 -108
14 22 36 108 134 114 128 3 -4 29 -37 58 -74z"/>
<path d="M80 315 l0 -185 55 0 55 0 0 185 0 185 -55 0 -55 0 0 -185z"/>
<path d="M370 315 l0 -185 55 0 55 0 0 90 0 90 36 0 c30 0 54 -14 151 -90
l114 -91 60 3 60 3 -111 84 c-60 46 -110 87 -110 90 0 4 19 12 43 18 121 33
132 119 20 159 -26 9 -91 13 -205 14 l-168 0 0 -185z m298 145 c40 -24 48 -43
33 -76 -15 -33 -60 -51 -149 -59 l-72 -8 0 82 0 81 78 0 c59 0 84 -5 110 -20z"/>
<path d="M1091 320 c52 -56 109 -118 127 -140 l33 -38 -44 -46 -44 -46 -69 6
c-57 5 -72 4 -83 -9 -45 -55 124 -61 199 -7 25 18 290 360 290 375 0 3 -10 5
-22 5 -17 -1 -42 -26 -97 -100 -40 -55 -76 -100 -81 -100 -4 0 -49 45 -100
100 l-92 100 -55 0 -55 0 93 -100z"/>
</g>
</svg>
