<?xml version="1.0" standalone="no"?>
<!DOCTYPE svg PUBLIC "-//W3C//DTD SVG 20010904//EN"
 "http://www.w3.org/TR/2001/REC-SVG-20010904/DTD/svg10.dtd">
<svg version="1.0" xmlns="http://www.w3.org/2000/svg"
 width="300.000000pt" height="173.000000pt" viewBox="0 0 300.000000 173.000000"
 preserveAspectRatio="xMidYMid meet">
<metadata>
Created by potrace 1.10, written by Peter Selinger 2001-2011
</metadata>
<g transform="translate(0.000000,173.000000) scale(0.100000,-0.100000)"
fill="#ffffff" stroke="none">
<path d="M763 1670 c-332 -36 -616 -280 -704 -606 -29 -106 -31 -297 -5 -399
42 -161 152 -339 269 -434 240 -196 565 -246 844 -129 97 40 182 96 259 171
l63 62 63 -63 c112 -113 251 -191 406 -226 101 -23 268 -21 368 4 167 42 339
152 447 285 61 76 131 217 158 320 30 112 30 289 0 399 -76 283 -275 496 -551
589 -90 30 -103 31 -245 32 -130 0 -160 -3 -225 -23 -143 -45 -272 -125 -367
-224 l-51 -55 -59 59 c-171 174 -424 264 -670 238z m1592 -30 c74 -24 130 -49
123 -56 -3 -2 -29 5 -59 15 -30 11 -72 22 -94 25 -27 5 -14 -3 41 -22 193 -68
334 -180 433 -345 77 -128 111 -251 111 -402 0 -353 -228 -654 -572 -756 -43
-13 -50 -17 -23 -13 74 11 89 15 102 26 7 6 13 8 13 4 0 -4 18 3 40 14 45 23
57 25 38 7 -22 -22 -108 -58 -186 -78 -96 -24 -264 -26 -365 -3 -72 17 -157
48 -157 59 0 3 9 1 20 -5 11 -6 20 -8 20 -6 0 3 11 1 25 -4 38 -14 135 -28
129 -18 -3 4 -15 8 -27 8 -41 1 -192 65 -262 112 -39 25 -100 78 -137 116
l-68 70 35 58 c19 31 37 66 41 76 8 27 16 22 53 -33 74 -109 214 -204 346
-234 78 -18 99 -14 28 5 -91 25 -194 82 -264 145 -79 72 -127 136 -127 175 -1
21 2 29 7 21 12 -19 24 4 17 32 -3 12 0 29 5 37 9 12 10 11 4 -5 -4 -14 -3
-17 4 -10 12 12 20 295 8 295 -4 0 -4 8 1 18 10 17 8 32 -9 67 -8 17 -16 51
-18 78 -1 5 -5 5 -11 2 -24 -15 -7 39 27 87 47 65 109 123 182 169 52 33 143
73 166 74 6 1 19 6 30 13 18 11 17 12 -10 6 -159 -32 -305 -125 -391 -249
l-38 -55 -24 47 c-13 27 -33 63 -44 81 l-21 34 84 82 c98 96 189 153 314 196
79 27 84 30 40 24 -27 -4 -67 -13 -87 -20 -52 -18 -48 -7 6 17 83 37 163 48
301 45 100 -3 146 -9 200 -26z m-1332 -26 c40 -8 117 -37 172 -64 162 -78 267
-181 351 -342 64 -124 86 -216 86 -358 0 -219 -71 -389 -227 -545 -173 -173
-348 -243 -585 -232 -135 7 -205 24 -315 78 -154 76 -280 202 -354 353 -54
110 -71 180 -78 316 -6 132 14 240 67 356 99 218 309 388 544 439 85 19 252
18 339 -1z"/>
<path d="M2096 1594 c-5 -13 -9 -14 -21 -4 -20 17 -32 5 -15 -15 10 -12 10
-21 2 -40 -13 -28 2 -44 16 -18 9 14 12 15 26 4 21 -17 33 -7 17 13 -8 9 -10
27 -6 46 7 31 -8 43 -19 14z m3 -11 c12 10 13 9 3 -8 -8 -16 -7 -24 6 -40 16
-18 16 -19 0 -6 -9 7 -22 10 -27 6 -7 -3 -8 0 -5 10 4 8 0 23 -7 33 -11 14
-11 15 1 5 11 -10 17 -10 29 0z"/>
<path d="M2186 1578 c-9 -34 -7 -68 3 -68 12 0 21 26 21 61 0 34 -15 39 -24 7z
m11 -40 c-3 -7 -5 -2 -5 12 0 14 2 19 5 13 2 -7 2 -19 0 -25z"/>
<path d="M1933 1579 c-8 -8 -8 -22 -1 -47 14 -51 15 -52 48 -40 32 11 31 33
-1 23 -11 -4 -19 -2 -19 4 0 6 5 11 10 11 6 0 10 5 10 11 0 6 -7 9 -15 6 -8
-4 -17 -2 -20 2 -2 5 4 11 15 14 11 3 20 10 20 16 0 14 -33 14 -47 0z"/>
<path d="M2277 1562 c-23 -25 -21 -48 5 -66 27 -19 51 -21 45 -3 -2 6 -9 11
-15 10 -16 -4 -35 25 -28 43 4 12 14 14 38 9 31 -6 32 -5 14 10 -26 20 -39 19
-59 -3z"/>
<path d="M1840 1514 c0 -25 -1 -26 -24 -11 -33 22 -37 12 -12 -33 22 -42 42
-54 31 -20 -5 16 -3 19 11 13 14 -5 16 -3 11 13 -7 19 -7 19 8 0 23 -30 28
-13 9 28 -21 42 -34 46 -34 10z"/>
<path d="M2400 1510 c-25 -25 -25 -42 -2 -63 23 -21 36 -21 56 -1 22 21 20 61
-3 74 -26 13 -28 13 -51 -10z m48 -27 c2 -12 -4 -23 -13 -27 -32 -12 -48 17
-23 42 17 17 32 10 36 -15z"/>
<path d="M2240 1456 c113 -34 240 -96 240 -117 0 -6 4 -8 8 -5 8 5 88 -74 130
-129 122 -157 145 -432 52 -615 -73 -142 -222 -272 -369 -320 -24 -8 -39 -16
-33 -18 15 -5 121 33 177 64 28 15 84 62 126 103 122 122 179 261 179 436 0
171 -57 311 -175 431 -98 99 -216 162 -335 178 l-45 6 45 -14z"/>
<path d="M2083 1116 c-13 -6 -23 -14 -23 -18 0 -7 41 -23 52 -20 4 1 5 -5 1
-14 -4 -11 -9 -12 -16 -5 -13 13 -28 15 -25 4 0 -5 -2 -16 -6 -25 -4 -9 -3
-25 3 -35 9 -15 10 -13 5 10 -6 28 1 33 26 17 10 -6 11 -10 3 -10 -7 0 -13 -9
-13 -19 0 -11 -4 -23 -10 -26 -5 -3 -10 -12 -10 -18 0 -7 4 -6 10 3 9 13 10
13 11 0 0 -8 2 -27 3 -42 1 -25 0 -26 -16 -11 -10 9 -18 27 -18 40 0 12 -4 23
-10 23 -5 0 -10 5 -10 11 0 5 5 7 10 4 6 -3 10 -1 10 4 0 21 -19 11 -33 -18
-13 -26 -13 -33 2 -63 8 -18 25 -40 36 -50 23 -19 18 -30 -11 -22 -11 3 -25
19 -32 36 -7 19 -16 29 -25 25 -19 -7 -33 4 -41 33 -5 15 -4 20 2 12 6 -9 14
-6 32 13 18 20 21 27 11 39 -10 11 -9 15 6 19 15 4 14 5 -4 6 -24 1 -44 -20
-25 -27 18 -6 14 -33 -4 -30 -9 2 -21 -5 -27 -14 -16 -24 9 -68 40 -68 14 0
23 -6 23 -16 0 -39 64 -65 87 -35 9 13 6 21 -14 41 -45 44 -58 69 -43 83 7 7
10 7 7 1 -10 -17 31 -76 51 -72 9 2 18 9 18 16 4 36 4 37 14 22 7 -11 10 -11
10 -2 0 7 4 11 8 8 4 -2 13 4 20 15 7 10 8 19 3 19 -6 0 -13 -5 -17 -11 -4 -8
-9 -7 -15 2 -8 12 -10 12 -18 0 -6 -9 -11 -10 -15 -2 -4 6 -3 11 2 11 6 0 9
19 8 43 -2 41 23 94 38 80 10 -10 7 -25 -4 -18 -5 3 -10 1 -10 -4 0 -6 8 -11
18 -11 14 0 15 -2 2 -10 -12 -7 -12 -10 -1 -10 7 0 11 -6 8 -15 -4 -8 -2 -17
2 -20 12 -7 21 19 16 45 -2 11 1 20 8 20 7 0 -1 12 -18 25 l-30 26 41 -20 c23
-11 44 -17 48 -14 7 8 -61 39 -100 46 -16 3 -39 0 -51 -7z m50 -13 c-7 -2 -19
-2 -25 0 -7 3 -2 5 12 5 14 0 19 -2 13 -5z m-31 -125 c-8 -8 -9 -4 -5 13 4 13
8 18 11 10 2 -7 -1 -18 -6 -23z"/>
<path d="M2016 1072 c-35 -21 -34 -35 1 -44 33 -9 57 17 42 44 -5 10 -11 18
-12 17 -1 0 -15 -8 -31 -17z m44 -19 c0 -3 -6 -3 -12 0 -7 2 -21 0 -30 -5 -11
-5 -18 -5 -18 1 0 5 8 11 18 13 18 5 42 -1 42 -9z"/>
<path d="M2206 1054 c-3 -7 4 -20 15 -30 10 -9 19 -22 19 -27 0 -6 -9 -2 -20
8 -19 17 -20 17 -31 -8 -9 -20 -8 -32 5 -58 16 -32 16 -32 -4 -14 -29 26 -24
4 5 -24 14 -13 23 -17 20 -9 -4 9 0 15 10 15 11 0 14 -7 10 -21 -5 -17 -3 -17
10 4 l16 25 -6 -27 c-3 -17 -1 -28 5 -28 7 0 10 14 8 33 -2 26 -7 32 -26 31
-23 -1 -61 40 -49 53 4 3 11 -7 17 -22 6 -15 13 -25 16 -22 3 3 -2 20 -12 39
l-17 33 22 -19 c13 -12 21 -14 21 -7 0 7 5 9 11 5 8 -4 8 -9 0 -17 -6 -6 -11
-18 -10 -26 0 -11 3 -10 9 4 7 18 9 18 20 -10 6 -16 9 -45 6 -63 -3 -21 -1
-30 6 -26 6 4 8 27 6 55 -5 49 4 81 16 60 4 -6 2 -11 -3 -11 -6 0 -11 -5 -11
-11 0 -5 5 -7 12 -3 6 4 8 3 5 -3 -3 -5 -8 -43 -11 -84 -3 -65 -2 -71 10 -54
8 10 15 39 16 64 0 25 2 59 2 74 1 16 -4 33 -11 39 -7 6 -13 15 -13 21 0 5
-11 25 -25 43 -25 33 -60 42 -69 18z m56 -29 c2 3 5 -1 6 -7 0 -7 4 -23 7 -35
5 -15 3 -23 -4 -23 -7 0 -9 5 -6 10 4 6 -6 28 -21 48 -18 24 -21 31 -8 19 12
-9 23 -15 26 -12z m45 -207 c-3 -8 -6 -5 -6 6 -1 11 2 17 5 13 3 -3 4 -12 1
-19z"/>
<path d="M2811 1036 c-7 -8 -19 -12 -28 -9 -18 7 -32 -13 -26 -37 4 -15 10
-15 44 -6 21 5 39 14 39 19 0 4 -10 5 -22 1 -23 -7 -23 -6 -4 15 11 11 17 23
14 26 -3 3 -11 -1 -17 -9z m-21 -37 c0 -5 -4 -9 -10 -9 -5 0 -10 7 -10 16 0 8
5 12 10 9 6 -3 10 -10 10 -16z"/>
<path d="M1929 1027 c6 -8 9 -16 6 -19 -3 -2 2 -5 10 -5 19 0 19 5 1 23 -18
18 -32 19 -17 1z"/>
<path d="M2145 979 c-9 -14 -2 -20 14 -10 8 6 9 11 3 15 -6 3 -14 1 -17 -5z"/>
<path d="M2773 954 c-9 -24 10 -49 37 -49 27 0 46 25 37 49 -9 22 -65 22 -74
0z m57 -13 c0 -24 -25 -34 -40 -16 -15 18 -5 35 21 35 12 0 19 -7 19 -19z"/>
<path d="M1885 950 c3 -5 8 -10 11 -10 2 0 4 5 4 10 0 6 -5 10 -11 10 -5 0 -7
-4 -4 -10z"/>
<path d="M2138 885 c-6 -13 -16 -22 -21 -18 -6 4 -8 0 -4 -10 3 -9 2 -19 -3
-22 -12 -7 9 -42 29 -50 7 -3 19 -1 26 5 9 8 15 8 20 0 7 -11 51 -12 79 -1 15
6 10 13 -38 49 -31 24 -56 49 -56 57 0 24 -19 17 -32 -10z m32 -40 c0 -8 8
-12 19 -10 13 2 18 -1 16 -13 -2 -9 -4 -19 -4 -21 -1 -2 -9 3 -19 12 -11 10
-26 14 -40 10 -24 -6 -27 -1 -12 27 11 21 40 17 40 -5z"/>
<path d="M2778 860 c4 -25 6 -28 16 -16 6 8 25 17 41 19 27 4 26 4 -7 6 -21 0
-38 6 -38 11 0 6 -4 10 -8 10 -5 0 -7 -14 -4 -30z"/>
<path d="M1803 868 c-11 -19 -12 -37 -2 -44 16 -10 9 -26 -8 -19 -14 5 -15 3
-6 -6 18 -18 33 -1 26 32 -4 21 -1 34 8 40 9 6 10 9 2 9 -6 0 -15 -6 -20 -12z"/>
<path d="M1925 871 c-6 -11 13 -26 22 -17 4 3 1 6 -6 6 -7 0 -9 5 -6 10 3 6 4
10 1 10 -3 0 -7 -4 -11 -9z"/>
<path d="M2371 866 c-8 -10 -11 -26 -7 -42 l7 -27 16 22 c11 16 13 29 6 43 -8
18 -10 19 -22 4z"/>
<path d="M1870 850 c0 -5 4 -10 9 -10 6 0 13 5 16 10 3 6 -1 10 -9 10 -9 0
-16 -4 -16 -10z"/>
<path d="M1960 841 c0 -14 18 -23 31 -15 8 4 7 9 -2 15 -18 11 -29 11 -29 0z"/>
<path d="M2818 816 c-21 -5 -38 -13 -38 -17 0 -10 70 -33 77 -25 4 3 1 6 -5 6
-16 0 -15 27 1 33 27 10 0 12 -35 3z"/>
<path d="M1890 808 c0 -18 12 -33 32 -41 20 -7 34 33 15 45 -19 12 -47 9 -47
-4z"/>
<path d="M1985 800 c3 -5 10 -10 16 -10 5 0 9 5 9 10 0 6 -7 10 -16 10 -8 0
-12 -4 -9 -10z"/>
<path d="M1954 777 c-9 -25 6 -39 37 -35 18 3 30 -1 34 -10 5 -15 71 -15 92 0
18 14 74 28 68 17 -4 -5 -15 -9 -25 -9 -10 0 -27 -10 -37 -22 -24 -31 -95 -32
-118 -3 -14 18 -14 18 -9 1 6 -16 4 -17 -14 -7 -31 16 -49 14 -26 -4 10 -8 14
-14 8 -13 -7 2 -12 -1 -13 -7 0 -5 13 -8 29 -7 32 4 38 -6 18 -27 -11 -10 -9
-11 5 -5 10 4 29 1 42 -6 30 -16 165 2 165 22 0 6 -7 8 -15 4 -8 -3 -15 -1
-15 4 0 5 8 11 18 13 9 2 6 3 -8 1 -14 -1 -33 3 -43 11 -16 12 -16 13 4 18 12
3 31 2 43 -2 26 -10 66 4 66 23 0 23 -22 31 -35 13 -14 -19 -35 -23 -35 -6 0
5 6 7 13 3 8 -5 7 -2 -2 9 -13 17 -24 16 -70 -1 -8 -3 -12 -1 -8 5 8 13 -26
13 -35 -1 -5 -7 -8 -3 -8 9 0 15 -3 17 -9 7 -6 -11 -10 -10 -15 5 -7 17 -8 17
-21 0 -8 -12 -15 -14 -20 -7 -3 5 -11 8 -16 4 -5 -3 -16 0 -24 6 -12 10 -16 9
-21 -3z m119 -108 l6 -21 30 23 c33 24 52 19 35 -8 -13 -21 -41 -32 -28 -12 6
12 5 12 -9 0 -21 -17 -67 -1 -67 24 0 23 27 18 33 -6z m19 -1 c-7 -7 -12 -8
-12 -2 0 14 12 26 19 19 2 -3 -1 -11 -7 -17z"/>
<path d="M2342 774 c-14 -10 -22 -25 -22 -45 0 -27 2 -28 20 -17 11 7 18 19
15 26 -3 7 -1 10 4 7 5 -3 12 -1 16 5 3 5 2 10 -4 10 -6 0 -8 7 -5 15 8 19 4
19 -24 -1z"/>
<path d="M1820 774 c0 -5 9 -20 20 -34 l20 -25 0 29 c0 16 -3 26 -7 23 -3 -4
-12 -2 -20 4 -7 6 -13 8 -13 3z"/>
<path d="M2270 759 c0 -5 5 -7 10 -4 6 3 10 8 10 11 0 2 -4 4 -10 4 -5 0 -10
-5 -10 -11z"/>
<path d="M2790 748 l25 -10 -22 -11 c-30 -13 -29 -27 1 -27 13 0 31 -3 40 -6
9 -3 16 -1 16 5 0 6 -12 11 -27 11 l-28 1 34 18 34 18 -33 6 c-49 10 -69 8
-40 -5z"/>
<path d="M1880 696 c0 -8 6 -17 13 -19 8 -4 7 -6 -3 -6 -12 -1 33 -31 46 -31
12 0 1 22 -21 45 -30 29 -35 31 -35 11z"/>
<path d="M2273 687 c-6 -6 -13 -21 -17 -32 -6 -16 -9 -17 -17 -5 -9 13 -10 13
-6 0 6 -23 87 -5 87 20 0 17 -37 31 -47 17z"/>
<path d="M2795 676 c22 -7 42 -12 44 -10 8 7 -4 12 -44 18 l-40 5 40 -13z"/>
<path d="M2750 641 c-14 -27 -13 -28 14 -35 13 -3 31 -8 39 -12 19 -7 30 22
17 47 -14 25 -56 25 -70 0z m58 -14 c4 -19 -15 -22 -38 -7 -13 9 -13 11 0 20
19 13 34 8 38 -13z"/>
<path d="M2162 620 c-21 -18 -22 -19 -5 -28 22 -11 58 0 66 21 3 9 -1 18 -9
21 -22 9 -26 7 -52 -14z"/>
<path d="M1960 619 c0 -9 15 -13 34 -10 5 1 6 -6 2 -15 -5 -12 -3 -14 6 -7 18
13 53 10 51 -4 -2 -7 0 -13 5 -14 4 0 18 -2 32 -4 14 -1 32 1 40 6 13 6 13 9
-2 14 -10 4 -18 15 -19 24 0 10 -2 12 -6 3 -3 -7 1 -20 9 -30 11 -15 11 -16
-3 -5 -9 7 -18 10 -22 7 -3 -3 -4 2 -3 13 2 10 1 12 -1 6 -6 -17 -13 -16 -35
4 -19 17 -88 27 -88 12z"/>
<path d="M2732 588 c-19 -19 -15 -27 24 -43 45 -19 55 -19 30 0 -19 15 -19 15
2 15 12 0 22 5 22 10 0 6 -9 10 -19 10 -11 0 -23 5 -26 10 -8 13 -18 13 -33
-2z m28 -18 c0 -5 -4 -10 -10 -10 -5 0 -10 5 -10 10 0 6 5 10 10 10 6 0 10 -4
10 -10z"/>
<path d="M2702 528 c-19 -19 -14 -36 13 -54 20 -13 28 -14 40 -4 28 23 11 70
-25 70 -9 0 -21 -5 -28 -12z m48 -13 c13 -16 6 -35 -15 -35 -18 0 -28 17 -21
35 7 19 20 19 36 0z"/>
<path d="M2662 458 c-20 -20 -14 -48 13 -60 43 -19 73 23 39 56 -19 19 -36 20
-52 4z m48 -28 c0 -13 -7 -20 -19 -20 -22 0 -35 15 -26 30 12 19 45 11 45 -10z"/>
<path d="M1606 419 c-15 -12 -25 -24 -22 -27 3 -2 13 1 22 9 15 12 16 10 9
-20 l-7 -34 36 28 c20 15 34 30 31 33 -3 3 -11 0 -17 -6 -20 -20 -28 -14 -18
13 12 31 1 32 -34 4z"/>
<path d="M2616 405 c-19 -19 -20 -37 -4 -53 19 -19 56 -14 68 8 6 11 7 20 1
20 -5 0 -11 -7 -15 -15 -7 -19 -35 -19 -42 0 -4 8 -1 22 6 30 18 22 6 29 -14
10z"/>
<path d="M1663 363 c-36 -18 -43 -32 -15 -29 11 1 16 -5 14 -16 -5 -29 6 -20
28 22 23 44 20 46 -27 23z"/>
<path d="M1726 339 c3 -6 -3 -24 -15 -40 -12 -16 -17 -29 -12 -29 5 0 18 11
28 25 13 18 22 22 33 15 12 -8 12 -11 -1 -27 -24 -27 -31 -43 -21 -43 6 0 19
14 30 32 l20 31 -28 24 c-30 24 -46 30 -34 12z"/>
<path d="M2554 328 c5 -21 3 -28 -8 -28 -8 0 -17 6 -19 13 -4 8 -8 9 -14 1 -4
-6 -16 -13 -25 -17 -21 -7 -24 -47 -6 -65 17 -17 39 -14 67 8 18 16 21 23 12
34 -16 19 5 32 24 16 24 -20 16 2 -11 35 l-26 30 6 -27z m-14 -78 c-40 -25
-81 7 -44 35 17 12 21 11 39 -6 17 -17 18 -21 5 -29z"/>
<path d="M1786 271 c-34 -37 2 -83 43 -55 26 19 27 50 2 64 -25 13 -25 13 -45
-9z m44 -20 c0 -11 -5 -23 -11 -27 -15 -9 -33 12 -26 30 9 23 37 20 37 -3z"/>
<path d="M1857 232 c-10 -18 -16 -39 -14 -45 3 -7 9 -1 15 13 l10 25 8 -34 7
-34 18 34 c21 39 23 49 9 49 -5 0 -10 -7 -10 -15 0 -27 -19 -16 -22 13 l-3 27
-18 -33z"/>
<path d="M2421 243 c1 -10 4 -29 8 -43 6 -22 8 -23 14 -7 5 13 13 16 27 12 15
-5 13 1 -11 24 -35 36 -39 37 -38 14z"/>
<path d="M2228 243 c7 -3 16 -2 19 1 4 3 -2 6 -13 5 -11 0 -14 -3 -6 -6z"/>
<path d="M2354 234 c-9 -4 -8 -15 3 -43 12 -30 19 -37 34 -34 26 7 36 25 13
23 -34 -4 -38 0 -18 16 18 15 18 15 -3 9 -27 -8 -31 10 -5 24 13 8 14 10 2 10
-8 0 -20 -3 -26 -5z"/>
<path d="M1931 196 c-24 -39 -27 -53 -7 -37 11 10 17 8 25 -6 8 -14 10 -9 11
30 0 26 -2 47 -4 47 -2 0 -14 -15 -25 -34z"/>
<path d="M1982 180 c-11 -45 -8 -50 27 -49 25 0 25 1 4 11 -18 8 -20 16 -16
44 8 47 -2 43 -15 -6z"/>
<path d="M2296 211 c-8 -13 5 -70 17 -78 6 -4 8 2 5 15 -7 25 9 30 18 7 4 -8
10 -12 15 -9 5 3 5 12 0 22 -5 9 -12 25 -15 35 -6 18 -31 23 -40 8z m28 -22
c-3 -5 -10 -7 -15 -3 -5 3 -7 10 -3 15 3 5 10 7 15 3 5 -3 7 -10 3 -15z"/>
<path d="M2240 200 c-8 -5 -10 -10 -4 -10 6 0 15 -17 21 -37 l11 -38 -1 35
c-1 19 2 41 7 48 9 14 -12 16 -34 2z"/>
<path d="M2092 188 c-32 -32 2 -87 40 -67 31 17 17 79 -17 79 -6 0 -16 -5 -23
-12z m45 -24 c3 -8 1 -20 -5 -26 -15 -15 -43 8 -35 28 7 19 32 18 40 -2z"/>
<path d="M2160 173 c0 -37 13 -56 36 -51 14 2 20 13 22 41 2 20 -1 37 -6 37
-6 0 -9 -14 -8 -31 0 -18 -5 -34 -11 -36 -9 -3 -13 7 -13 31 0 20 -4 36 -10
36 -5 0 -10 -12 -10 -27z"/>
<path d="M792 1588 c-27 -27 -6 -68 35 -68 29 0 48 33 33 60 -12 22 -49 27
-68 8z m54 -43 c-3 -9 -14 -15 -23 -13 -22 4 -30 38 -11 49 18 11 43 -15 34
-36z"/>
<path d="M890 1576 c0 -13 -3 -31 -6 -40 -3 -9 -1 -16 4 -16 6 0 12 10 14 23
4 21 5 21 18 -5 18 -39 27 -35 32 13 4 45 -9 65 -14 22 l-4 -28 -14 28 c-16
33 -30 35 -30 3z"/>
<path d="M714 1560 c3 -18 6 -36 6 -41 0 -5 4 -9 10 -9 5 0 7 8 4 18 -5 15 -3
14 10 -2 17 -21 33 -16 20 6 -5 7 -8 22 -9 33 0 13 -8 21 -24 23 -22 3 -23 1
-17 -28z m31 10 c3 -5 1 -10 -4 -10 -6 0 -11 5 -11 10 0 6 2 10 4 10 3 0 8 -4
11 -10z"/>
<path d="M652 1571 c-11 -7 -11 -9 2 -14 9 -4 16 -18 16 -32 0 -14 4 -25 9
-25 6 0 9 18 8 40 -1 40 -10 47 -35 31z"/>
<path d="M982 1568 c-27 -27 -6 -68 35 -68 29 0 48 33 33 60 -12 22 -49 27
-68 8z m48 -13 c10 -12 10 -18 0 -29 -14 -18 -40 -10 -40 13 0 32 20 40 40 16z"/>
<path d="M594 1548 c-4 -6 2 -19 14 -29 22 -17 31 -36 13 -24 -5 3 -13 1 -16
-5 -4 -7 -19 -2 -40 15 -39 29 -45 24 -36 -30 5 -30 8 -35 14 -22 4 10 15 17
24 16 10 -1 26 1 36 4 9 4 24 9 32 12 22 6 18 33 -5 40 -11 3 -20 11 -20 16 0
6 5 7 10 4 6 -3 10 -1 10 4 0 15 -27 14 -36 -1z m-34 -58 c0 -5 -4 -10 -10
-10 -5 0 -10 5 -10 10 0 6 5 10 10 10 6 0 10 -4 10 -10z"/>
<path d="M1078 1529 c-24 -41 -23 -60 1 -30 l19 25 -5 -28 c-4 -22 -2 -27 8
-24 8 3 14 10 13 16 -1 7 -2 26 -2 42 -2 38 -12 38 -34 -1z"/>
<path d="M1132 1528 c-15 -15 -16 -32 -2 -23 7 4 9 -2 4 -19 -4 -16 -2 -26 5
-26 6 0 11 11 11 24 0 13 3 31 6 40 7 19 -7 21 -24 4z"/>
<path d="M1191 1502 c0 -13 -6 -32 -12 -44 -17 -32 -4 -31 30 3 31 30 36 54 7
30 -12 -10 -15 -8 -19 11 l-4 23 -2 -23z"/>
<path d="M694 1460 c-183 -48 -335 -174 -416 -346 -93 -198 -69 -453 61 -631
l30 -41 56 23 c31 12 94 31 139 41 l82 18 27 95 c41 150 59 281 47 338 -14 60
-19 66 -102 114 -68 40 -142 98 -135 106 2 2 37 -12 78 -32 71 -34 110 -42
143 -29 20 8 21 28 1 44 -8 7 -15 22 -15 34 0 47 46 60 90 27 23 -18 24 -22
12 -53 -16 -46 -17 -46 23 -62 31 -13 42 -30 101 -148 74 -151 81 -161 95
-135 6 9 19 26 31 37 19 18 19 20 4 36 -21 21 -17 58 7 62 29 6 58 -26 50 -56
-4 -17 -1 -29 10 -37 21 -15 67 -118 67 -148 -1 -15 -10 -4 -31 37 -31 58 -48
72 -29 22 5 -15 10 -79 10 -142 l0 -114 28 0 c15 0 66 -11 114 -23 l88 -24 31
48 c56 87 82 181 87 305 5 131 -10 203 -64 312 -63 124 -186 238 -319 295
-118 50 -274 61 -401 27z m320 -24 c33 -9 63 -22 68 -28 4 -7 8 -10 8 -5 0 10
75 -29 120 -62 99 -73 206 -222 212 -296 1 -14 6 -25 9 -25 12 0 29 -97 29
-164 0 -94 -18 -172 -60 -262 -20 -45 -41 -84 -46 -87 -9 -5 -179 34 -188 44
-3 3 -7 35 -9 72 -3 60 -1 66 17 69 17 2 21 10 20 40 -1 42 -27 102 -57 135
-11 13 -17 29 -13 38 13 36 -36 82 -75 70 -27 -9 -42 -50 -28 -77 8 -16 8 -24
-4 -35 -8 -9 -20 -12 -25 -9 -6 4 -36 57 -67 119 -53 104 -75 135 -113 156
-11 6 -12 12 -3 29 17 32 3 68 -33 87 -43 23 -83 14 -97 -22 -10 -27 -9 -39 7
-77 7 -18 4 -19 -34 -12 -23 3 -69 20 -103 37 -55 28 -62 30 -77 16 -14 -14
-11 -20 29 -60 24 -24 75 -59 112 -78 86 -43 102 -71 94 -162 -8 -80 -30 -183
-59 -272 -21 -65 -25 -70 -58 -78 -19 -5 -72 -20 -117 -33 -44 -13 -88 -21
-97 -18 -44 17 -117 193 -131 314 -6 56 10 200 23 210 4 3 7 10 7 15 1 23 26
95 35 100 6 4 17 22 25 41 8 19 21 42 29 50 9 8 21 23 28 32 19 26 124 112
136 112 6 0 12 3 14 8 8 19 160 76 228 85 53 7 188 -2 244 -17z"/>
<path d="M1122 1254 c-31 -33 -32 -34 -12 -46 11 -7 20 -18 20 -24 0 -24 27
-21 58 7 l33 29 -33 34 -33 33 -33 -33z m66 -25 l27 -1 -25 -7 c-14 -4 -27
-17 -31 -31 l-6 -25 -4 25 c-3 15 -13 27 -29 31 l-25 7 28 1 c22 1 27 6 28 29
l2 27 4 -27 c3 -22 10 -28 31 -29z"/>
<path d="M1006 1134 c-4 -10 -1 -14 6 -12 15 5 23 28 10 28 -5 0 -13 -7 -16
-16z"/>
<path d="M1040 1137 c0 -8 8 -18 18 -20 15 -4 15 -5 0 -6 -9 0 -19 -9 -21 -18
-4 -17 -5 -17 -6 0 0 9 -8 17 -18 17 -14 0 -14 -2 3 -21 15 -16 20 -18 29 -7
6 7 16 18 23 24 10 8 8 15 -8 29 -17 16 -20 16 -20 2z"/>
<path d="M1185 994 c-18 -13 -18 -14 0 -34 17 -19 20 -19 36 -4 32 29 -1 64
-36 38z m31 -30 c-7 -7 -14 -8 -22 0 -7 7 -8 14 0 22 7 7 14 8 22 0 7 -7 8
-14 0 -22z"/>
<path d="M525 942 c-32 -23 -35 -39 -12 -60 l23 -22 22 23 22 23 -23 22 c-12
11 -27 18 -32 14z m33 -33 c15 -1 15 -2 0 -6 -10 -2 -19 -12 -19 -21 -1 -15
-2 -15 -6 1 -2 9 -12 18 -21 18 -15 1 -15 2 1 6 9 2 18 12 18 21 1 15 2 15 6
0 2 -10 12 -19 21 -19z"/>
<path d="M546 691 c-15 -16 -15 -19 4 -36 16 -14 22 -15 35 -5 20 17 19 37 -4
49 -14 8 -22 6 -35 -8z m30 -27 c-7 -7 -14 -8 -22 0 -7 7 -8 14 0 22 7 7 14 8
22 0 7 -7 8 -14 0 -22z"/>
<path d="M412 1458 c-7 -9 -3 -22 12 -45 13 -18 26 -30 29 -26 4 3 1 13 -6 21
-10 13 -9 14 10 4 12 -7 24 -8 27 -3 3 5 -4 11 -16 14 -12 4 -19 9 -15 13 7 8
-10 34 -23 34 -4 0 -12 -6 -18 -12z m28 -18 c0 -5 -2 -10 -4 -10 -3 0 -8 5
-11 10 -3 6 -1 10 4 10 6 0 11 -4 11 -10z"/>
<path d="M1274 1419 c-19 -22 -13 -43 19 -63 12 -8 21 -5 36 8 25 23 26 39 5
60 -21 21 -37 20 -60 -5z m54 -22 c4 -20 -25 -34 -40 -19 -15 15 -1 44 19 40
10 -2 19 -11 21 -21z"/>
<path d="M346 1401 c-38 -42 17 -93 57 -53 19 20 19 22 3 46 -20 31 -37 33
-60 7z m52 -24 c4 -20 -25 -34 -40 -19 -15 15 -1 44 19 40 10 -2 19 -11 21
-21z"/>
<path d="M1350 1356 c-25 -28 -21 -56 8 -56 10 0 29 11 42 25 13 14 19 25 13
25 -5 0 -18 -9 -28 -20 -10 -11 -22 -20 -27 -20 -16 0 -8 25 12 38 20 12 27
32 12 32 -5 0 -19 -11 -32 -24z"/>
<path d="M289 1344 c-11 -14 -10 -20 14 -40 33 -28 58 -33 35 -6 -9 9 -13 24
-10 32 5 13 3 13 -13 0 -16 -14 -17 -13 -11 8 9 26 4 28 -15 6z"/>
<path d="M1423 1314 c3 -4 -5 -15 -18 -26 -14 -11 -25 -24 -25 -30 0 -6 9 -3
19 6 11 10 28 19 38 21 10 2 20 4 22 4 8 2 -22 31 -32 31 -6 0 -7 -3 -4 -6z"/>
<path d="M220 1255 c-7 -9 -11 -17 -9 -18 2 -2 18 -13 35 -25 l30 -21 13 21
c7 11 9 23 5 26 -4 4 -9 1 -11 -5 -3 -7 -9 -13 -15 -13 -6 0 -7 8 -4 17 4 9 1
20 -6 25 -18 11 -24 10 -38 -7z m30 -5 c0 -5 -5 -10 -11 -10 -5 0 -7 5 -4 10
3 6 8 10 11 10 2 0 4 -4 4 -10z"/>
<path d="M1433 1249 c-38 -24 -42 -33 -11 -23 20 6 21 5 9 -10 -8 -9 -11 -20
-7 -24 4 -4 12 1 17 11 6 9 16 17 24 17 18 0 26 14 19 34 -8 20 -12 20 -51 -5z
m37 -9 c0 -5 -2 -10 -4 -10 -3 0 -8 5 -11 10 -3 6 -1 10 4 10 6 0 11 -4 11
-10z"/>
<path d="M187 1192 c-22 -24 -21 -35 2 -56 25 -23 59 -13 67 20 9 35 -3 43
-15 10 -11 -28 -38 -35 -47 -11 -4 8 -1 22 6 30 19 23 6 28 -13 7z"/>
<path d="M1475 1193 c-16 -9 -31 -17 -33 -18 -6 -5 11 -35 20 -35 6 0 8 6 5
14 -9 22 5 28 20 8 13 -16 14 -15 8 6 -7 23 10 32 18 10 2 -7 7 -10 11 -7 3 3
0 13 -7 22 -11 14 -15 14 -42 0z"/>
<path d="M1470 1124 c0 -3 6 -12 14 -20 8 -8 12 -23 8 -36 -5 -19 -1 -17 31
12 20 18 34 37 31 41 -6 10 -84 13 -84 3z m60 -18 c0 -11 -19 -15 -25 -6 -3 5
1 10 9 10 9 0 16 -2 16 -4z"/>
<path d="M150 1111 c0 -5 11 -12 24 -15 13 -3 31 -9 40 -12 9 -3 16 -2 16 3 0
5 -15 14 -33 21 -40 14 -47 15 -47 3z"/>
<path d="M137 1077 c-10 -25 -11 -24 24 -36 39 -14 49 -14 49 -1 0 6 -7 10
-15 10 -8 0 -15 8 -16 18 0 10 -3 12 -6 5 -7 -19 -21 -16 -25 5 -3 16 -4 16
-11 -1z"/>
<path d="M1521 1044 c-24 -17 -27 -46 -7 -63 12 -10 14 -6 13 21 -2 27 2 33
18 33 13 0 21 -7 21 -20 3 -38 5 -40 15 -23 7 12 7 24 0 37 -15 27 -35 32 -60
15z"/>
<path d="M117 1010 c-4 -16 2 -22 31 -30 46 -12 52 -12 52 0 0 6 -9 10 -21 10
-15 0 -19 5 -15 15 3 8 1 15 -4 15 -6 0 -10 -4 -10 -10 0 -5 -4 -10 -10 -10
-5 0 -7 7 -4 15 4 8 2 15 -4 15 -5 0 -12 -9 -15 -20z"/>
<path d="M858 940 c4 -19 7 -117 7 -217 l0 -183 66 0 66 0 21 73 c11 39 22
100 24 134 l4 63 -22 -21 c-12 -12 -27 -18 -33 -15 -6 4 -24 32 -41 64 -17 31
-46 75 -65 97 l-35 40 8 -35z m67 -95 c36 -66 63 -95 83 -88 13 5 14 -2 9 -48
-3 -30 -11 -67 -18 -84 -7 -16 -12 -33 -11 -37 3 -13 -34 -27 -64 -25 -28 2
-29 4 -30 57 -1 30 -5 109 -8 175 -7 129 -5 132 39 50z"/>
<path d="M115 944 c-20 -21 -16 -43 11 -61 19 -12 24 -11 45 6 21 16 22 22 11
45 -13 30 -43 34 -67 10z m55 -24 c0 -24 -26 -38 -42 -22 -16 16 -2 42 22 42
13 0 20 -7 20 -20z"/>
<path d="M1515 950 c-3 -5 3 -10 14 -10 12 0 21 -7 21 -15 0 -8 -7 -15 -15
-15 -8 0 -15 -3 -15 -8 0 -4 18 -6 40 -4 37 4 58 22 25 22 -20 0 -19 10 3 26
15 12 12 13 -25 14 -23 0 -45 -4 -48 -10z"/>
<path d="M730 655 l-65 -131 45 7 c25 4 66 8 91 8 l46 1 -18 93 c-33 173 -25
172 -99 22z m70 8 c6 -32 13 -68 16 -80 4 -22 1 -23 -50 -23 l-54 0 36 80 c20
44 38 80 39 80 1 0 7 -26 13 -57z"/>
<path d="M1072 646 c-7 -19 -23 -50 -36 -69 l-24 -35 49 -7 c28 -4 52 -5 54
-4 3 4 -24 141 -29 146 -1 1 -8 -13 -14 -31z m18 -76 c0 -5 -7 -10 -15 -10 -8
0 -15 5 -15 10 0 6 7 10 15 10 8 0 15 -4 15 -10z"/>
<path d="M600 315 l0 -165 265 0 265 0 0 165 0 165 -265 0 -265 0 0 -165z
m520 0 l0 -155 -255 0 -255 0 0 155 0 155 255 0 255 0 0 -155z"/>
<path d="M650 361 c0 -58 4 -82 15 -91 9 -7 18 -10 22 -6 3 3 1 6 -5 6 -7 0
-12 5 -12 11 0 5 3 8 8 5 4 -2 6 13 4 35 -3 24 0 39 7 39 14 0 11 -142 -3
-152 -6 -4 5 -8 24 -8 19 0 30 4 24 8 -17 11 -17 149 0 155 8 3 16 21 19 39 2
18 4 -3 4 -47 0 -58 -2 -69 -6 -40 l-7 40 -5 -37 c-3 -23 -1 -38 6 -38 5 0 3
-5 -5 -10 -8 -5 -10 -10 -4 -10 25 0 34 27 34 102 0 63 -3 78 -15 78 -10 0
-15 -11 -15 -35 0 -32 -2 -35 -30 -35 -28 0 -30 3 -30 35 0 24 -5 35 -15 35
-12 0 -15 -15 -15 -79z m17 -38 c-2 -21 -4 -4 -4 37 0 41 2 58 4 38 2 -21 2
-55 0 -75z"/>
<path d="M845 428 c-2 -7 -18 -50 -34 -95 -17 -46 -26 -83 -20 -83 6 0 6 -6
-1 -19 -13 -26 -13 -31 4 -31 7 0 16 9 19 20 8 29 92 29 100 0 9 -36 24 -21
22 23 -2 53 -55 197 -73 197 -7 0 -15 -6 -17 -12z m54 -83 c17 -43 29 -81 26
-83 -2 -3 -9 6 -14 19 -26 69 -41 99 -49 99 -6 0 -21 -28 -35 -62 -15 -35 -26
-58 -27 -51 0 7 9 36 21 65 12 29 25 64 30 77 5 13 11 22 14 20 2 -3 17 -40
34 -84z m-13 -52 l13 -33 -35 0 c-38 0 -38 2 -11 70 7 18 11 21 14 10 3 -8 12
-30 19 -47z"/>
<path d="M980 430 c0 -5 5 -10 11 -10 7 0 10 -28 8 -85 -4 -82 -3 -85 18 -85
12 0 25 5 28 10 3 6 1 10 -4 10 -7 0 -11 29 -11 75 0 43 4 75 10 75 6 0 10 5
10 10 0 6 -16 10 -35 10 -19 0 -35 -4 -35 -10z m37 -133 c-2 -23 -3 -1 -3 48
0 50 1 68 3 42 2 -26 2 -67 0 -90z"/>
<path d="M960 302 c0 -47 5 -83 12 -90 16 -16 70 -16 86 0 16 16 17 168 1 168
-7 0 -10 -23 -9 -62 3 -85 3 -86 -21 -98 -36 -20 -49 3 -49 86 0 43 -4 74 -10
74 -6 0 -10 -33 -10 -78z"/>
</g>
</svg>
